<svg width="101" height="98" viewBox="0 0 101 98" fill="none" xmlns="http://www.w3.org/2000/svg">
<g clip-path="url(#clip0_164_2933)">
<path d="M11.3459 24.5057C12.3728 25.1034 12.4229 26 11.9971 26.7721C11.6966 27.32 11.396 27.5939 11.1205 27.8181L11.5964 28.2663C11.8719 28.0671 12.2726 27.6935 12.6483 27.0211C13.3746 25.7261 12.9739 24.4808 11.6966 23.7586C10.4192 23.0364 8.99166 23.2356 8.31544 24.4559C7.53904 25.8257 8.54085 26.8717 9.31725 27.2951C9.46753 27.3947 9.6178 27.4445 9.69293 27.4694L11.371 24.5306L11.3459 24.5057ZM9.51762 26.4234C9.01671 26.1494 8.39058 25.5268 8.86644 24.6552C9.31725 23.8831 10.2189 23.9578 10.7699 24.182L9.49257 26.3985L9.51762 26.4234Z" fill="white"/>
<path d="M5.63548 30.1837L6.36179 31.1799C6.56216 31.4289 6.73747 31.678 6.93784 31.9021V31.927C6.5872 31.9768 6.3117 32.0266 6.01116 32.1013L4.80899 32.3753L4.4834 33.2719L7.26342 32.5496L9.01659 35.0152L9.36723 34.0688L8.59082 33.0228C8.39046 32.7489 8.1901 32.4998 7.98974 32.2508C8.31533 32.201 8.61587 32.1262 8.9665 32.0515L10.2438 31.7776L10.5694 30.881L7.6391 31.6282L5.98612 29.2871L5.63548 30.2086V30.1837Z" fill="white"/>
<path d="M5.00902 37.2574C4.40793 37.1328 3.90703 37.0332 3.45621 36.9336L3.30594 37.7056L4.10739 37.9049C3.45621 38.1539 3.0054 38.652 2.85513 39.4241C2.62972 40.5697 3.45621 41.6157 4.90884 41.8896C6.63696 42.2134 7.66382 41.3168 7.86418 40.1961C7.98941 39.5735 7.81409 38.9758 7.38832 38.6022L9.99303 39.0754L10.1433 38.2286L4.98398 37.2823L5.00902 37.2574ZM6.11101 38.3532C6.23624 38.3532 6.36146 38.4279 6.46165 38.4528C7.03769 38.7267 7.33823 39.3244 7.23805 39.9471C7.06273 40.8685 6.21119 41.2421 5.13425 41.0429C4.18253 40.8685 3.45621 40.221 3.63153 39.2995C3.73171 38.7018 4.25766 38.2286 4.95893 38.2037C5.08416 38.2037 5.20938 38.2037 5.33461 38.2037L6.1611 38.3532H6.11101Z" fill="white"/>
<path d="M0.0253906 45.3516L0.0253906 46.2232L7.08816 46.5221V45.6504L0.0253906 45.3516Z" fill="white"/>
<path d="M5.05909 54.6662C6.8373 54.4919 7.51352 53.1969 7.3883 52.0263C7.26307 50.7313 6.21117 49.8098 4.68341 49.9592C3.05547 50.1087 2.22897 51.2543 2.3542 52.5742C2.47942 53.944 3.58142 54.7908 5.05909 54.6413V54.6662ZM4.7335 50.8558C5.7854 50.7562 6.63694 51.2792 6.73712 52.126C6.81226 52.9478 6.08594 53.67 5.009 53.7697C4.1825 53.8444 3.10556 53.5455 3.00538 52.4995C2.90519 51.4784 3.83187 50.9305 4.7335 50.8309V50.8558Z" fill="white"/>
<path d="M4.95912 58.4757C4.40812 58.6251 3.93226 58.7247 3.48145 58.7994L3.68181 59.5466L4.60848 59.3473V59.3971C4.03244 59.7707 3.78199 60.3933 3.93226 60.9412C3.93226 61.0409 3.98235 61.0907 4.03244 61.1654L4.83389 60.9661C4.83389 60.9661 4.75875 60.7918 4.73371 60.6922C4.58344 60.0945 4.93407 59.5466 5.53516 59.2726C5.63534 59.2228 5.78561 59.173 5.91084 59.1232L8.41536 58.4757L8.18996 57.6289L4.95912 58.4508V58.4757Z" fill="white"/>
<path d="M7.78992 64.0548C8.89192 63.6314 9.64327 64.1295 9.96886 64.9514C10.2193 65.5242 10.2444 65.9227 10.2444 66.2713L10.8955 66.1717C10.8955 65.823 10.8454 65.2751 10.5699 64.5778C9.99391 63.208 8.74164 62.7598 7.41424 63.3077C6.0618 63.8556 5.33549 65.1008 5.86144 66.3958C6.46252 67.8403 7.91515 67.7158 8.74164 67.3671C8.91696 67.2924 9.04219 67.2177 9.11732 67.1928L7.81497 64.0548H7.78992ZM8.19065 66.6698C7.6647 66.8939 6.78811 66.9936 6.41243 66.097C6.0618 65.2751 6.68793 64.6027 7.21388 64.3039L8.19065 66.6698Z" fill="white"/>
<path d="M12.1978 75.0866C11.8221 75.4104 11.4965 75.6594 11.1709 75.8836L11.6718 76.4813L12.2979 76.0081C12.1477 76.5062 12.0976 77.1288 12.5985 77.7265C13.0242 78.2246 13.6504 78.3492 14.2264 78.1499C14.1262 78.4488 14.0761 78.7227 14.1012 78.9718C14.1012 79.3453 14.2264 79.6442 14.527 80.0178C14.9277 80.5159 15.8794 80.9642 17.1567 79.8933L19.3357 78.0752L18.7847 77.4277L16.6809 79.171C15.9545 79.7687 15.3284 79.8683 14.8526 79.3204C14.527 78.9469 14.5771 78.399 14.8025 78.0254C14.8776 77.9258 14.9778 77.8013 15.103 77.7016L17.4072 75.784L16.8562 75.1365L14.6271 76.9794C14.0261 77.4775 13.3999 77.5771 12.9491 77.0541C12.5985 76.6307 12.6736 76.0579 12.9491 75.6594C13.0242 75.5349 13.1244 75.4353 13.2246 75.3357L15.4787 73.4678L14.9277 72.8203L12.2228 75.0617L12.1978 75.0866Z" fill="white"/>
<path d="M19.1101 84.3267L21.7399 82.7826C22.0154 82.6083 22.366 82.3841 22.6164 82.2098C22.5163 82.4838 22.366 82.8324 22.2408 83.1811L21.1889 85.9953L21.9152 86.5681L23.0673 83.0566C23.6183 81.3631 23.8186 80.4416 23.6934 79.6695C23.5932 79.0967 23.3678 78.7232 23.2175 78.5488L22.5914 78.9971C22.7166 79.1963 22.8669 79.4703 22.917 79.819C22.9921 80.1178 22.9921 80.5661 22.8669 81.0393C22.8418 81.1389 22.8168 81.2136 22.7918 81.2385C22.7667 81.2883 22.6916 81.3132 22.5914 81.388L18.3838 83.729L19.1351 84.3267H19.1101Z" fill="white"/>
<path d="M29.6041 91.2001L31.1319 89.1828C31.4575 88.7345 31.7831 88.3361 32.0586 87.9127C32.0085 88.4108 31.9584 88.9338 31.9083 89.4817L31.7079 92.0469L32.3841 92.3208L34.0121 90.3783C34.3878 89.9051 34.7134 89.5066 35.0139 89.0832C34.9388 89.5564 34.8636 90.0794 34.7885 90.6771L34.488 93.1676L35.2894 93.4913L35.6901 88.4606L34.9388 88.1617L33.3609 90.0047C32.9852 90.4281 32.6847 90.8265 32.3591 91.2997C32.4593 90.7269 32.5094 90.2039 32.5344 89.656L32.6847 87.2403L31.9333 86.9414L28.7275 90.8265L29.554 91.1752L29.6041 91.2001Z" fill="white"/>
<path d="M43.7543 93.0182C44.1049 91.2748 43.028 90.2787 41.8759 90.0296C40.5986 89.7806 39.4215 90.5277 39.1209 92.022C38.7953 93.6159 39.6719 94.7366 40.9743 94.9856C42.3267 95.2596 43.4538 94.4627 43.7543 92.9933V93.0182ZM39.9975 92.2212C40.1979 91.1752 40.9492 90.5277 41.8008 90.6771C42.6273 90.8515 43.1031 91.7231 42.8777 92.794C42.7275 93.591 42.1013 94.5374 41.0995 94.3381C40.0727 94.1389 39.8222 93.1178 39.9975 92.2212Z" fill="white"/>
<path d="M47.2857 94.2142C47.2607 94.787 47.2356 95.2602 47.1855 95.7085H47.9619L48.0371 94.787H48.0872C48.2875 95.4345 48.7884 95.8828 49.3895 95.9077C49.4897 95.9077 49.5648 95.9077 49.64 95.9077L49.6901 95.0858C49.6901 95.0858 49.5148 95.0858 49.3895 95.0858C48.7634 95.0609 48.3376 94.5628 48.2625 93.9153C48.2625 93.7908 48.2374 93.6663 48.2625 93.4919L48.3877 90.9268L47.5111 90.877L47.3609 94.1893L47.2857 94.2142Z" fill="white"/>
<path d="M54.0232 93.4671C54.1734 93.6165 54.3738 93.8157 54.5241 93.9652L56.1019 95.4844L57.1538 95.3847L55.1001 93.5916L56.9535 90.5781L55.8765 90.6777L54.4239 93.1433L53.923 92.695L53.7477 90.9019L52.8711 90.9766L53.5223 98.0246L54.3989 97.9499L53.9981 93.5169L54.0232 93.4671Z" fill="white"/>
<path d="M66.0452 93.318L65.7196 90.8026C65.6444 90.2547 65.5693 89.7317 65.4691 89.2585C65.7697 89.6819 66.1203 90.0804 66.4709 90.5037L68.1239 92.4961L68.8002 92.2222L68.5998 89.7068C68.5497 89.1091 68.4996 88.5861 68.3994 88.088C68.6749 88.5114 69.0005 88.9347 69.3512 89.4079L70.904 91.4003L71.7054 91.0765L68.4495 87.1914L67.6982 87.4903L67.8735 89.906C67.9236 90.4788 67.9737 90.952 68.0738 91.5248C67.7232 91.0267 67.3976 90.6283 67.047 90.2049L65.4691 88.3619L64.7178 88.6608L65.1686 93.6666L65.9951 93.3429L66.0452 93.318Z" fill="white"/>
<path d="M77.415 84.8008C76.4382 83.3065 74.9606 83.3314 73.9838 83.954C72.8818 84.6762 72.5562 86.0211 73.3827 87.2912C74.2593 88.6361 75.6869 88.8602 76.8139 88.138C77.991 87.3909 78.2164 86.0211 77.415 84.8008ZM74.1591 86.843C73.5831 85.9464 73.6582 84.9502 74.3845 84.5019C75.0858 84.0536 76.0625 84.3525 76.6386 85.274C77.0894 85.9713 77.3148 87.0422 76.4382 87.615C75.5616 88.1878 74.66 87.615 74.1591 86.843Z" fill="white"/>
<path d="M80.8469 83.1316C81.2226 83.555 81.5482 83.9286 81.8237 84.2773L82.3997 83.7543L81.7986 83.032V83.0071C82.4248 83.3558 83.101 83.306 83.5518 82.9075C83.6269 82.8328 83.677 82.783 83.7271 82.7083L83.1761 82.0856C83.1761 82.0856 83.0509 82.2351 82.9758 82.3098C82.4999 82.7332 81.8738 82.6584 81.3478 82.26C81.2476 82.1853 81.1475 82.0856 81.0473 81.986L79.3191 80.0684L78.668 80.6412L80.897 83.1316H80.8469Z" fill="white"/>
<path d="M87.8594 81.562L88.4354 80.9145L83.1258 76.2324L82.5498 76.8799L87.8594 81.5869V81.562Z" fill="white"/>
<path d="M93.6949 73.8412L88.7861 70.6285C88.4354 70.3794 88.0097 70.1055 87.7592 69.9062L87.3334 70.5538L88.0097 71.0519C87.4086 70.9772 86.7324 71.2511 86.2816 71.8986C85.6304 72.8699 85.956 74.165 87.1832 74.9868C88.5356 75.8834 89.9131 75.5845 90.5643 74.6132C90.965 73.9906 90.965 73.3929 90.7647 72.9944L93.194 74.5883L93.6699 73.8661L93.6949 73.8412ZM89.6627 72.2473C89.6627 72.2473 89.863 72.3967 89.9382 72.4963C90.3389 72.9197 90.4641 73.5672 90.0884 74.1151C89.5875 74.8623 88.6108 74.8872 87.7091 74.2895C86.8826 73.7416 86.4819 72.8948 87.0079 72.1228C87.3335 71.6247 87.9596 71.4005 88.6108 71.6247C88.736 71.6745 88.8362 71.7243 88.9614 71.799L89.6627 72.2722V72.2473Z" fill="white"/>
<path d="M93.4942 63.9298C94.0452 64.129 94.6462 63.8302 94.8216 63.2823C95.0219 62.7344 94.7214 62.1367 94.1704 61.9623C93.6194 61.7631 93.0183 62.0619 92.8179 62.6098C92.6176 63.1577 92.8931 63.7555 93.4691 63.9298H93.4942Z" fill="white"/>
<path d="M100.883 50.233L95.047 49.71C94.6212 49.6602 94.1203 49.6104 93.7947 49.5605L93.7196 50.3326L94.5461 50.4571C93.97 50.6813 93.5192 51.2292 93.4441 52.0012C93.3439 53.1717 94.2455 54.143 95.7232 54.2675C97.3261 54.417 98.4031 53.5204 98.5032 52.3499C98.5784 51.6276 98.2528 51.0797 97.9021 50.8307L100.782 51.0797L100.857 50.2081L100.883 50.233ZM96.5748 50.7311C96.5748 50.7311 96.8252 50.756 96.9504 50.8058C97.5014 50.9801 97.9272 51.5031 97.8521 52.1506C97.7769 53.0472 96.9254 53.5204 95.8484 53.4208C94.8717 53.3461 94.0953 52.7982 94.1954 51.8518C94.2455 51.279 94.6964 50.756 95.3475 50.6564C95.4728 50.6564 95.598 50.6564 95.7232 50.6564L96.5497 50.7311H96.5748Z" fill="white"/>
<path d="M99.9059 44.7285C99.6054 44.7285 99.38 44.9776 99.405 45.3262C99.405 45.6251 99.6805 45.8492 99.981 45.8243C100.282 45.8243 100.507 45.5753 100.507 45.2515C100.507 44.9278 100.232 44.7285 99.931 44.7534L99.9059 44.7285ZM93.7448 46.0236L98.6036 45.7745L98.5535 44.9029L93.7197 45.1519L93.7698 46.0236H93.7448Z" fill="white"/>
<path d="M94.2462 41.5159C94.0208 41.2918 93.7704 40.8684 93.6952 40.445C93.595 39.8224 93.8455 39.4738 94.2462 39.399C94.672 39.3243 94.9224 39.5236 95.2731 40.1213C95.7239 40.9182 96.2749 41.242 96.8509 41.1424C97.6273 41.0179 98.1282 40.2707 97.9529 39.2496C97.8778 38.7764 97.6524 38.378 97.452 38.1289L96.8509 38.4527C97.0012 38.627 97.2266 38.9259 97.3017 39.3741C97.4019 39.8722 97.1515 40.2209 96.8008 40.2956C96.4001 40.3703 96.1747 40.1213 95.8241 39.5485C95.3732 38.7764 94.8723 38.4278 94.1711 38.5523C93.3446 38.7017 92.8687 39.4489 93.0691 40.5696C93.1693 41.0926 93.3696 41.5408 93.6451 41.8397L94.2713 41.5159H94.2462Z" fill="white"/>
<path d="M91.115 32.3019C91.0649 32.5509 91.0899 33.0988 91.2903 33.6966C91.7411 35.0663 92.9934 35.664 94.3959 35.1908C95.8235 34.7177 96.5248 33.4226 96.0238 31.9283C95.8485 31.4302 95.5981 31.0318 95.3977 30.8574L94.8217 31.2559C94.997 31.4053 95.2224 31.7042 95.3727 32.1525C95.7233 33.1985 95.1473 34.0203 94.1705 34.3441C93.0935 34.6927 92.217 34.2445 91.9164 33.323C91.7662 32.8498 91.7662 32.5011 91.7912 32.2272L91.115 32.3019Z" fill="white"/>
<path d="M89.8377 24.505C88.2599 25.3517 88.1347 26.7962 88.6857 27.8422C89.3118 28.9878 90.6392 29.4361 91.9916 28.7139C93.4192 27.9667 93.7698 26.5721 93.1437 25.4015C92.4925 24.1812 91.1651 23.8076 89.8377 24.505ZM91.5909 27.9169C90.6392 28.415 89.6624 28.2407 89.2617 27.4935C88.861 26.7464 89.2617 25.8249 90.2385 25.3268C90.9648 24.9533 92.0918 24.8287 92.5677 25.7253C93.0686 26.6468 92.4174 27.4935 91.5909 27.9169Z" fill="white"/>
<path d="M89.5118 19.8235L86.7818 20.7201C86.331 20.8695 85.9303 20.994 85.5546 21.1684C85.78 20.8446 86.0305 20.4959 86.2809 20.0975L87.8838 17.7066L87.3328 16.9844L84.6279 21.4174L85.1288 22.0898L90.0878 20.6205L89.5118 19.8733V19.8235Z" fill="white"/>
<path d="M82.6995 15.7884C81.873 16.6351 80.9714 16.4857 80.3202 15.8631C79.8694 15.4397 79.669 15.091 79.5188 14.7673L78.9678 15.1159C79.093 15.4397 79.3685 15.9129 79.9445 16.4359C81.0215 17.457 82.3489 17.3574 83.3507 16.2865C84.3525 15.2156 84.5278 13.796 83.501 12.8496C82.3489 11.7787 81.0966 12.5009 80.4705 13.1485C80.3453 13.273 80.2701 13.3975 80.22 13.4722L82.6995 15.7884ZM81.2469 13.5718C81.6226 13.1485 82.399 12.7002 83.1253 13.3726C83.7765 13.9703 83.501 14.842 83.1253 15.3401L81.2469 13.5718Z" fill="white"/>
<path d="M77.9911 10.385C78.3167 9.91183 78.6172 9.51336 78.8927 9.16469L78.2666 8.71641L77.6905 9.46355C77.8408 8.81602 77.6404 8.1685 77.1646 7.81984C77.0895 7.77003 77.0143 7.72022 76.9392 7.69531L76.4633 8.36774C76.4633 8.36774 76.6386 8.44245 76.7138 8.51717C77.2147 8.86583 77.3149 9.51336 77.0394 10.1111C76.9893 10.2107 76.9141 10.3352 76.839 10.4597L75.3613 12.5766L76.0876 13.0747L78.0161 10.3601L77.9911 10.385Z" fill="white"/>
<path d="M68.8748 4.88096C69.0251 4.40778 69.1753 4.0342 69.3507 3.66063L68.6243 3.41159L68.3238 4.13382C68.1986 3.61082 67.898 3.06292 67.1467 2.81387C66.5205 2.58973 65.9194 2.81387 65.5438 3.28706C65.4686 2.98821 65.3685 2.71426 65.2182 2.51502C65.0178 2.21616 64.7423 1.99202 64.3166 1.84259C63.7155 1.64335 62.6636 1.71807 62.1376 3.31197L61.2109 6.00168L62.0374 6.27563L62.914 3.68554C63.2146 2.81387 63.7155 2.39049 64.3917 2.61464C64.8675 2.76406 65.118 3.26216 65.118 3.71044C65.118 3.83497 65.118 4.0093 65.0429 4.15873L64.0661 6.97296L64.8926 7.24691L65.8443 4.50739C66.0948 3.78516 66.5957 3.36178 67.2218 3.58592C67.7478 3.76025 67.9732 4.30816 67.9732 4.75644C67.9732 4.90587 67.9732 5.03039 67.898 5.17982L66.9463 7.91934L67.7728 8.19329L68.9249 4.85606L68.8748 4.88096Z" fill="white"/>
<path d="M58.1801 0.572799L56.7525 3.26251C56.6023 3.56136 56.4269 3.93493 56.3017 4.20889C56.2266 3.91003 56.1765 3.53646 56.1014 3.16289L55.5253 0.224133L54.5986 0.0996094L55.4502 3.68589C55.8509 5.40431 56.1765 6.30088 56.7024 6.89859C57.0781 7.32197 57.4788 7.54612 57.7043 7.59592L58.0298 6.89859C57.8295 6.79897 57.554 6.62464 57.3286 6.37559C57.1282 6.15145 56.8527 5.77788 56.7275 5.30469C56.7024 5.20507 56.6774 5.13036 56.6774 5.08055C56.6774 5.03074 56.7024 4.95603 56.7776 4.85641L59.1569 0.697322L58.2052 0.572799H58.1801Z" fill="white"/>
<path d="M45.6075 0.148942L45.3571 2.66432C45.307 3.21222 45.2569 3.73522 45.2319 4.23331C45.0315 3.76012 44.7811 3.28693 44.5556 2.78884L43.4036 0.472703L42.6772 0.572322L42.3016 3.06279C42.2014 3.66051 42.1513 4.1835 42.1263 4.6816C41.9509 4.20841 41.7255 3.73522 41.5001 3.18732L40.4482 0.896083L39.5967 1.02061L41.8758 5.55326L42.6772 5.42874L43.0529 3.03789C43.1281 2.48998 43.2032 1.99189 43.2282 1.41908C43.4537 1.96699 43.6791 2.44017 43.9295 2.93827L45.0565 5.08007L45.858 4.95555L46.5593 -0.0253906L45.6576 0.124038L45.6075 0.148942Z" fill="white"/>
<path d="M32.534 5.90275C33.1601 7.57137 34.5877 7.87023 35.6897 7.47175C36.9169 7.02347 37.543 5.77823 37.0171 4.35866C36.4661 2.83948 35.1387 2.31648 33.8864 2.78967C32.584 3.26286 32.033 4.533 32.559 5.90275H32.534ZM36.1655 4.63262C36.5412 5.6288 36.2407 6.57518 35.4142 6.87404C34.6127 7.17289 33.7612 6.6499 33.3855 5.6288C33.11 4.85676 33.135 3.76095 34.1118 3.38738C35.0886 3.03871 35.8399 3.78586 36.1655 4.63262Z" fill="white"/>
<path d="M28.8529 6.72376C28.5774 6.22567 28.352 5.80229 28.1516 5.37891L27.4754 5.75248L27.9011 6.59924C27.3501 6.12605 26.699 6.02643 26.173 6.32528C26.0728 6.37509 26.0227 6.4249 25.9727 6.47471L26.3734 7.19695C26.3734 7.19695 26.5237 7.07243 26.6238 7.02262C27.1748 6.72376 27.7759 6.923 28.2017 7.446C28.2768 7.54562 28.352 7.64523 28.4271 7.79466L29.6794 10.061L30.4558 9.63761L28.8529 6.72376Z" fill="white"/>
<path d="M23.4678 10.8573C23.2424 10.7826 22.9919 10.7328 22.7665 10.683L20.6377 10.2098L19.7861 10.8324L22.491 11.3056V14.8421L23.3426 14.1946L23.2925 11.3554L23.9436 11.4799L25.0456 12.9244L25.7469 12.4014L21.4892 6.74805L20.7879 7.27105L23.4678 10.8573Z" fill="white"/>
<path d="M15.6787 17.956C15.2279 17.5824 14.5767 17.6571 14.201 18.1054C13.8253 18.5537 13.8754 19.2012 14.3262 19.5748C14.777 19.9484 15.4282 19.8986 15.8039 19.4254C16.1796 18.9771 16.1295 18.3296 15.6787 17.956Z" fill="white"/>
</g>
<g clip-path="url(#clip1_164_2933)">
<path d="M38.0666 52.0622L50.4415 64.373L62.8164 52.0622C62.9624 51.951 63.0828 51.8098 63.1694 51.648C63.2561 51.4862 63.307 51.3077 63.3187 51.1246C63.3304 50.9414 63.3026 50.7579 63.2372 50.5864C63.1718 50.415 63.0703 50.2596 62.9396 50.1307C62.8089 50.0019 62.652 49.9026 62.4797 49.8397C62.3073 49.7767 62.1234 49.7516 61.9404 49.7659C61.7575 49.7802 61.5797 49.8336 61.4192 49.9226C61.2587 50.0115 61.1192 50.134 61.0101 50.2815L51.7225 59.4923V34.9858C51.7225 34.6461 51.5875 34.3203 51.3473 34.08C51.107 33.8398 50.7812 33.7048 50.4415 33.7048C50.1017 33.7048 49.7759 33.8398 49.5356 34.08C49.2954 34.3203 49.1604 34.6461 49.1604 34.9858V59.4923L39.8728 50.2815C39.6316 50.042 39.3051 49.9081 38.9652 49.9093C38.6252 49.9105 38.2997 50.0467 38.0601 50.2879C37.8206 50.5292 37.6867 50.8557 37.6879 51.1956C37.6891 51.5356 37.8253 51.8611 38.0666 52.1006V52.0622Z" fill="white"/>
</g>
<defs>
<clipPath id="clip0_164_2933">
<rect width="98" height="100.882" fill="white" transform="matrix(0 1 1 0 0 0)"/>
</clipPath>
<clipPath id="clip1_164_2933">
<rect width="46.1176" height="46.1176" fill="white" transform="matrix(-1 0 0 -1 73.5 72.0586)"/>
</clipPath>
</defs>
</svg>
