<svg width="101" height="98" viewBox="0 0 101 98" fill="none" xmlns="http://www.w3.org/2000/svg">
<g clip-path="url(#clip0_119_1121)">
<path d="M89.5369 24.5062C88.5101 25.1039 88.46 26.0005 88.8857 26.7725C89.1863 27.3205 89.4868 27.5944 89.7623 27.8185L89.2865 28.2668C89.011 28.0676 88.6102 27.694 88.2346 27.0216C87.5083 25.7265 87.909 24.4813 89.1863 23.7591C90.4636 23.0368 91.8912 23.2361 92.5674 24.4564C93.3438 25.8262 92.342 26.8722 91.5656 27.2955C91.4153 27.3952 91.265 27.445 91.1899 27.4699L89.5119 24.5311L89.5369 24.5062ZM91.3652 26.4239C91.8661 26.1499 92.4923 25.5273 92.0164 24.6556C91.5656 23.8836 90.664 23.9583 90.113 24.1825L91.3903 26.399L91.3652 26.4239Z" fill="#1F266D"/>
<path d="M95.2474 30.1845L94.521 31.1807C94.3207 31.4298 94.1454 31.6788 93.945 31.903V31.9279C94.2956 31.9777 94.5711 32.0275 94.8717 32.1022L96.0739 32.3761L96.3994 33.2727L93.6194 32.5505L91.8663 35.016L91.5156 34.0697L92.292 33.0237C92.4924 32.7497 92.6927 32.5007 92.8931 32.2516C92.5675 32.2018 92.267 32.1271 91.9163 32.0524L90.639 31.7784L90.3134 30.8819L93.2437 31.629L94.8967 29.288L95.2474 30.2094V30.1845Z" fill="#1F266D"/>
<path d="M95.8733 37.2575C96.4744 37.133 96.9753 37.0333 97.4261 36.9337L97.5764 37.7058L96.775 37.905C97.4261 38.154 97.877 38.6521 98.0272 39.4242C98.2526 40.5698 97.4261 41.6158 95.9735 41.8898C94.2454 42.2135 93.2185 41.3169 93.0182 40.1962C92.8929 39.5736 93.0683 38.9759 93.494 38.6023L90.8893 39.0755L90.7391 38.2288L95.8984 37.2824L95.8733 37.2575ZM94.7713 38.3533C94.6461 38.3533 94.5209 38.428 94.4207 38.4529C93.8447 38.7269 93.5441 39.3246 93.6443 39.9472C93.8196 40.8687 94.6712 41.2422 95.7481 41.043C96.6998 40.8687 97.4261 40.2211 97.2508 39.2997C97.1506 38.7019 96.6247 38.2288 95.9234 38.2039C95.7982 38.2039 95.673 38.2039 95.5477 38.2039L94.7213 38.3533H94.7713Z" fill="#1F266D"/>
<path d="M100.857 45.3514V46.2231L93.7947 46.522V45.6503L100.857 45.3514Z" fill="#1F266D"/>
<path d="M95.8233 54.6659C94.0451 54.4915 93.3688 53.1965 93.4941 52.026C93.6193 50.7309 94.6712 49.8094 96.1989 49.9589C97.8269 50.1083 98.6534 51.2539 98.5282 52.5739C98.4029 53.9436 97.3009 54.7904 95.8233 54.641V54.6659ZM96.1489 50.8554C95.097 50.7558 94.2454 51.2788 94.1452 52.1256C94.0701 52.9474 94.7964 53.6697 95.8734 53.7693C96.6999 53.844 97.7768 53.5452 97.877 52.4992C97.9772 51.4781 97.0505 50.9302 96.1489 50.8305V50.8554Z" fill="#1F266D"/>
<path d="M95.9237 58.4763C96.4747 58.6257 96.9506 58.7253 97.4014 58.8L97.201 59.5472L96.2744 59.3479V59.3978C96.8504 59.7713 97.1009 60.3939 96.9506 60.9418C96.9506 61.0415 96.9005 61.0913 96.8504 61.166L96.049 60.9667C96.049 60.9667 96.1241 60.7924 96.1491 60.6928C96.2994 60.0951 95.9488 59.5472 95.3477 59.2732C95.2475 59.2234 95.0972 59.1736 94.972 59.1238L92.4675 58.4763L92.6929 57.6295L95.9237 58.4514V58.4763Z" fill="#1F266D"/>
<path d="M93.0934 64.0549C91.9914 63.6315 91.2401 64.1296 90.9145 64.9515C90.664 65.5243 90.639 65.9228 90.639 66.2714L89.9878 66.1718C89.9878 65.8232 90.0379 65.2753 90.3134 64.5779C90.8894 63.2082 92.1417 62.7599 93.4691 63.3078C94.8215 63.8557 95.5478 65.1009 95.0219 66.396C94.4208 67.8404 92.9682 67.7159 92.1417 67.3673C91.9664 67.2925 91.8411 67.2178 91.766 67.1929L93.0684 64.0549H93.0934ZM92.6927 66.6699C93.2186 66.8941 94.0952 66.9937 94.4709 66.0971C94.8215 65.2753 94.1954 64.6028 93.6694 64.304L92.6927 66.6699Z" fill="#1F266D"/>
<path d="M88.6856 75.0877C89.0613 75.4115 89.3868 75.6605 89.7124 75.8847L89.2115 76.4824L88.5854 76.0092C88.7357 76.5073 88.7858 77.1299 88.2849 77.7276C87.8591 78.2257 87.233 78.3503 86.6569 78.151C86.7571 78.4499 86.8072 78.7238 86.7821 78.9729C86.7821 79.3464 86.6569 79.6453 86.3564 80.0189C85.9556 80.517 85.0039 80.9653 83.7266 79.8944L81.5477 78.0763L82.0987 77.4288L84.2025 79.1721C84.9288 79.7698 85.5549 79.8694 86.0308 79.3215C86.3564 78.948 86.3063 78.4001 86.0809 78.0265C86.0057 77.9269 85.9056 77.8024 85.7803 77.7027L83.4762 75.7851L84.0272 75.1375L86.2562 76.9805C86.8573 77.4786 87.4834 77.5782 87.9342 77.0552C88.2849 76.6318 88.2097 76.059 87.9342 75.6605C87.8591 75.536 87.7589 75.4364 87.6587 75.3368L85.4046 73.4689L85.9556 72.8214L88.6605 75.0628L88.6856 75.0877Z" fill="#1F266D"/>
<path d="M81.7727 84.3273L79.143 82.7832C78.8675 82.6089 78.5169 82.3848 78.2664 82.2104C78.3666 82.4844 78.5169 82.833 78.6421 83.1817L79.694 85.9959L78.9677 86.5687L77.8156 83.0572C77.2646 81.3637 77.0642 80.4422 77.1895 79.6701C77.2896 79.0973 77.515 78.7238 77.6653 78.5494L78.2914 78.9977C78.1662 79.197 78.016 79.4709 77.9659 79.8196C77.8907 80.1184 77.8907 80.5667 78.016 81.0399C78.041 81.1395 78.066 81.2142 78.0911 81.2391C78.1161 81.289 78.1913 81.3139 78.2914 81.3886L82.4991 83.7296L81.7477 84.3273H81.7727Z" fill="#1F266D"/>
<path d="M71.2787 91.2011L69.751 89.1838C69.4254 88.7355 69.0998 88.337 68.8243 87.9137C68.8744 88.4118 68.9245 88.9348 68.9746 89.4827L69.1749 92.0478L68.4987 92.3218L66.8708 90.3792C66.4951 89.906 66.1695 89.5076 65.8689 89.0842C65.9441 89.5574 66.0192 90.0804 66.0943 90.6781L66.3949 93.1686L65.5934 93.4923L65.1927 88.4616L65.9441 88.1627L67.5219 90.0057C67.8976 90.429 68.1982 90.8275 68.5237 91.3007C68.4236 90.7279 68.3735 90.2049 68.3484 89.657L68.1982 87.2412L68.9495 86.9424L72.1553 90.8275L71.3288 91.1762L71.2787 91.2011Z" fill="#1F266D"/>
<path d="M57.1285 93.019C56.7779 91.2757 57.8548 90.2795 59.0069 90.0305C60.2842 89.7814 61.4614 90.5286 61.7619 92.0228C62.0875 93.6167 61.2109 94.7375 59.9086 94.9865C58.5561 95.2605 57.4291 94.4635 57.1285 92.9941V93.019ZM60.8853 92.2221C60.685 91.1761 59.9336 90.5286 59.0821 90.678C58.2556 90.8523 57.7797 91.724 58.0051 92.7949C58.1554 93.5918 58.7815 94.5382 59.7833 94.339C60.8102 94.1397 61.0606 93.1186 60.8853 92.2221Z" fill="#1F266D"/>
<path d="M53.5971 94.2144C53.6222 94.7872 53.6472 95.2604 53.6973 95.7087H52.9209L52.8458 94.7872H52.7957C52.5953 95.4348 52.0944 95.883 51.4933 95.9079C51.3931 95.9079 51.318 95.9079 51.2429 95.9079L51.1928 95.0861C51.1928 95.0861 51.3681 95.0861 51.4933 95.0861C52.1194 95.0612 52.5452 94.5631 52.6203 93.9156C52.6203 93.791 52.6454 93.6665 52.6203 93.4922L52.4951 90.927L53.3717 90.8772L53.522 94.1895L53.5971 94.2144Z" fill="#1F266D"/>
<path d="M46.8597 93.4673C46.7094 93.6167 46.509 93.816 46.3588 93.9654L44.7809 95.4846L43.729 95.385L45.7827 93.5918L43.9294 90.5784L45.0063 90.678L46.4589 93.1436L46.9598 92.6953L47.1352 90.9021L48.0117 90.9768L47.3606 98.0249L46.484 97.9502L46.8847 93.5171L46.8597 93.4673Z" fill="#1F266D"/>
<path d="M34.8382 93.318L35.1637 90.8026C35.2389 90.2547 35.314 89.7317 35.4142 89.2585C35.1137 89.6819 34.763 90.0804 34.4124 90.5037L32.7594 92.4961L32.0832 92.2222L32.2835 89.7068C32.3336 89.1091 32.3837 88.5861 32.4839 88.088C32.2084 88.5114 31.8828 88.9347 31.5322 89.4079L29.9794 91.4003L29.1779 91.0765L32.4338 87.1914L33.1852 87.4903L33.0099 89.906C32.9598 90.4788 32.9097 90.952 32.8095 91.5248C33.1601 91.0267 33.4857 90.6283 33.8363 90.2049L35.4142 88.3619L36.1656 88.6608L35.7147 93.6666L34.8882 93.3429L34.8382 93.318Z" fill="#1F266D"/>
<path d="M23.4674 84.8005C24.4441 83.3062 25.9218 83.3311 26.8986 83.9538C28.0006 84.676 28.3261 86.0209 27.4997 87.291C26.6231 88.6358 25.1955 88.86 24.0685 88.1378C22.8913 87.3906 22.6659 86.0209 23.4674 84.8005ZM26.7232 86.8427C27.2993 85.9461 27.2242 84.95 26.4978 84.5017C25.7966 84.0534 24.8198 84.3522 24.2438 85.2737C23.793 85.971 23.5675 87.0419 24.4441 87.6148C25.3207 88.1876 26.2223 87.6148 26.7232 86.8427Z" fill="#1F266D"/>
<path d="M20.0364 83.1319C19.6607 83.5553 19.3352 83.9288 19.0597 84.2775L18.4836 83.7545L19.0847 83.0323V83.0074C18.4586 83.356 17.7823 83.3062 17.3315 82.9077C17.2564 82.833 17.2063 82.7832 17.1562 82.7085L17.7072 82.0859C17.7072 82.0859 17.8324 82.2353 17.9076 82.31C18.3834 82.7334 19.0096 82.6587 19.5355 82.2602C19.6357 82.1855 19.7359 82.0859 19.8361 81.9863L21.5642 80.0686L22.2154 80.6414L19.9863 83.1319H20.0364Z" fill="#1F266D"/>
<path d="M13.0234 81.563L12.4474 80.9155L17.757 76.2334L18.333 76.8809L13.0234 81.5879V81.563Z" fill="#1F266D"/>
<path d="M7.18789 73.8424L12.0968 70.6297C12.4474 70.3807 12.8732 70.1067 13.1236 69.9075L13.5494 70.555L12.8732 71.0531C13.4743 70.9784 14.1505 71.2523 14.6013 71.8998C15.2525 72.8711 14.9269 74.1662 13.6997 74.988C12.3472 75.8846 10.9697 75.5857 10.3186 74.6145C9.91783 73.9918 9.91782 73.3941 10.1182 72.9957L7.6888 74.5896L7.21294 73.8673L7.18789 73.8424ZM11.2202 72.2485C11.2202 72.2485 11.0198 72.3979 10.9447 72.4976C10.544 72.9209 10.4187 73.5685 10.7944 74.1164C11.2953 74.8635 12.2721 74.8884 13.1737 74.2907C14.0002 73.7428 14.4009 72.896 13.875 72.124C13.5494 71.6259 12.9233 71.4018 12.2721 71.6259C12.1469 71.6757 12.0467 71.7255 11.9214 71.8002L11.2202 72.2734V72.2485Z" fill="#1F266D"/>
<path d="M7.38868 63.9304C6.83768 64.1296 6.2366 63.8308 6.06128 63.2829C5.86092 62.735 6.16147 62.1373 6.71246 61.9629C7.26346 61.7637 7.86454 62.0626 8.0649 62.6105C8.26526 63.1584 7.98977 63.7561 7.41373 63.9304H7.38868Z" fill="#1F266D"/>
<path d="M0.000312328 50.2329L5.83586 49.7099C6.26163 49.66 6.76253 49.6102 7.08812 49.5604L7.16326 50.3325L6.33676 50.457C6.9128 50.6811 7.36362 51.229 7.43875 52.0011C7.53893 53.1716 6.6373 54.1429 5.15963 54.2674C3.55674 54.4168 2.47979 53.5203 2.37961 52.3498C2.30447 51.6275 2.63006 51.0796 2.9807 50.8306L0.100486 51.0796L0.0253534 50.2079L0.000312328 50.2329ZM4.30809 50.7309C4.30809 50.7309 4.05765 50.7559 3.93242 50.8057C3.38142 50.98 2.95565 51.503 3.03079 52.1505C3.10592 53.0471 3.95746 53.5203 5.03441 53.4207C6.01117 53.3459 6.78758 52.798 6.6874 51.8517C6.63731 51.2788 6.18649 50.7559 5.53532 50.6562C5.41009 50.6562 5.28486 50.6562 5.15963 50.6562L4.33314 50.7309H4.30809Z" fill="#1F266D"/>
<path d="M0.976932 44.7289C1.27747 44.7289 1.50288 44.9779 1.47784 45.3266C1.47784 45.6255 1.20234 45.8496 0.901799 45.8247C0.601255 45.8247 0.375841 45.5756 0.375841 45.2519C0.375841 44.9281 0.651338 44.7289 0.951881 44.7538L0.976932 44.7289ZM7.13807 46.0239L2.27929 45.7749L2.32938 44.9032L7.16312 45.1523L7.11302 46.0239H7.13807Z" fill="#1F266D"/>
<path d="M6.63712 41.5161C6.86253 41.2919 7.11298 40.8685 7.18812 40.4452C7.2883 39.8225 7.03784 39.4739 6.63712 39.3992C6.21135 39.3245 5.9609 39.5237 5.61026 40.1214C5.15945 40.9184 4.60846 41.2421 4.03242 41.1425C3.25601 41.018 2.7551 40.2708 2.93042 39.2497C3.00555 38.7766 3.23096 38.3781 3.43133 38.129L4.03242 38.4528C3.88215 38.6271 3.65674 38.926 3.5816 39.3743C3.48142 39.8724 3.73186 40.221 4.0825 40.2957C4.48322 40.3705 4.70864 40.1214 5.05927 39.5486C5.51009 38.7765 6.01099 38.4279 6.71226 38.5524C7.53875 38.7018 8.01461 39.449 7.81425 40.5697C7.71407 41.0927 7.51371 41.541 7.23821 41.8398L6.61208 41.5161H6.63712Z" fill="#1F266D"/>
<path d="M9.76786 32.3014C9.81795 32.5505 9.79291 33.0984 9.59255 33.6961C9.14173 35.0658 7.88948 35.6635 6.48694 35.1904C5.05936 34.7172 4.35809 33.4221 4.85899 31.9278C5.03431 31.4297 5.28476 31.0313 5.48513 30.8569L6.06117 31.2554C5.88585 31.4048 5.66044 31.7037 5.51017 32.152C5.15953 33.198 5.73558 34.0198 6.71235 34.3436C7.78929 34.6923 8.66587 34.244 8.96642 33.3225C9.11669 32.8493 9.11669 32.5006 9.09164 32.2267L9.76786 32.3014Z" fill="#1F266D"/>
<path d="M11.0451 24.5063C12.623 25.3531 12.7482 26.7975 12.1972 27.8435C11.5711 28.9892 10.2437 29.4374 8.89121 28.7152C7.46363 27.9681 7.113 26.5734 7.73913 25.4029C8.3903 24.1825 9.7177 23.809 11.0451 24.5063ZM9.29193 27.9183C10.2437 28.4163 11.2204 28.242 11.6211 27.4949C12.0219 26.7477 11.6211 25.8263 10.6444 25.3282C9.91807 24.9546 8.79103 24.8301 8.31517 25.7266C7.81426 26.6481 8.46544 27.4949 9.29193 27.9183Z" fill="#1F266D"/>
<path d="M11.3706 19.8241L14.1005 20.7207C14.5513 20.8701 14.9521 20.9946 15.3278 21.169C15.1023 20.8452 14.8519 20.4965 14.6014 20.0981L12.9985 17.7072L13.5495 16.985L16.2544 21.418L15.7535 22.0904L10.7946 20.6211L11.3706 19.8739V19.8241Z" fill="#1F266D"/>
<path d="M18.1828 15.7896C19.0093 16.6363 19.911 16.4869 20.5621 15.8643C21.013 15.4409 21.2133 15.0922 21.3636 14.7685L21.9146 15.1172C21.7894 15.4409 21.5139 15.9141 20.9378 16.4371C19.8609 17.4582 18.5335 17.3586 17.5317 16.2877C16.5299 15.2168 16.3545 13.7972 17.3814 12.8508C18.5335 11.7799 19.7857 12.5022 20.4119 13.1497C20.5371 13.2742 20.6122 13.3987 20.6623 13.4734L18.1828 15.7896ZM19.6355 13.5731C19.2598 13.1497 18.4834 12.7014 17.7571 13.3738C17.1059 13.9715 17.3814 14.8432 17.7571 15.3413L19.6355 13.5731Z" fill="#1F266D"/>
<path d="M22.8913 10.3853C22.5657 9.91208 22.2651 9.5136 21.9896 9.16493L22.6158 8.71665L23.1918 9.46379C23.0415 8.81627 23.2419 8.16875 23.7178 7.82008C23.7929 7.77027 23.868 7.72046 23.9432 7.69556L24.419 8.36798C24.419 8.36798 24.2437 8.4427 24.1686 8.51741C23.6677 8.86608 23.5675 9.5136 23.843 10.1113C23.8931 10.2109 23.9682 10.3355 24.0434 10.46L25.521 12.5769L24.7947 13.075L22.8662 10.3604L22.8913 10.3853Z" fill="#1F266D"/>
<path d="M32.0081 4.88133C31.8578 4.40814 31.7075 4.03457 31.5322 3.661L32.2585 3.41195L32.559 4.13419C32.6843 3.61119 32.9848 3.06329 33.7362 2.81424C34.3623 2.5901 34.9634 2.81424 35.3391 3.28743C35.4142 2.98857 35.5144 2.71462 35.6647 2.51538C35.865 2.21653 36.1405 1.99239 36.5663 1.84296C37.1674 1.64372 38.2193 1.71843 38.7452 3.31233L39.6719 6.00204L38.8454 6.27599L37.9688 3.6859C37.6683 2.81424 37.1674 2.39086 36.4912 2.615C36.0153 2.76443 35.7648 3.26252 35.7648 3.71081C35.7648 3.83533 35.7648 4.00967 35.84 4.15909L36.8167 6.97333L35.9903 7.24728L35.0385 4.50776C34.7881 3.78552 34.2872 3.36214 33.661 3.58629C33.1351 3.76062 32.9097 4.30852 32.9097 4.75681C32.9097 4.90624 32.9097 5.03076 32.9848 5.18019L33.9365 7.9197L33.11 8.19366L31.958 4.85643L32.0081 4.88133Z" fill="#1F266D"/>
<path d="M42.7022 0.572799L44.1298 3.26251C44.2801 3.56136 44.4554 3.93493 44.5806 4.20889C44.6558 3.91003 44.7059 3.53646 44.781 3.16289L45.357 0.224133L46.2837 0.0996094L45.4322 3.68589C45.0315 5.40431 44.7059 6.30088 44.1799 6.89859C43.8042 7.32197 43.4035 7.54612 43.1781 7.59592L42.8525 6.89859C43.0529 6.79897 43.3284 6.62464 43.5538 6.37559C43.7541 6.15145 44.0296 5.77788 44.1549 5.30469C44.1799 5.20507 44.205 5.13036 44.205 5.08055C44.205 5.03074 44.1799 4.95603 44.1048 4.85641L41.7255 0.697322L42.6772 0.572799H42.7022Z" fill="#1F266D"/>
<path d="M55.2748 0.149431L55.5253 2.66481C55.5754 3.21271 55.6254 3.73571 55.6505 4.2338C55.8509 3.76061 56.1013 3.28742 56.3267 2.78933L57.4788 0.473192L58.2051 0.572811L58.5808 3.06328C58.681 3.66099 58.7311 4.18399 58.7561 4.68209C58.9314 4.2089 59.1568 3.73571 59.3822 3.1878L60.4341 0.896572L61.2857 1.0211L59.0066 5.55375L58.2051 5.42923L57.8294 3.03838C57.7543 2.49047 57.6792 1.99238 57.6541 1.41957C57.4287 1.96747 57.2033 2.44066 56.9528 2.93876L55.8258 5.08056L55.0244 4.95604L54.3231 -0.0249023L55.2247 0.124526L55.2748 0.149431Z" fill="#1F266D"/>
<path d="M68.3489 5.90239C67.7228 7.571 66.2952 7.86986 65.1932 7.47139C63.966 7.0231 63.3398 5.77787 63.8658 4.3583C64.4168 2.83911 65.7442 2.31611 66.9964 2.7893C68.2988 3.26249 68.8498 4.53263 68.3238 5.90239H68.3489ZM64.7173 4.63225C64.3416 5.62844 64.6422 6.57482 65.4687 6.87367C66.2701 7.17253 67.1217 6.64953 67.4974 5.62844C67.7729 4.85639 67.7478 3.76058 66.771 3.38701C65.7943 3.03835 65.0429 3.78549 64.7173 4.63225Z" fill="#1F266D"/>
<path d="M72.0305 6.72425C72.306 6.22615 72.5314 5.80277 72.7317 5.37939L73.408 5.75296L72.9822 6.59973C73.5332 6.12654 74.1844 6.02692 74.7103 6.32577C74.8105 6.37558 74.8606 6.42539 74.9107 6.4752L74.51 7.19744C74.51 7.19744 74.3597 7.07291 74.2595 7.0231C73.7085 6.72425 73.1074 6.92349 72.6816 7.44648C72.6065 7.5461 72.5314 7.64572 72.4562 7.79515L71.204 10.0615L70.4276 9.6381L72.0305 6.72425Z" fill="#1F266D"/>
<path d="M77.4151 10.8584C77.6405 10.7837 77.8909 10.7339 78.1163 10.6841L80.2452 10.2109L81.0967 10.8335L78.3918 11.3067V14.8432L77.5403 14.1957L77.5904 11.3565L76.9392 11.481L75.8372 12.9255L75.1359 12.4025L79.3936 6.74915L80.0949 7.27214L77.4151 10.8584Z" fill="#1F266D"/>
<path d="M85.2042 17.9564C85.655 17.5828 86.3062 17.6575 86.6818 18.1058C87.0575 18.5541 87.0074 19.2016 86.5566 19.5752C86.1058 19.9487 85.4546 19.8989 85.0789 19.4257C84.7033 18.9774 84.7534 18.3299 85.2042 17.9564Z" fill="#1F266D"/>
</g>
<g clip-path="url(#clip1_119_1121)">
<path d="M62.8163 52.0617L50.4414 64.3726L38.0665 52.0617C37.9205 51.9505 37.8001 51.8093 37.7134 51.6475C37.6267 51.4857 37.5758 51.3072 37.5642 51.1241C37.5525 50.9409 37.5803 50.7574 37.6457 50.586C37.7111 50.4145 37.8126 50.2591 37.9433 50.1302C38.0739 50.0014 38.2308 49.9021 38.4032 49.8392C38.5756 49.7762 38.7595 49.7511 38.9424 49.7654C39.1254 49.7797 39.3031 49.8331 39.4636 49.9221C39.6242 50.0111 39.7637 50.1335 39.8728 50.2811L49.1603 59.4918V34.9854C49.1603 34.6456 49.2953 34.3198 49.5356 34.0795C49.7758 33.8393 50.1016 33.7043 50.4414 33.7043C50.7811 33.7043 51.107 33.8393 51.3472 34.0795C51.5875 34.3198 51.7224 34.6456 51.7224 34.9854V59.4918L61.01 50.2811C61.2512 50.0415 61.5777 49.9076 61.9177 49.9088C62.2576 49.91 62.5832 50.0462 62.8227 50.2875C63.0622 50.5287 63.1961 50.8552 63.1949 51.1951C63.1937 51.5351 63.0575 51.8606 62.8163 52.1001V52.0617Z" fill="#1F266D"/>
</g>
<defs>
<clipPath id="clip0_119_1121">
<rect width="98" height="100.882" fill="white" transform="matrix(0 1 -1 0 100.882 0)"/>
</clipPath>
<clipPath id="clip1_119_1121">
<rect width="46.1176" height="46.1176" fill="white" transform="matrix(1 0 0 -1 27.3824 72.0588)"/>
</clipPath>
</defs>
</svg>
