<svg width="29" height="29" viewBox="0 0 29 29" fill="none" xmlns="http://www.w3.org/2000/svg">
<rect x="3.625" y="2.71875" width="22.6562" height="24.4688" fill="#FBF5F5"/>
<path d="M0 2.07713C0 0.929813 0.953375 0 2.12969 0H26.8703C28.0466 0 29 0.929813 29 2.07713V26.9229C29 28.0702 28.0466 29 26.8703 29H2.12969C0.953375 29 0 28.0702 0 26.9229V2.07713ZM8.95919 24.2766V11.1813H4.60738V24.2766H8.95919ZM6.78419 9.39237C8.30125 9.39237 9.24556 8.38825 9.24556 7.13037C9.21837 5.84531 8.30306 4.86838 6.81319 4.86838C5.32331 4.86838 4.35 5.84713 4.35 7.13037C4.35 8.38825 5.29431 9.39237 6.75519 9.39237H6.78419ZM15.6799 24.2766V16.9632C15.6799 16.5717 15.7089 16.1802 15.8249 15.9011C16.1385 15.1199 16.8544 14.3097 18.0579 14.3097C19.633 14.3097 20.2619 15.5096 20.2619 17.2713V24.2766H24.6138V16.7656C24.6138 12.7419 22.4678 10.8714 19.604 10.8714C17.2949 10.8714 16.2599 12.1401 15.6799 13.0337V13.079H15.6509L15.6799 13.0337V11.1813H11.3299C11.3843 12.4102 11.3299 24.2766 11.3299 24.2766H15.6799Z" fill="#1F266D"/>
<rect x="3.625" y="5.4375" width="22.6562" height="19.9375" fill="#FBF5F5"/>
<path d="M21.75 13.8308C21.9731 14.1654 22.1962 14.5 22.3077 15.0577H18.7385C18.7385 14.9462 18.7385 14.7231 18.85 14.5C18.9615 14.2769 18.9615 14.1654 19.1846 13.9423C19.2962 13.7192 19.5192 13.6077 19.7423 13.4962C19.9654 13.3846 20.3 13.2731 20.6346 13.2731C21.0808 13.3846 21.5269 13.4962 21.75 13.8308ZM11.4885 13.05C11.7115 12.8269 11.9346 12.4923 11.9346 12.0462C11.9346 11.8231 11.9346 11.6 11.8231 11.3769C11.7115 11.2654 11.6 11.0423 11.4885 11.0423C11.3769 10.9308 11.1538 10.9308 10.9308 10.8192H8.03077V13.3846H10.4846C10.8192 13.3846 11.1538 13.2731 11.4885 13.05ZM10.5962 14.9462H8.03077V17.9577H10.5962C10.8192 17.9577 11.0423 17.9577 11.2654 17.8462C11.4885 17.8462 11.7115 17.7346 11.8231 17.6231C11.9346 17.5115 12.1577 17.4 12.2692 17.1769C12.3808 16.9538 12.3808 16.7308 12.3808 16.5077C12.3808 15.95 12.2692 15.5038 11.9346 15.2808C11.6 15.0577 11.1538 14.9462 10.5962 14.9462ZM29 5.46538V23.5346C29 26.5462 26.5462 29 23.5346 29H5.46538C2.45385 29 0 26.5462 0 23.5346V5.46538C0 2.45385 2.45385 0 5.46538 0H23.5346C26.5462 0 29 2.45385 29 5.46538ZM18.2923 10.7077H22.7538V9.59231H18.2923V10.7077ZM14.7231 16.7308C14.7231 16.0615 14.6115 15.5038 14.2769 14.9462C13.9423 14.5 13.4962 14.1654 12.8269 13.9423C13.2731 13.7192 13.7192 13.3846 13.9423 13.05C14.1654 12.7154 14.2769 12.2692 14.2769 11.7115C14.2769 10.875 14.1654 10.8192 14.0538 10.3731C13.8308 10.0385 13.6077 9.70385 13.3846 9.59231C13.05 9.36923 12.7154 9.25769 12.2692 9.14615C11.7115 8.92308 11.2654 8.92308 10.7077 8.92308H5.57692V19.8538H10.9308C11.3769 19.8538 11.9346 19.7423 12.3808 19.6308C12.8269 19.5192 13.2731 19.2962 13.6077 19.0731C13.9423 18.85 14.2769 18.5154 14.5 18.0692C14.6115 17.7346 14.7231 17.2885 14.7231 16.7308ZM18.7385 16.3962H24.4269C24.4269 15.7269 24.4269 15.1692 24.3154 14.6115C24.2038 14.0538 23.9808 13.4962 23.6462 13.1615C23.3115 12.7154 22.8654 12.3808 22.4192 12.1577C21.8615 11.9346 21.3038 11.7115 20.6346 11.7115C20.0769 11.7115 19.5192 11.8231 18.9615 12.0462C18.5154 12.2692 18.0692 12.6038 17.6231 12.9385C17.2885 13.2731 16.9538 13.7192 16.8423 14.2769C16.6192 14.8346 16.5077 15.3923 16.5077 15.95C16.5077 16.7865 16.6192 17.1769 16.8423 17.6231C17.0654 18.1808 17.2885 18.6269 17.6231 18.9615C17.9577 19.2962 18.4038 19.6308 18.85 19.8538C19.4077 20.0769 19.9654 20.1885 20.5231 20.1885C21.4154 20.1885 22.1962 19.9654 22.8654 19.5192C23.5346 19.0731 23.9808 18.4038 24.3154 17.5115H22.4192C22.3077 17.7346 22.1962 17.9577 21.8615 18.1808C21.5269 18.4038 21.1923 18.5154 20.7462 18.5154C20.1885 18.5154 19.6308 18.4038 19.2962 18.0692C18.9615 17.6231 18.7385 17.0654 18.7385 16.3962Z" fill="#1F266D"/>
</svg>
