<svg width="87" height="112" viewBox="0 0 87 112" fill="none" xmlns="http://www.w3.org/2000/svg">
<g clip-path="url(#clip0_119_1292)">
<path d="M58.5773 74.0188C58.5773 78.7982 57.4744 83.2099 55.146 87.254C54.1656 89.0922 52.9401 90.8078 51.4695 92.401C49.1411 94.9745 46.3225 96.9352 43.0138 98.2833C39.4599 99.7538 35.2932 100.489 30.5139 100.489C29.2884 100.489 28.0629 100.367 26.96 100.244C25.7345 100.121 24.6316 99.8764 23.5287 99.5087C22.3032 99.1411 21.2003 98.7734 20.0973 98.1607C16.666 97.0578 13.9699 96.445 12.1317 96.445C10.9063 96.445 9.80333 96.9352 8.7004 97.6705C7.47492 98.4058 6.1269 99.3862 4.65632 100.489L-0.000488281 72.4257L3.43085 71.2002C6.1269 80.7589 9.92588 87.3765 14.7052 91.0529C17.4013 93.1362 20.3424 94.6068 23.5287 95.3421C24.6316 95.8323 25.7345 95.9548 26.96 96.0774C28.1855 96.3225 29.6561 96.445 31.0041 96.445C35.5383 96.445 39.0922 95.5872 42.0334 93.749C43.3814 93.0137 44.6069 92.0333 45.7098 90.8078C46.8127 89.4598 47.7931 87.8667 48.5284 86.0285C49.999 82.8422 50.6117 78.7982 50.6117 74.1414C50.6117 70.2198 48.7735 66.5434 45.0971 62.867C44.4843 62.2542 43.749 61.6415 43.0138 61.0288C40.5628 58.9454 37.3766 56.8621 33.5776 54.9014C31.8619 54.0435 30.0237 53.0632 28.1855 52.2053C27.8178 51.9602 27.3276 51.8377 26.96 51.5926C25.7345 51.1024 24.6316 50.6122 23.5287 49.9995C15.6856 46.4456 10.171 43.0142 6.98473 40.1956C3.0632 36.7643 1.22499 31.3722 1.22499 24.1419C1.22499 18.3822 3.5534 12.8675 8.33276 7.7205C13.1121 2.5735 19.9748 0 28.7982 0C32.5972 0 36.2736 0.612738 39.705 1.71567C43.1363 3.18624 45.5873 4.04407 47.1804 4.04407C48.2833 4.04407 49.3862 3.67643 50.2441 3.18624C51.2244 2.5735 52.0823 1.47057 52.9401 0L55.146 23.5292L52.3274 24.6321C48.896 16.6665 45.3422 11.1518 41.6657 8.33324C37.9893 5.3921 33.3325 4.04407 27.5727 4.04407C20.3424 4.04407 15.318 6.00484 12.6219 10.0489C10.0484 14.093 8.7004 18.3822 8.7004 22.9164C8.7004 27.2056 9.92587 30.5144 12.3768 33.0879C14.0925 34.8035 17.7689 37.0094 23.5287 39.828C24.6316 40.4407 25.7345 40.9309 26.96 41.5437C28.1855 42.1564 29.5335 42.7691 31.0041 43.5044C31.4943 43.7495 32.107 43.9946 32.7197 44.2397C35.4158 45.3426 37.8667 46.4456 40.0726 47.6711C45.5873 50.4897 49.7539 53.5533 52.5725 56.9847C54.2881 59.068 55.6362 61.3964 56.6165 63.8473C57.842 66.6659 58.4548 69.6071 58.4548 72.9159C58.5773 73.2835 58.5773 73.6512 58.5773 74.0188Z" fill="#3265CB"/>
<path d="M58.4548 72.9159C58.4548 69.6071 57.842 66.6659 56.6165 63.8473C55.6362 61.3964 54.2881 59.068 52.5725 56.9847C49.7539 53.5533 45.5873 50.4897 40.0726 47.6711C37.8667 46.4456 35.4158 45.3426 32.7197 44.2397C32.107 43.9946 31.4943 43.7495 31.0041 43.5044C29.5335 42.7691 28.1855 42.1564 26.96 41.5437C25.7345 40.9309 24.6316 40.4407 23.5287 39.828C17.7689 37.0094 14.0925 34.8035 12.3768 33.0879C9.92587 30.5144 8.7004 27.2056 8.7004 22.9164C8.7004 18.3822 10.0484 14.093 12.6219 10.0489C15.318 6.00484 20.3424 4.04407 27.5727 4.04407C33.3325 4.04407 37.9893 5.3921 41.6657 8.33324C45.3422 11.1518 48.896 16.6665 52.3274 24.6321L55.146 23.5292L52.9401 0C52.0823 1.47057 51.2244 2.5735 50.2441 3.18624C49.3862 3.67643 48.2833 4.04407 47.1804 4.04407C45.5873 4.04407 43.1363 3.18624 39.705 1.71567C36.2736 0.612738 32.5972 0 28.7982 0C19.9748 0 13.1121 2.5735 8.33276 7.7205C3.5534 12.8675 1.22499 18.3822 1.22499 24.1419C1.22499 31.3722 3.0632 36.7643 6.98473 40.1956C10.171 43.0142 15.6856 46.4456 23.5287 49.9995C24.6316 50.6122 25.7345 51.1024 26.96 51.5926C27.3276 51.8377 27.8178 51.9602 28.1855 52.2053C30.0237 53.0632 31.8619 54.0435 33.5776 54.9014C37.3766 56.8621 40.5628 58.9454 43.0138 61.0288C43.749 61.6415 44.4843 62.2542 45.0971 62.867C48.7735 66.5434 50.6117 70.2198 50.6117 74.1414C50.6117 78.7982 49.999 82.8422 48.5284 86.0285C47.7931 87.8667 46.8127 89.4598 45.7098 90.8078C44.6069 92.0333 43.3814 93.0137 42.0334 93.749C39.0922 95.5872 35.5383 96.445 31.0041 96.445C29.6561 96.445 28.1855 96.445 26.96 96.0774C25.7345 95.9548 24.6316 95.8323 23.5287 95.3421C20.3424 94.6068 17.4013 93.1362 14.7052 91.0529C9.92588 87.3765 6.1269 80.7589 3.43085 71.2002L-0.000488281 72.4257L4.65632 100.489C6.1269 99.3862 7.47492 98.4058 8.7004 97.6705C9.80333 96.9352 10.9063 96.445 12.1317 96.445C13.9699 96.445 16.666 97.0578 20.0973 98.1607C21.2003 98.7734 22.3032 99.1411 23.5287 99.5087C24.6316 99.8764 25.7345 100.121 26.96 100.244C28.0629 100.244 29.2884 100.489 30.5139 100.489C35.2932 100.489 39.4599 99.7538 43.0138 98.2833C46.3225 96.9352 49.1411 94.9745 51.4695 92.401C52.9401 90.8078 54.1656 89.0922 55.146 87.254C57.4744 83.2099 58.5773 78.7982 58.5773 74.0188C58.5773 73.6512 58.5773 73.2835 58.4548 72.9159Z" fill="#3265CB"/>
<path d="M43.9946 65.3177C43.9946 65.3177 43.6269 64.8275 43.3819 64.5824C41.176 62.4991 38.1123 60.2932 34.3133 58.0873L41.5436 91.2978C42.4015 90.685 43.1368 90.0723 43.872 89.2145C45.5877 87.1311 46.8132 84.4351 47.4259 81.1263L43.9946 65.3177ZM53.3082 94.1164C50.6122 97.0575 47.3034 99.2634 43.5044 100.734L45.9554 111.763H49.3867L53.6759 93.7487L53.3082 94.1164ZM80.7589 18.1368C81.6167 17.4015 82.8422 17.0339 84.4353 17.0339H86.7637V13.6025H68.3816L57.5974 59.9256C58.7003 61.8863 59.5582 64.0922 60.0483 66.4206L68.8718 28.6759H70.0973V103.798C70.0973 105.268 69.7296 106.494 68.8718 107.229C68.1365 107.964 66.7885 108.332 64.9503 108.332H62.0091V111.763H86.7637V108.332H84.4353C82.8422 108.332 81.6167 107.964 80.7589 107.229C79.7785 106.371 79.2883 105.268 79.2883 103.798V21.5681C79.2883 20.0976 79.7785 18.8721 80.7589 18.1368ZM32.7202 13.6025H16.0537V17.0339H18.3821C20.3429 17.0339 21.5684 17.4015 22.4262 18.1368C23.1615 18.8721 23.5291 20.0976 23.5291 21.5681V37.1317C24.5095 37.6219 25.735 38.2346 26.9605 38.8474V30.269H28.1859L30.3918 40.563C31.4947 40.9307 32.5977 41.5434 33.8231 42.0336C35.7839 42.8914 37.7447 43.6267 39.4603 44.4846L32.7202 13.6025ZM43.9946 65.3177C43.9946 65.3177 43.6269 64.8275 43.3819 64.5824C41.176 62.4991 38.1123 60.2932 34.3133 58.0873L41.5436 91.2978C42.4015 90.685 43.1368 90.0723 43.872 89.2145C45.5877 87.1311 46.8132 84.4351 47.4259 81.1263L43.9946 65.3177ZM43.9946 65.3177C43.9946 65.3177 43.6269 64.8275 43.3819 64.5824C41.176 62.4991 38.1123 60.2932 34.3133 58.0873L41.5436 91.2978C42.4015 90.685 43.1368 90.0723 43.872 89.2145C45.5877 87.1311 46.8132 84.4351 47.4259 81.1263L43.9946 65.3177ZM32.1075 108.332C30.6369 108.332 29.4114 107.964 28.431 107.229C27.4506 106.371 26.9605 105.268 26.9605 103.798V102.817C25.8575 102.572 24.6321 102.327 23.5291 102.082V103.798C23.5291 105.268 23.1615 106.371 22.4262 107.229C21.5684 107.964 20.3429 108.332 18.3821 108.332H16.6665V111.763H33.8231V108.332H32.1075ZM23.5291 52.8178V92.8909C24.6321 93.2585 25.735 93.5036 26.9605 93.7487V54.4109C25.735 53.9207 24.6321 53.308 23.5291 52.8178ZM43.9946 65.3177C43.9946 65.3177 43.6269 64.8275 43.3819 64.5824C41.176 62.4991 38.1123 60.2932 34.3133 58.0873L41.5436 91.2978C42.4015 90.685 43.1368 90.0723 43.872 89.2145C45.5877 87.1311 46.8132 84.4351 47.4259 81.1263L43.9946 65.3177ZM43.9946 65.3177C43.9946 65.3177 43.6269 64.8275 43.3819 64.5824C41.176 62.4991 38.1123 60.2932 34.3133 58.0873L41.5436 91.2978C42.4015 90.685 43.1368 90.0723 43.872 89.2145C45.5877 87.1311 46.8132 84.4351 47.4259 81.1263L43.9946 65.3177ZM43.9946 65.3177C43.9946 65.3177 43.6269 64.8275 43.3819 64.5824C41.176 62.4991 38.1123 60.2932 34.3133 58.0873L41.5436 91.2978C42.4015 90.685 43.1368 90.0723 43.872 89.2145C45.5877 87.1311 46.8132 84.4351 47.4259 81.1263L43.9946 65.3177Z" fill="#101967"/>
</g>
<defs>
<clipPath id="clip0_119_1292">
<rect width="86.7638" height="111.764" fill="white"/>
</clipPath>
</defs>
</svg>
