<svg width="24" height="20" viewBox="0 0 24 20" fill="none" xmlns="http://www.w3.org/2000/svg">
<path d="M14.3659 0.295419L24 9.95073L14.3659 19.606C14.2789 19.72 14.1684 19.8139 14.0418 19.8815C13.9152 19.9491 13.7755 19.9889 13.6322 19.998C13.4888 20.0071 13.3452 19.9854 13.211 19.9344C13.0769 19.8833 12.9552 19.8042 12.8544 19.7022C12.7536 19.6002 12.6759 19.4778 12.6267 19.3433C12.5774 19.2088 12.5577 19.0654 12.5689 18.9226C12.5801 18.7798 12.6219 18.6412 12.6915 18.5159C12.7611 18.3907 12.8569 18.2818 12.9724 18.1967L20.1805 10.9502L1.00251 10.9502C0.736625 10.9502 0.481635 10.8449 0.293628 10.6575C0.105622 10.47 -3.06514e-07 10.2158 -3.06514e-07 9.95073C-3.06514e-07 9.68564 0.105622 9.43141 0.293628 9.24396C0.481635 9.05652 0.736625 8.95121 1.00251 8.95121L20.1805 8.95121L12.9724 1.70473C12.785 1.51652 12.6802 1.26178 12.6811 0.996542C12.6821 0.731307 12.7887 0.477307 12.9774 0.29042C13.1662 0.103533 13.4217 -0.000931785 13.6878 5.43567e-06C13.9538 0.000942656 14.2085 0.107207 14.396 0.295419H14.3659Z" fill="#2D39B8"/>
</svg>
