<svg width="20" height="17" viewBox="0 0 20 17" fill="none" xmlns="http://www.w3.org/2000/svg">
<path d="M11.9716 0.251106L20 8.45812L11.9716 16.6651C11.8991 16.762 11.807 16.8418 11.7015 16.8993C11.596 16.9568 11.4796 16.9905 11.3601 16.9983C11.2407 17.006 11.121 16.9876 11.0092 16.9442C10.8974 16.9008 10.796 16.8335 10.712 16.7469C10.628 16.6602 10.5633 16.5562 10.5222 16.4418C10.4812 16.3275 10.4647 16.2056 10.4741 16.0842C10.4834 15.9629 10.5182 15.845 10.5763 15.7385C10.6343 15.6321 10.7141 15.5396 10.8104 15.4672L16.817 9.3077H0.835423C0.613855 9.3077 0.401363 9.21819 0.24469 9.05887C0.0880184 8.89954 0 8.68344 0 8.45812C0 8.23279 0.0880184 8.0167 0.24469 7.85737C0.401363 7.69804 0.613855 7.60853 0.835423 7.60853L16.817 7.60853L10.8104 1.44902C10.6542 1.28904 10.5668 1.07251 10.5676 0.847061C10.5684 0.621611 10.6572 0.405712 10.8145 0.246857C10.9718 0.0880032 11.1848 -0.00079155 11.4065 5.72205e-06C11.6282 0.000801086 11.8405 0.0911255 11.9967 0.251106H11.9716Z" fill="#2D39B8"/>
</svg>
