<svg width="20" height="28" viewBox="0 0 20 28" fill="none" xmlns="http://www.w3.org/2000/svg">
<path d="M9.5515 12.9628C8.64678 12.9628 7.77911 12.6034 7.13938 11.9636C6.49965 11.3239 6.14025 10.4562 6.14025 9.5515C6.14025 8.64678 6.49965 7.77912 7.13938 7.13938C7.77911 6.49965 8.64678 6.14025 9.5515 6.14025C10.4562 6.14025 11.3239 6.49965 11.9636 7.13938C12.6033 7.77912 12.9627 8.64678 12.9627 9.5515C12.9627 9.99947 12.8745 10.4431 12.7031 10.8569C12.5317 11.2708 12.2804 11.6469 11.9636 11.9636C11.6469 12.2804 11.2708 12.5317 10.8569 12.7031C10.4431 12.8745 9.99947 12.9628 9.5515 12.9628ZM9.5515 0C7.01828 0 4.58882 1.00632 2.79757 2.79757C1.00632 4.58882 0 7.01828 0 9.5515C0 16.7151 9.5515 27.29 9.5515 27.29C9.5515 27.29 19.103 16.7151 19.103 9.5515C19.103 7.01828 18.0967 4.58882 16.3054 2.79757C14.5142 1.00632 12.0847 0 9.5515 0Z" fill="#1F266D"/>
</svg>
