<svg width="64" height="82" viewBox="0 0 64 82" fill="none" xmlns="http://www.w3.org/2000/svg">
<g clip-path="url(#clip0_119_1215)">
<path d="M42.8536 54.1504C42.8536 57.6469 42.0467 60.8744 40.3433 63.8329C39.6261 65.1777 38.7296 66.4328 37.6538 67.5983C35.9503 69.481 33.8883 70.9155 31.4677 71.9017C28.8678 72.9775 25.8196 73.5154 22.3231 73.5154C21.4266 73.5154 20.53 73.4258 19.7232 73.3361C18.8266 73.2465 18.0198 73.0672 17.2129 72.7982C16.3805 72.5485 15.6253 72.2988 14.8757 71.9055C14.7599 71.8447 14.6396 71.7917 14.5149 71.7521C12.0939 70.983 10.1863 70.5569 8.87515 70.5569C7.97862 70.5569 7.17175 70.9155 6.36487 71.4534C6.2762 71.5066 6.18665 71.5616 6.09622 71.6182C4.82469 72.4144 3.11293 71.7473 2.86733 70.2673L0.190805 54.1377C0.0800641 53.4703 0.462917 52.8194 1.09999 52.5919C1.86258 52.3195 2.69473 52.7514 2.93559 53.5245C4.87456 59.7482 7.50603 64.1107 10.7579 66.6121C12.6774 68.0954 14.7668 69.1542 17.026 69.7056C17.1501 69.7359 17.2712 69.7773 17.3899 69.8245C18.1382 70.1217 18.8922 70.2048 19.7232 70.2879C20.6197 70.4672 21.6955 70.5569 22.6817 70.5569C25.9989 70.5569 28.5988 69.9293 30.7505 68.5845C31.7367 68.0466 32.6332 67.3294 33.4401 66.4328C34.2469 65.4467 34.9642 64.2812 35.5021 62.9364C36.5779 60.6054 37.0262 57.6469 37.0262 54.24C37.0262 51.3711 35.6814 48.6816 32.9918 45.992C32.5435 45.5437 32.0056 45.0954 31.4677 44.6472C29.6746 43.1231 27.3437 41.599 24.5644 40.1645C23.352 39.5583 22.0559 38.8685 20.757 38.2565C20.6657 38.2135 20.5784 38.1623 20.4893 38.1148C20.3038 38.0159 20.0934 37.942 19.9038 37.8472C19.78 37.7852 19.6582 37.7181 19.53 37.666C18.7099 37.3329 17.9614 36.9942 17.2129 36.5784C11.4751 33.9785 7.44071 31.4682 5.10973 29.4062C2.24084 26.8959 0.896041 22.9512 0.896041 17.6616C0.896041 13.4479 2.59945 9.41356 6.09591 5.64814C9.59238 1.88271 14.6129 0 21.068 0C23.8472 0 26.5368 0.448265 29.0471 1.25514C31.5574 2.33098 33.3504 2.95855 34.5159 2.95855C35.3228 2.95855 36.1297 2.68959 36.7572 2.33098C37.5733 1.82093 38.9274 2.11042 39.0173 3.06856L40.2528 16.2478C40.3064 16.8195 39.9749 17.3575 39.4403 17.5667C38.794 17.8196 38.0646 17.5136 37.7791 16.881C35.4247 11.6647 32.9922 8.02123 30.4815 6.0964C27.7919 3.94473 24.3851 2.95855 20.1714 2.95855C14.8819 2.95855 11.2061 4.39299 9.23377 7.35154C7.35105 10.3101 6.36487 13.4479 6.36487 16.7651C6.36487 19.903 7.2614 22.3236 9.05446 24.2063C10.3096 25.4614 12.9992 27.0752 17.2129 29.1372C18.0198 29.5855 18.8266 29.9441 19.7232 30.3924C20.6197 30.8406 21.6059 31.2889 22.6817 31.8268C23.0403 32.0061 23.4886 32.1854 23.9369 32.3647C25.9092 33.1716 27.7023 33.9785 29.316 34.875C33.3504 36.937 36.3986 39.1783 38.4606 41.6886C39.7158 43.2127 40.702 44.9161 41.4192 46.7092C42.2754 48.6785 42.7228 50.7297 42.7613 53.0188C42.7649 53.2337 42.8072 53.4466 42.8335 53.66C42.8536 53.8234 42.8536 53.9869 42.8536 54.1504Z" fill="#3265CB"/>
<path d="M32.2318 47.9982C32.2013 47.8576 32.1413 47.7251 32.0519 47.6124C31.959 47.4953 31.8349 47.3446 31.7372 47.247C30.5173 46.0948 28.9388 44.8915 27.0404 43.6756C26.3083 43.2067 25.4006 43.8625 25.5855 44.712L30.0695 65.3079C30.2223 66.0098 31.0498 66.3301 31.5661 65.8306C31.7447 65.6578 31.9203 65.472 32.0958 65.2672C33.3167 63.7848 34.1982 61.8783 34.658 59.5477C34.6837 59.4175 34.6813 59.2833 34.6531 59.1536L32.2318 47.9982ZM38.9991 68.8533C37.2172 70.7972 35.0695 72.3021 32.622 73.3679C32.1688 73.5652 31.9061 74.0512 32.0134 74.5338L33.4459 80.9803C33.5476 81.4378 33.9534 81.7634 34.4221 81.7634H35.3404C35.8034 81.7634 36.2059 81.4455 36.3132 80.995L39.18 68.9544C39.2051 68.8488 39.0759 68.7766 38.9991 68.8533ZM59.0814 13.2685C59.709 12.7306 60.6055 12.4616 61.771 12.4616H62.4744C63.0267 12.4616 63.4744 12.0139 63.4744 11.4616V10.9514C63.4744 10.3991 63.0267 9.95135 62.4744 9.95135H50.8204C50.3554 9.95135 49.9518 10.2718 49.8464 10.7246L42.2251 43.4618C42.1684 43.7052 42.206 43.9603 42.3235 44.1809C42.3559 44.2419 42.3881 44.3032 42.4199 44.3648C42.9108 45.3152 44.7114 45.2494 44.9549 44.2078L50.2948 21.3648C50.3477 21.1386 50.5493 20.9787 50.7816 20.9787C51.0577 20.9787 51.2816 21.2025 51.2816 21.4786V75.9359C51.2816 77.0118 51.0126 77.9083 50.3851 78.4462C49.8471 78.9841 48.861 79.2531 47.5162 79.2531H46.3645C45.8122 79.2531 45.3645 79.7008 45.3645 80.2531V80.7634C45.3645 81.3157 45.8122 81.7634 46.3645 81.7634H62.4744C63.0267 81.7634 63.4744 81.3157 63.4744 80.7634V80.2531C63.4744 79.7008 63.0267 79.2531 62.4744 79.2531H61.771C60.6055 79.2531 59.709 78.9841 59.0814 78.4462C58.3642 77.8186 58.0056 77.0118 58.0056 75.9359V15.7788C58.0056 14.703 58.3642 13.8064 59.0814 13.2685ZM24.1091 10.7381C24.0089 10.2788 23.6023 9.95135 23.1321 9.95135H12.7446C12.1923 9.95135 11.7446 10.3991 11.7446 10.9514V11.4616C11.7446 12.0139 12.1923 12.4616 12.7446 12.4616H13.448C14.8825 12.4616 15.779 12.7306 16.4066 13.2685C16.9445 13.8064 17.2135 14.703 17.2135 15.7788V26.5467C17.2135 26.9255 17.4274 27.2717 17.7662 27.4411C17.931 27.5235 18.1016 27.6088 18.2765 27.6962C18.9414 28.0287 19.7237 27.5452 19.7237 26.8018V22.6399C19.7237 22.3661 19.9457 22.1442 20.2195 22.1442C20.4533 22.1442 20.6553 22.3075 20.7042 22.536L22.1143 29.1165C22.1885 29.4626 22.4414 29.741 22.7685 29.8761C23.401 30.1372 24.0454 30.4713 24.7443 30.7508C25.4922 31.0781 26.2402 31.3809 26.9627 31.6848C27.7373 32.0106 28.6017 31.3222 28.4225 30.5012L24.1091 10.7381ZM32.2318 47.9982C32.2013 47.8576 32.1413 47.7251 32.0519 47.6124C31.959 47.4953 31.8349 47.3446 31.7372 47.247C30.5173 46.0948 28.9388 44.8915 27.0404 43.6756C26.3083 43.2067 25.4006 43.8625 25.5855 44.712L30.0695 65.3079C30.2223 66.0098 31.0498 66.3301 31.5661 65.8306C31.7447 65.6578 31.9203 65.472 32.0958 65.2672C33.3167 63.7848 34.1982 61.8783 34.658 59.5477C34.6837 59.4175 34.6813 59.2833 34.6531 59.1536L32.2318 47.9982ZM32.2318 47.9982C32.2013 47.8576 32.1413 47.7251 32.0519 47.6124C31.959 47.4953 31.8349 47.3446 31.7372 47.247C30.5173 46.0948 28.9388 44.8915 27.0404 43.6756C26.3083 43.2067 25.4006 43.8625 25.5855 44.712L30.0695 65.3079C30.2223 66.0098 31.0498 66.3301 31.5661 65.8306C31.7447 65.6578 31.9203 65.472 32.0958 65.2672C33.3167 63.7848 34.1982 61.8783 34.658 59.5477C34.6837 59.4175 34.6813 59.2833 34.6531 59.1536L32.2318 47.9982ZM23.4892 79.2531C22.4133 79.2531 21.5168 78.9841 20.7996 78.4462C20.0824 77.8186 19.7237 77.0118 19.7237 75.9359C19.7237 75.5169 19.4327 75.154 19.0228 75.0668C18.8273 75.0252 18.6298 74.9837 18.4324 74.9421C17.8063 74.8103 17.2135 75.2962 17.2135 75.9359C17.2135 76.9783 16.961 77.7682 16.4559 78.3872C16.4236 78.4269 16.3873 78.4632 16.3475 78.4954C15.7229 79.0005 14.838 79.2531 13.448 79.2531H13.1929C12.6406 79.2531 12.1929 79.7008 12.1929 80.2531V80.7634C12.1929 81.3157 12.6406 81.7634 13.1929 81.7634H23.7443C24.2966 81.7634 24.7443 81.3157 24.7443 80.7634V80.2531C24.7443 79.7008 24.2966 79.2531 23.7443 79.2531H23.4892ZM18.6017 39.3038C17.9498 38.9897 17.2135 39.4554 17.2135 40.1791V67.2361C17.2135 67.6665 17.4882 68.0515 17.903 68.1663C18.1103 68.2237 18.3193 68.2769 18.5314 68.3274C19.1452 68.4736 19.7237 67.9956 19.7237 67.3646V40.4828C19.7237 40.0739 19.4738 39.7081 19.1016 39.5387C18.9326 39.4618 18.7662 39.383 18.6017 39.3038ZM32.2318 47.9982C32.2013 47.8576 32.1413 47.7251 32.0519 47.6124C31.959 47.4953 31.8349 47.3446 31.7372 47.247C30.5173 46.0948 28.9388 44.8915 27.0404 43.6756C26.3083 43.2067 25.4006 43.8625 25.5855 44.712L30.0695 65.3079C30.2223 66.0098 31.0498 66.3301 31.5661 65.8306C31.7447 65.6578 31.9203 65.472 32.0958 65.2672C33.3167 63.7848 34.1982 61.8783 34.658 59.5477C34.6837 59.4175 34.6813 59.2833 34.6531 59.1536L32.2318 47.9982ZM32.2318 47.9982C32.2013 47.8576 32.1413 47.7251 32.0519 47.6124C31.959 47.4953 31.8349 47.3446 31.7372 47.247C30.5173 46.0948 28.9388 44.8915 27.0404 43.6756C26.3083 43.2067 25.4006 43.8625 25.5855 44.712L30.0695 65.3079C30.2223 66.0098 31.0498 66.3301 31.5661 65.8306C31.7447 65.6578 31.9203 65.472 32.0958 65.2672C33.3167 63.7848 34.1982 61.8783 34.658 59.5477C34.6837 59.4175 34.6813 59.2833 34.6531 59.1536L32.2318 47.9982ZM32.2318 47.9982C32.2013 47.8576 32.1413 47.7251 32.0519 47.6124C31.959 47.4953 31.8349 47.3446 31.7372 47.247C30.5173 46.0948 28.9388 44.8915 27.0404 43.6756C26.3083 43.2067 25.4006 43.8625 25.5855 44.712L30.0695 65.3079C30.2223 66.0098 31.0498 66.3301 31.5661 65.8306C31.7447 65.6578 31.9203 65.472 32.0958 65.2672C33.3167 63.7848 34.1982 61.8783 34.658 59.5477C34.6837 59.4175 34.6813 59.2833 34.6531 59.1536L32.2318 47.9982Z" fill="#101967"/>
</g>
<defs>
<clipPath id="clip0_119_1215">
<rect width="63.4743" height="81.7635" fill="white"/>
</clipPath>
</defs>
</svg>
