<svg width="24" height="20" viewBox="0 0 24 20" fill="none" xmlns="http://www.w3.org/2000/svg">
<path d="M24 4.24219V15.6002C24.0001 16.5184 23.6492 17.402 23.0193 18.0701C22.3893 18.7382 21.5279 19.1403 20.6112 19.1942L20.4 19.2002H3.6C2.68175 19.2002 1.79818 18.8494 1.13009 18.2194C0.461992 17.5895 0.059871 16.7281 0.00600014 15.8114L0 15.6002V4.24219L11.334 11.7986L11.4732 11.8778C11.6372 11.9579 11.8174 11.9996 12 11.9996C12.1826 11.9996 12.3628 11.9579 12.5268 11.8778L12.666 11.7986L24 4.24219Z" fill="#1F266D"/>
<path d="M20.4002 0C21.6962 0 22.8326 0.684 23.4662 1.7124L12.0002 9.3564L0.53418 1.7124C0.83513 1.22379 1.24853 0.8142 1.73991 0.517787C2.23128 0.221374 2.7864 0.0467247 3.35898 0.00839996L3.60018 0H20.4002Z" fill="#1F266D"/>
</svg>
