<svg width="198" height="60" viewBox="0 0 198 60" fill="none" xmlns="http://www.w3.org/2000/svg">
<mask id="path-1-outside-1_164_2936" maskUnits="userSpaceOnUse" x="64" y="8" width="70" height="46" fill="black">
<rect fill="white" x="64" y="8" width="70" height="46"/>
<path d="M85.8764 49.8C80.2264 49.8 76.0764 48.15 73.2264 45.2C70.0764 42.05 68.5264 37.45 68.5264 32.25C68.5264 26.55 70.3264 21.1 73.9264 17.55C76.7764 14.65 80.6764 12.95 85.8764 12.95C91.1264 12.95 94.9264 14.55 97.6264 17.25C101.276 20.9 102.876 26.4 102.876 32.2C102.876 37.55 101.326 42.2 98.1764 45.4C95.4764 48.2 91.4264 49.8 85.8764 49.8ZM86.3764 40.45C88.1764 40.45 89.8764 39.85 90.9264 38.8C91.9764 37.7 92.5264 36.2 92.5264 34.3C92.5264 31.15 91.0264 26.15 88.8264 23.95C87.8264 22.9 86.6264 22.35 85.0764 22.35C83.3764 22.35 81.8764 22.95 80.9264 23.95C79.7264 25.1 79.1264 26.9 79.1264 29.1C79.1264 32.3 80.3764 36.95 82.4764 39C83.4764 39.95 84.7264 40.45 86.3764 40.45ZM120.39 49.4C112.64 49.4 110.79 48.85 110.79 45.55C110.79 43.1 111.34 42 113.59 40.85C115.59 39.8 116.04 39 116.04 36V26.4C116.04 24.7 115.64 24.15 114.29 24.15C111.29 24.15 109.79 23.45 109.79 20.5C109.79 19.35 110.64 18.3 112.64 17C116.04 14.9 118.09 13.1 122.09 13.1C126.19 13.1 127.49 14.95 127.49 17.65C127.49 21.45 126.34 22.75 126.34 31.85C126.34 38.7 125.94 39.4 127.54 40.55C128.94 41.55 129.79 41.95 129.79 45.2C129.79 48.85 128.04 49.4 120.39 49.4Z"/>
</mask>
<path d="M73.2264 45.2L76.1031 42.4207L76.0792 42.396L76.0548 42.3716L73.2264 45.2ZM73.9264 17.55L76.7349 20.3981L76.7573 20.3761L76.7793 20.3537L73.9264 17.55ZM97.6264 17.25L100.455 14.4216V14.4216L97.6264 17.25ZM98.1764 45.4L95.3258 42.5939L95.3113 42.6086L95.297 42.6235L98.1764 45.4ZM90.9264 38.8L93.7548 41.6284L93.7877 41.5955L93.8198 41.5619L90.9264 38.8ZM88.8264 23.95L85.9298 26.7086L85.9635 26.7439L85.9979 26.7784L88.8264 23.95ZM80.9264 23.95L83.694 26.8379L83.7617 26.773L83.8264 26.705L80.9264 23.95ZM82.4764 39L79.6822 41.8623L79.7017 41.8813L79.7214 41.9L82.4764 39ZM85.8764 49.8V45.8C81.0357 45.8 78.0274 44.4125 76.1031 42.4207L73.2264 45.2L70.3496 47.9792C74.1254 51.8875 79.4171 53.8 85.8764 53.8V49.8ZM73.2264 45.2L76.0548 42.3716C73.8487 40.1655 72.5264 36.6988 72.5264 32.25H68.5264H64.5264C64.5264 38.2012 66.304 43.9345 70.3979 48.0284L73.2264 45.2ZM68.5264 32.25H72.5264C72.5264 27.2948 74.1015 22.995 76.7349 20.3981L73.9264 17.55L71.1178 14.7019C66.5512 19.205 64.5264 25.8052 64.5264 32.25H68.5264ZM73.9264 17.55L76.7793 20.3537C78.8031 18.2944 81.6386 16.95 85.8764 16.95V12.95V8.95C79.7141 8.95 74.7497 11.0056 71.0735 14.7463L73.9264 17.55ZM85.8764 12.95V16.95C90.2453 16.95 92.9663 18.2468 94.7979 20.0784L97.6264 17.25L100.455 14.4216C96.8864 10.8532 92.0074 8.95 85.8764 8.95V12.95ZM97.6264 17.25L94.7979 20.0784C97.4382 22.7187 98.8764 27.0265 98.8764 32.2H102.876H106.876C106.876 25.7735 105.115 19.0813 100.455 14.4216L97.6264 17.25ZM102.876 32.2H98.8764C98.8764 36.8184 97.5425 40.342 95.3258 42.5939L98.1764 45.4L101.027 48.2061C105.11 44.058 106.876 38.2816 106.876 32.2H102.876ZM98.1764 45.4L95.297 42.6235C93.5404 44.4452 90.6474 45.8 85.8764 45.8V49.8V53.8C92.2053 53.8 97.4124 51.9548 101.056 48.1765L98.1764 45.4ZM86.3764 40.45V44.45C88.9497 44.45 91.7732 43.61 93.7548 41.6284L90.9264 38.8L88.0979 35.9716C87.9795 36.09 87.403 36.45 86.3764 36.45V40.45ZM90.9264 38.8L93.8198 41.5619C95.72 39.5712 96.5264 37.0064 96.5264 34.3H92.5264H88.5264C88.5264 35.3936 88.2327 35.8288 88.0329 36.0381L90.9264 38.8ZM92.5264 34.3H96.5264C96.5264 32.1889 96.0439 29.7112 95.2899 27.4853C94.557 25.3218 93.3854 22.8522 91.6548 21.1216L88.8264 23.95L85.9979 26.7784C86.4673 27.2478 87.1458 28.3782 87.7129 30.0522C88.2588 31.6637 88.5264 33.2611 88.5264 34.3H92.5264ZM88.8264 23.95L91.7229 21.1914C89.9875 19.3692 87.7492 18.35 85.0764 18.35V22.35V26.35C85.3644 26.35 85.5015 26.3979 85.5641 26.4251C85.6285 26.4531 85.748 26.5177 85.9298 26.7086L88.8264 23.95ZM85.0764 22.35V18.35C82.4863 18.35 79.8628 19.2619 78.0264 21.195L80.9264 23.95L83.8264 26.705C83.89 26.6381 84.2665 26.35 85.0764 26.35V22.35ZM80.9264 23.95L78.1587 21.062C75.8998 23.2269 75.1264 26.2541 75.1264 29.1H79.1264H83.1264C83.1264 27.5459 83.5529 26.9731 83.694 26.8379L80.9264 23.95ZM79.1264 29.1H75.1264C75.1264 31.1556 75.5165 33.5252 76.1999 35.687C76.8574 37.7666 77.9467 40.1681 79.6822 41.8623L82.4764 39L85.2705 36.1377C84.9061 35.7819 84.3204 34.8334 83.8278 33.2755C83.3613 31.7998 83.1264 30.2444 83.1264 29.1H79.1264ZM82.4764 39L79.7214 41.9C81.5377 43.6255 83.8062 44.45 86.3764 44.45V40.45V36.45C85.6465 36.45 85.415 36.2745 85.2314 36.1L82.4764 39ZM113.59 40.85L115.411 44.4117L115.43 44.4018L115.45 44.3916L113.59 40.85ZM112.64 17L110.538 13.5968L110.499 13.6211L110.46 13.6462L112.64 17ZM127.54 40.55L125.206 43.7981L125.215 43.8049L127.54 40.55ZM120.39 49.4V45.4C118.477 45.4 117.041 45.3651 115.946 45.2758C114.812 45.1832 114.302 45.0492 114.119 44.9787C114.038 44.9477 114.404 45.0869 114.674 45.5598C114.877 45.9157 114.79 46.0705 114.79 45.55H110.79H106.79C106.79 46.6795 106.935 48.1405 107.727 49.5277C108.586 51.0318 109.899 51.9273 111.249 52.4463C112.497 52.9258 113.903 53.1356 115.295 53.2492C116.727 53.3661 118.429 53.4 120.39 53.4V49.4ZM110.79 45.55H114.79C114.79 44.5362 114.926 44.5124 114.81 44.7131C114.67 44.9555 114.581 44.8358 115.411 44.4117L113.59 40.85L111.77 37.2883C110.35 38.0142 108.86 39.0195 107.883 40.7119C106.929 42.3626 106.79 44.1138 106.79 45.55H110.79ZM113.59 40.85L115.45 44.3916C116.637 43.7682 118.179 42.8243 119.124 40.9828C119.968 39.3394 120.04 37.5124 120.04 36H116.04H112.04C112.04 36.6755 112.013 37.0707 111.979 37.3092C111.948 37.5299 111.927 37.4847 112.007 37.3297C112.102 37.1441 112.222 37.0265 112.256 36.9982C112.259 36.9956 112.228 37.022 112.139 37.078C112.049 37.1346 111.92 37.2094 111.731 37.3084L113.59 40.85ZM116.04 36H120.04V26.4H116.04H112.04V36H116.04ZM116.04 26.4H120.04C120.04 25.5273 120.006 23.7141 118.844 22.2014C117.419 20.3452 115.358 20.15 114.29 20.15V24.15V28.15C114.396 28.15 114.186 28.1664 113.833 28.0454C113.405 27.8981 112.896 27.5907 112.499 27.0736C112.144 26.6116 112.053 26.2067 112.036 26.1218C112.02 26.0443 112.04 26.1014 112.04 26.4H116.04ZM114.29 24.15V20.15C113.99 20.15 113.743 20.1411 113.538 20.1256C113.333 20.1101 113.192 20.0893 113.101 20.0712C112.906 20.0324 113.031 20.0243 113.263 20.1928C113.384 20.2804 113.505 20.3949 113.608 20.5311C113.71 20.6655 113.768 20.7848 113.798 20.8607C113.849 20.9908 113.79 20.927 113.79 20.5H109.79H105.79C105.79 22.6028 106.345 25.058 108.568 26.6697C110.436 28.0245 112.724 28.15 114.29 28.15V24.15ZM109.79 20.5H113.79C113.79 20.7242 113.745 20.9416 113.674 21.122C113.608 21.2893 113.545 21.3587 113.569 21.3299C113.596 21.2966 113.69 21.1905 113.904 21.013C114.117 20.837 114.413 20.6186 114.82 20.3538L112.64 17L110.46 13.6462C108.425 14.9695 105.79 17.0687 105.79 20.5H109.79ZM112.64 17L114.742 20.4032C118.65 17.9894 119.517 17.1 122.09 17.1V13.1V9.1C116.664 9.1 113.43 11.8106 110.538 13.5968L112.64 17ZM122.09 13.1V17.1C123.629 17.1 123.777 17.457 123.565 17.2549C123.309 17.0105 123.49 16.8867 123.49 17.65H127.49H131.49C131.49 15.7133 131.022 13.3145 129.091 11.4701C127.204 9.66796 124.652 9.1 122.09 9.1V13.1ZM127.49 17.65H123.49C123.49 19.1627 123.284 19.9807 122.959 22.1754C122.642 24.3072 122.34 27.1035 122.34 31.85H126.34H130.34C130.34 27.4965 130.613 25.0928 130.872 23.3496C131.121 21.6693 131.49 19.9373 131.49 17.65H127.49ZM126.34 31.85H122.34C122.34 33.5307 122.316 34.8152 122.303 35.8897C122.291 36.9008 122.286 37.8628 122.355 38.6767C122.426 39.5177 122.601 40.5766 123.189 41.6251C123.79 42.6976 124.604 43.3653 125.206 43.7981L127.54 40.55L129.875 37.3019C129.677 37.1597 129.94 37.3086 130.167 37.7123C130.38 38.0922 130.354 38.3323 130.326 37.9983C130.295 37.6372 130.29 37.0679 130.303 35.9853C130.315 34.966 130.34 33.5943 130.34 31.85H126.34ZM127.54 40.55L125.215 43.8049C125.314 43.8756 125.41 43.9431 125.49 43.9996C125.574 44.059 125.642 44.1068 125.705 44.1519C125.832 44.2433 125.896 44.2929 125.932 44.3228C125.983 44.3646 125.883 44.2896 125.781 44.1239C125.682 43.962 125.685 43.8842 125.713 44.024C125.746 44.19 125.79 44.543 125.79 45.2H129.79H133.79C133.79 43.3331 133.57 41.5192 132.599 39.9386C131.683 38.4451 130.251 37.5703 129.865 37.2951L127.54 40.55ZM129.79 45.2H125.79C125.79 45.8733 125.694 45.8572 125.823 45.6013C125.903 45.4423 126.025 45.2771 126.177 45.1418C126.32 45.0157 126.418 44.9776 126.391 44.9888C126.275 45.0383 125.836 45.1761 124.738 45.2723C123.681 45.3648 122.282 45.4 120.39 45.4V49.4V53.4C122.324 53.4 124.013 53.3664 125.436 53.2418C126.817 53.1208 128.249 52.8929 129.527 52.3487C130.943 51.7455 132.195 50.7386 132.972 49.1909C133.668 47.8053 133.79 46.3517 133.79 45.2H129.79Z" fill="#1423BA" mask="url(#path-1-outside-1_164_2936)"/>
</svg>
