<svg width="198" height="60" viewBox="0 0 198 60" fill="none" xmlns="http://www.w3.org/2000/svg">
<mask id="path-1-outside-1_164_2950" maskUnits="userSpaceOnUse" x="60" y="8" width="78" height="46" fill="black">
<rect fill="white" x="60" y="8" width="78" height="46"/>
<path d="M81.4574 49.8C75.8074 49.8 71.6574 48.15 68.8074 45.2C65.6574 42.05 64.1074 37.45 64.1074 32.25C64.1074 26.55 65.9074 21.1 69.5074 17.55C72.3574 14.65 76.2574 12.95 81.4574 12.95C86.7074 12.95 90.5074 14.55 93.2074 17.25C96.8574 20.9 98.4574 26.4 98.4574 32.2C98.4574 37.55 96.9074 42.2 93.7574 45.4C91.0574 48.2 87.0074 49.8 81.4574 49.8ZM81.9574 40.45C83.7574 40.45 85.4574 39.85 86.5074 38.8C87.5574 37.7 88.1074 36.2 88.1074 34.3C88.1074 31.15 86.6074 26.15 84.4074 23.95C83.4074 22.9 82.2074 22.35 80.6574 22.35C78.9574 22.35 77.4574 22.95 76.5074 23.95C75.3074 25.1 74.7074 26.9 74.7074 29.1C74.7074 32.3 75.9574 36.95 78.0574 39C79.0574 39.95 80.3074 40.45 81.9574 40.45ZM127.421 49.25C125.321 49.25 122.571 48.5 118.821 48.5C114.671 48.5 112.471 49.1 110.021 49.1C107.171 49.1 106.221 48.2 106.221 44.2C106.221 37.55 106.421 37.3 114.371 31C118.621 27.55 119.671 26.65 119.671 25.1C119.671 23.55 118.471 22.7 116.471 22.7C114.971 22.7 113.421 23.2 112.271 23.8C110.171 24.8 110.071 25.25 108.821 25.25C106.871 25.25 105.721 23.75 106.721 20.85C108.171 16.4 113.071 12.5 120.671 12.5C127.471 12.5 132.671 15.9 132.671 23.3C132.671 29.35 129.171 31.9 122.571 35.2C117.371 37.9 115.521 38.1 115.521 39.4C115.521 40.35 116.471 39.75 120.121 39.75C123.771 39.75 123.921 39.4 125.721 37.4C127.271 35.65 128.121 34.55 130.071 34.55C131.871 34.55 133.871 35.5 133.871 37.9C133.871 38.8 133.521 40.15 132.921 42.2C131.421 47.3 130.721 49.25 127.421 49.25Z"/>
</mask>
<path d="M68.8074 45.2L71.6842 42.4207L71.6602 42.396L71.6358 42.3716L68.8074 45.2ZM69.5074 17.55L72.316 20.3981L72.3383 20.3761L72.3603 20.3537L69.5074 17.55ZM93.2074 17.25L96.0359 14.4216V14.4216L93.2074 17.25ZM93.7574 45.4L90.9068 42.5939L90.8924 42.6086L90.878 42.6235L93.7574 45.4ZM86.5074 38.8L89.3359 41.6284L89.3687 41.5955L89.4008 41.5619L86.5074 38.8ZM84.4074 23.95L81.5109 26.7086L81.5445 26.7439L81.579 26.7784L84.4074 23.95ZM76.5074 23.95L79.275 26.8379L79.3428 26.773L79.4074 26.705L76.5074 23.95ZM78.0574 39L75.2633 41.8623L75.2827 41.8813L75.3024 41.9L78.0574 39ZM81.4574 49.8V45.8C76.6167 45.8 73.6084 44.4125 71.6842 42.4207L68.8074 45.2L65.9307 47.9792C69.7064 51.8875 74.9981 53.8 81.4574 53.8V49.8ZM68.8074 45.2L71.6358 42.3716C69.4298 40.1655 68.1074 36.6988 68.1074 32.25H64.1074H60.1074C60.1074 38.2012 61.8851 43.9345 65.979 48.0284L68.8074 45.2ZM64.1074 32.25H68.1074C68.1074 27.2948 69.6826 22.995 72.316 20.3981L69.5074 17.55L66.6988 14.7019C62.1323 19.205 60.1074 25.8052 60.1074 32.25H64.1074ZM69.5074 17.55L72.3603 20.3537C74.3841 18.2944 77.2197 16.95 81.4574 16.95V12.95V8.95C75.2952 8.95 70.3307 11.0056 66.6545 14.7463L69.5074 17.55ZM81.4574 12.95V16.95C85.8263 16.95 88.5474 18.2468 90.379 20.0784L93.2074 17.25L96.0359 14.4216C92.4675 10.8532 87.5885 8.95 81.4574 8.95V12.95ZM93.2074 17.25L90.379 20.0784C93.0192 22.7187 94.4574 27.0265 94.4574 32.2H98.4574H102.457C102.457 25.7735 100.696 19.0813 96.0359 14.4216L93.2074 17.25ZM98.4574 32.2H94.4574C94.4574 36.8184 93.1236 40.342 90.9068 42.5939L93.7574 45.4L96.608 48.2061C100.691 44.058 102.457 38.2816 102.457 32.2H98.4574ZM93.7574 45.4L90.878 42.6235C89.1214 44.4452 86.2285 45.8 81.4574 45.8V49.8V53.8C87.7864 53.8 92.9934 51.9548 96.6368 48.1765L93.7574 45.4ZM81.9574 40.45V44.45C84.5308 44.45 87.3543 43.61 89.3359 41.6284L86.5074 38.8L83.679 35.9716C83.5606 36.09 82.9841 36.45 81.9574 36.45V40.45ZM86.5074 38.8L89.4008 41.5619C91.3011 39.5712 92.1074 37.0064 92.1074 34.3H88.1074H84.1074C84.1074 35.3936 83.8138 35.8288 83.614 36.0381L86.5074 38.8ZM88.1074 34.3H92.1074C92.1074 32.1889 91.625 29.7112 90.8709 27.4853C90.138 25.3218 88.9665 22.8522 87.2358 21.1216L84.4074 23.95L81.579 26.7784C82.0484 27.2478 82.7268 28.3782 83.2939 30.0522C83.8399 31.6637 84.1074 33.2611 84.1074 34.3H88.1074ZM84.4074 23.95L87.304 21.1914C85.5686 19.3692 83.3302 18.35 80.6574 18.35V22.35V26.35C80.9454 26.35 81.0826 26.3979 81.1451 26.4251C81.2096 26.4531 81.329 26.5177 81.5109 26.7086L84.4074 23.95ZM80.6574 22.35V18.35C78.0673 18.35 75.4438 19.2619 73.6074 21.195L76.5074 23.95L79.4074 26.705C79.471 26.6381 79.8475 26.35 80.6574 26.35V22.35ZM76.5074 23.95L73.7398 21.062C71.4809 23.2269 70.7074 26.2541 70.7074 29.1H74.7074H78.7074C78.7074 27.5459 79.134 26.9731 79.275 26.8379L76.5074 23.95ZM74.7074 29.1H70.7074C70.7074 31.1556 71.0975 33.5252 71.781 35.687C72.4384 37.7666 73.5277 40.1681 75.2633 41.8623L78.0574 39L80.8516 36.1377C80.4871 35.7819 79.9014 34.8334 79.4089 33.2755C78.9423 31.7998 78.7074 30.2444 78.7074 29.1H74.7074ZM78.0574 39L75.3024 41.9C77.1188 43.6255 79.3873 44.45 81.9574 44.45V40.45V36.45C81.2276 36.45 80.9961 36.2745 80.8124 36.1L78.0574 39ZM114.371 31L116.856 34.135L116.874 34.1204L116.892 34.1056L114.371 31ZM112.271 23.8L113.991 27.4114L114.057 27.3801L114.122 27.3463L112.271 23.8ZM106.721 20.85L110.503 22.154L110.514 22.1217L110.525 22.0892L106.721 20.85ZM122.571 35.2L120.783 31.6223L120.755 31.6359L120.728 31.65L122.571 35.2ZM125.721 37.4L128.695 40.0759L128.705 40.064L128.716 40.0521L125.721 37.4ZM132.921 42.2L136.759 43.3287L136.76 43.3236L132.921 42.2ZM127.421 49.25V45.25C126.711 45.25 125.863 45.1208 124.264 44.9095C122.794 44.7152 120.963 44.5 118.821 44.5V48.5V52.5C120.43 52.5 121.849 52.6598 123.216 52.8405C124.455 53.0042 126.032 53.25 127.421 53.25V49.25ZM118.821 48.5V44.5C116.538 44.5 114.789 44.6667 113.35 44.8236C111.858 44.9864 110.972 45.1 110.021 45.1V49.1V53.1C111.521 53.1 112.96 52.9136 114.218 52.7764C115.529 52.6333 116.955 52.5 118.821 52.5V48.5ZM110.021 49.1V45.1C109.765 45.1 109.588 45.0896 109.472 45.0769C109.354 45.0642 109.332 45.0529 109.374 45.0654C109.422 45.0796 109.545 45.1226 109.703 45.2223C109.867 45.3261 110.021 45.4613 110.147 45.6156C110.393 45.9161 110.385 46.1023 110.332 45.8441C110.277 45.5768 110.221 45.0757 110.221 44.2H106.221H102.221C102.221 46.183 102.378 48.7546 103.958 50.6844C105.784 52.9141 108.427 53.1 110.021 53.1V49.1ZM106.221 44.2H110.221C110.221 40.6288 110.376 40.1227 110.714 39.5785C110.936 39.2198 111.375 38.69 112.406 37.7711C113.438 36.8513 114.839 35.7331 116.856 34.135L114.371 31L111.887 27.865C109.929 29.4169 108.324 30.6924 107.082 31.7993C105.84 32.9069 104.738 34.0365 103.917 35.359C102.167 38.1773 102.221 41.1212 102.221 44.2H106.221ZM114.371 31L116.892 34.1056C118.916 32.4631 120.51 31.1696 121.539 30.0675C122.095 29.4716 122.663 28.7536 123.071 27.8704C123.51 26.9226 123.671 25.9913 123.671 25.1H119.671H115.671C115.671 24.9837 115.702 24.7462 115.811 24.5109C115.89 24.3401 115.929 24.3534 115.692 24.6075C115.133 25.2054 114.077 26.0869 111.85 27.8944L114.371 31ZM119.671 25.1H123.671C123.671 23.1614 122.851 21.3224 121.198 20.1013C119.713 19.0047 117.959 18.7 116.471 18.7V22.7V26.7C116.984 26.7 116.83 26.8203 116.445 26.5362C116.227 26.3756 116.005 26.1304 115.851 25.8106C115.7 25.4983 115.671 25.2352 115.671 25.1H119.671ZM116.471 22.7V18.7C114.168 18.7 111.982 19.4392 110.421 20.2537L112.271 23.8L114.122 27.3463C114.861 26.9608 115.775 26.7 116.471 26.7V22.7ZM112.271 23.8L110.552 20.1886C109.927 20.4861 109.444 20.7463 109.058 20.9642C108.873 21.068 108.705 21.1656 108.588 21.2333C108.458 21.3085 108.389 21.3471 108.34 21.3733C108.26 21.4163 108.369 21.3502 108.567 21.2977C108.768 21.2445 108.887 21.25 108.821 21.25V25.25V29.25C109.381 29.25 109.981 29.1993 110.618 29.0304C111.252 28.8623 111.752 28.6212 112.115 28.4267C112.925 27.9934 113.005 27.8812 113.991 27.4114L112.271 23.8ZM108.821 25.25V21.25C108.836 21.25 109.043 21.2524 109.34 21.4033C109.666 21.5687 109.972 21.8501 110.169 22.2075C110.259 22.3711 110.306 22.5152 110.33 22.6192C110.342 22.6704 110.348 22.7104 110.351 22.7372C110.352 22.7506 110.353 22.7609 110.353 22.7677C110.353 22.7745 110.353 22.778 110.353 22.778C110.353 22.7781 110.353 22.7748 110.354 22.768C110.354 22.7613 110.355 22.7512 110.356 22.7377C110.359 22.7105 110.364 22.6707 110.374 22.6174C110.395 22.5098 110.433 22.3561 110.503 22.154L106.721 20.85L102.94 19.546C102.26 21.5188 101.983 23.927 103.162 26.0675C104.452 28.4103 106.807 29.25 108.821 29.25V25.25ZM106.721 20.85L110.525 22.0892C111.337 19.5975 114.451 16.5 120.671 16.5V12.5V8.5C111.692 8.5 105.006 13.2025 102.918 19.6108L106.721 20.85ZM120.671 12.5V16.5C123.463 16.5 125.455 17.2028 126.675 18.2096C127.779 19.121 128.671 20.6203 128.671 23.3H132.671H136.671C136.671 18.5796 134.964 14.679 131.768 12.0404C128.688 9.49716 124.68 8.5 120.671 8.5V12.5ZM132.671 23.3H128.671C128.671 25.4016 128.123 26.5423 127.184 27.5398C126.023 28.7725 124.094 29.9666 120.783 31.6223L122.571 35.2L124.36 38.7777C127.649 37.1334 130.77 35.4025 133.009 33.0227C135.47 30.4077 136.671 27.2484 136.671 23.3H132.671ZM122.571 35.2L120.728 31.65C118.018 33.0574 116.888 33.4661 115.324 34.2393C114.755 34.5205 113.864 34.9788 113.126 35.6852C112.163 36.6069 111.521 37.8776 111.521 39.4H115.521H119.521C119.521 39.7336 119.457 40.1568 119.26 40.5967C119.068 41.024 118.821 41.3085 118.657 41.4648C118.429 41.6837 118.326 41.6795 118.869 41.4107C119.366 41.1652 119.96 40.9039 120.956 40.4425C121.896 40.0078 123.044 39.4616 124.415 38.75L122.571 35.2ZM115.521 39.4H111.521C111.521 39.7986 111.562 40.5208 111.914 41.3119C112.319 42.2237 113.008 42.9423 113.855 43.3906C114.586 43.7773 115.269 43.8759 115.641 43.9108C116.035 43.9477 116.395 43.9379 116.633 43.9272C117.764 43.8762 118.35 43.75 120.121 43.75V39.75V35.75C118.243 35.75 116.529 35.9238 116.273 35.9353C116.164 35.9402 116.234 35.9312 116.388 35.9457C116.52 35.9581 117.014 36.0109 117.599 36.3203C118.299 36.6913 118.886 37.3009 119.225 38.0637C119.51 38.7058 119.521 39.2389 119.521 39.4H115.521ZM120.121 39.75V43.75C121.829 43.75 123.669 43.7187 125.315 42.9457C126.952 42.1773 128.067 40.7729 128.695 40.0759L125.721 37.4L122.748 34.7241C122.224 35.3062 122.013 35.5482 121.817 35.7379C121.686 35.8649 121.744 35.7848 121.915 35.7043C122.072 35.6308 122.111 35.6574 121.825 35.6904C121.508 35.7269 121.004 35.75 120.121 35.75V39.75ZM125.721 37.4L128.716 40.0521C129.147 39.565 129.421 39.2477 129.696 38.9554C129.956 38.6788 130.095 38.558 130.166 38.504C130.216 38.4659 130.183 38.499 130.092 38.5305C130 38.562 129.972 38.55 130.071 38.55V34.55V30.55C128.181 30.55 126.639 31.1368 125.327 32.1335C124.278 32.9306 123.346 34.0486 122.727 34.7479L125.721 37.4ZM130.071 34.55V38.55C130.178 38.55 130.267 38.5651 130.32 38.5805C130.374 38.596 130.344 38.5971 130.264 38.5382C130.174 38.471 130.051 38.3475 129.961 38.1686C129.869 37.9869 129.871 37.8699 129.871 37.9H133.871H137.871C137.871 35.4235 136.764 33.398 135.029 32.1118C133.448 30.9398 131.596 30.55 130.071 30.55V34.55ZM133.871 37.9H129.871C129.871 37.8937 129.865 38.1067 129.723 38.7218C129.589 39.3046 129.381 40.0575 129.083 41.0764L132.921 42.2L136.76 43.3236C137.304 41.4679 137.871 39.4993 137.871 37.9H133.871ZM132.921 42.2L129.084 41.0713C128.705 42.3601 128.413 43.3202 128.135 44.083C127.853 44.8571 127.659 45.2139 127.552 45.3683C127.488 45.4617 127.554 45.3435 127.747 45.2519C127.895 45.1816 127.868 45.25 127.421 45.25V49.25V53.25C128.625 53.25 129.923 53.0746 131.177 52.4793C132.476 51.8627 133.43 50.9383 134.141 49.9067C135.36 48.1362 136.077 45.6474 136.759 43.3287L132.921 42.2Z" fill="#1423BA" mask="url(#path-1-outside-1_164_2950)"/>
</svg>
