<svg width="198" height="60" viewBox="0 0 198 60" fill="none" xmlns="http://www.w3.org/2000/svg">
<mask id="path-1-outside-1_164_2942" maskUnits="userSpaceOnUse" x="60" y="8" width="79" height="46" fill="black">
<rect fill="white" x="60" y="8" width="79" height="46"/>
<path d="M81.7748 49.8C76.1248 49.8 71.9748 48.15 69.1248 45.2C65.9748 42.05 64.4248 37.45 64.4248 32.25C64.4248 26.55 66.2248 21.1 69.8248 17.55C72.6748 14.65 76.5748 12.95 81.7748 12.95C87.0248 12.95 90.8248 14.55 93.5248 17.25C97.1748 20.9 98.7748 26.4 98.7748 32.2C98.7748 37.55 97.2248 42.2 94.0748 45.4C91.3748 48.2 87.3248 49.8 81.7748 49.8ZM82.2748 40.45C84.0748 40.45 85.7748 39.85 86.8248 38.8C87.8748 37.7 88.4248 36.2 88.4248 34.3C88.4248 31.15 86.9248 26.15 84.7248 23.95C83.7248 22.9 82.5248 22.35 80.9748 22.35C79.2748 22.35 77.7748 22.95 76.8248 23.95C75.6248 25.1 75.0248 26.9 75.0248 29.1C75.0248 32.3 76.2748 36.95 78.3748 39C79.3748 39.95 80.6248 40.45 82.2748 40.45ZM118.739 49.9C111.039 50 105.639 46.5 105.639 40.95C105.639 37.4 107.789 34.75 111.239 34.75C114.189 34.75 115.889 36.5 115.889 39.2V40.85C115.889 42.25 116.839 42.85 118.739 42.85C121.689 42.85 122.989 41.55 122.989 39.1C122.989 35.75 120.539 34 116.989 33.55C113.789 33.2 112.989 33 112.989 30.65C112.989 27.4 114.389 27.45 117.589 27.4C119.589 27.35 120.689 26.75 120.689 25.35C120.689 23.7 119.139 22.5 116.339 22.5C115.189 22.5 114.089 22.7 112.889 23.05C111.689 23.45 111.189 24 110.239 24C108.389 24 107.439 22.25 108.039 19.95C109.139 15.85 113.939 13 119.839 13C126.489 13 131.289 16.45 131.289 21.7C131.289 24.1 130.289 25.6 128.639 26.55C127.639 27.1 127.039 27.25 127.039 27.9C127.039 28.9 128.639 28.8 130.539 30.15C132.839 31.65 134.089 34.1 134.089 37.3C134.089 44.7 127.689 49.8 118.739 49.9Z"/>
</mask>
<path d="M69.1248 45.2L72.0016 42.4207L71.9776 42.396L71.9532 42.3716L69.1248 45.2ZM69.8248 17.55L72.6334 20.3981L72.6557 20.3761L72.6777 20.3537L69.8248 17.55ZM93.5248 17.25L96.3532 14.4216V14.4216L93.5248 17.25ZM94.0748 45.4L91.2242 42.5939L91.2097 42.6086L91.1954 42.6235L94.0748 45.4ZM86.8248 38.8L89.6532 41.6284L89.6861 41.5955L89.7182 41.5619L86.8248 38.8ZM84.7248 23.95L81.8283 26.7086L81.8619 26.7439L81.8964 26.7784L84.7248 23.95ZM76.8248 23.95L79.5924 26.8379L79.6602 26.773L79.7248 26.705L76.8248 23.95ZM78.3748 39L75.5807 41.8623L75.6001 41.8813L75.6198 41.9L78.3748 39ZM81.7748 49.8V45.8C76.9341 45.8 73.9258 44.4125 72.0016 42.4207L69.1248 45.2L66.248 47.9792C70.0238 51.8875 75.3155 53.8 81.7748 53.8V49.8ZM69.1248 45.2L71.9532 42.3716C69.7471 40.1655 68.4248 36.6988 68.4248 32.25H64.4248H60.4248C60.4248 38.2012 62.2025 43.9345 66.2964 48.0284L69.1248 45.2ZM64.4248 32.25H68.4248C68.4248 27.2948 70 22.995 72.6334 20.3981L69.8248 17.55L67.0162 14.7019C62.4496 19.205 60.4248 25.8052 60.4248 32.25H64.4248ZM69.8248 17.55L72.6777 20.3537C74.7015 18.2944 77.5371 16.95 81.7748 16.95V12.95V8.95C75.6125 8.95 70.6481 11.0056 66.9719 14.7463L69.8248 17.55ZM81.7748 12.95V16.95C86.1437 16.95 88.8648 18.2468 90.6964 20.0784L93.5248 17.25L96.3532 14.4216C92.7849 10.8532 87.9059 8.95 81.7748 8.95V12.95ZM93.5248 17.25L90.6964 20.0784C93.3366 22.7187 94.7748 27.0265 94.7748 32.2H98.7748H102.775C102.775 25.7735 101.013 19.0813 96.3532 14.4216L93.5248 17.25ZM98.7748 32.2H94.7748C94.7748 36.8184 93.441 40.342 91.2242 42.5939L94.0748 45.4L96.9254 48.2061C101.009 44.058 102.775 38.2816 102.775 32.2H98.7748ZM94.0748 45.4L91.1954 42.6235C89.4388 44.4452 86.5459 45.8 81.7748 45.8V49.8V53.8C88.1037 53.8 93.3108 51.9548 96.9542 48.1765L94.0748 45.4ZM82.2748 40.45V44.45C84.8481 44.45 87.6717 43.61 89.6532 41.6284L86.8248 38.8L83.9964 35.9716C83.8779 36.09 83.3015 36.45 82.2748 36.45V40.45ZM86.8248 38.8L89.7182 41.5619C91.6185 39.5712 92.4248 37.0064 92.4248 34.3H88.4248H84.4248C84.4248 35.3936 84.1312 35.8288 83.9314 36.0381L86.8248 38.8ZM88.4248 34.3H92.4248C92.4248 32.1889 91.9424 29.7112 91.1883 27.4853C90.4554 25.3218 89.2839 22.8522 87.5532 21.1216L84.7248 23.95L81.8964 26.7784C82.3658 27.2478 83.0442 28.3782 83.6113 30.0522C84.1572 31.6637 84.4248 33.2611 84.4248 34.3H88.4248ZM84.7248 23.95L87.6214 21.1914C85.886 19.3692 83.6476 18.35 80.9748 18.35V22.35V26.35C81.2628 26.35 81.3999 26.3979 81.4625 26.4251C81.527 26.4531 81.6464 26.5177 81.8283 26.7086L84.7248 23.95ZM80.9748 22.35V18.35C78.3847 18.35 75.7612 19.2619 73.9248 21.195L76.8248 23.95L79.7248 26.705C79.7884 26.6381 80.1649 26.35 80.9748 26.35V22.35ZM76.8248 23.95L74.0572 21.062C71.7982 23.2269 71.0248 26.2541 71.0248 29.1H75.0248H79.0248C79.0248 27.5459 79.4514 26.9731 79.5924 26.8379L76.8248 23.95ZM75.0248 29.1H71.0248C71.0248 31.1556 71.4149 33.5252 72.0984 35.687C72.7558 37.7666 73.8451 40.1681 75.5807 41.8623L78.3748 39L81.169 36.1377C80.8045 35.7819 80.2188 34.8334 79.7262 33.2755C79.2597 31.7998 79.0248 30.2444 79.0248 29.1H75.0248ZM78.3748 39L75.6198 41.9C77.4361 43.6255 79.7047 44.45 82.2748 44.45V40.45V36.45C81.545 36.45 81.3135 36.2745 81.1298 36.1L78.3748 39ZM118.739 49.9L118.694 45.9002L118.687 45.9003L118.739 49.9ZM116.989 33.55L117.492 29.5818L117.458 29.5774L117.424 29.5737L116.989 33.55ZM117.589 27.4L117.651 31.3995L117.67 31.3992L117.689 31.3988L117.589 27.4ZM112.889 23.05L111.769 19.21L111.696 19.2313L111.624 19.2553L112.889 23.05ZM108.039 19.95L104.175 18.9135L104.172 18.9269L104.168 18.9403L108.039 19.95ZM128.639 26.55L130.567 30.0549L130.601 30.036L130.635 30.0165L128.639 26.55ZM130.539 30.15L128.222 33.4107L128.287 33.4569L128.354 33.5004L130.539 30.15ZM118.739 49.9L118.687 45.9003C115.396 45.9431 112.988 45.2035 111.535 44.2252C110.194 43.3231 109.639 42.2416 109.639 40.95H105.639H101.639C101.639 45.2084 103.784 48.6519 107.068 50.8623C110.239 52.9965 114.382 53.9569 118.791 53.8997L118.739 49.9ZM105.639 40.95H109.639C109.639 39.9645 109.934 39.406 110.154 39.154C110.329 38.9549 110.613 38.75 111.239 38.75V34.75V30.75C108.415 30.75 105.899 31.8701 104.136 33.8835C102.419 35.844 101.639 38.3855 101.639 40.95H105.639ZM111.239 34.75V38.75C111.584 38.75 111.778 38.8013 111.858 38.8302C111.93 38.8562 111.917 38.8652 111.876 38.8245C111.833 38.7832 111.825 38.7529 111.835 38.7795C111.848 38.8141 111.889 38.9427 111.889 39.2H115.889H119.889C119.889 36.9985 119.177 34.7726 117.465 33.1005C115.76 31.4361 113.505 30.75 111.239 30.75V34.75ZM115.889 39.2H111.889V40.85H115.889H119.889V39.2H115.889ZM115.889 40.85H111.889C111.889 42.5763 112.556 44.4537 114.343 45.6762C115.817 46.6853 117.516 46.85 118.739 46.85V42.85V38.85C118.459 38.85 118.346 38.8265 118.349 38.8272C118.352 38.8279 118.568 38.8739 118.86 39.0738C119.185 39.296 119.49 39.6326 119.688 40.0542C119.873 40.447 119.889 40.7536 119.889 40.85H115.889ZM118.739 42.85V46.85C120.711 46.85 122.932 46.4268 124.662 44.8523C126.469 43.2083 126.989 41.0072 126.989 39.1H122.989H118.989C118.989 39.3712 118.951 39.4332 118.976 39.3642C118.99 39.3257 119.02 39.2575 119.074 39.1741C119.129 39.0895 119.199 39.0073 119.278 38.9352C119.445 38.7837 119.563 38.758 119.504 38.7756C119.429 38.7979 119.197 38.85 118.739 38.85V42.85ZM122.989 39.1H126.989C126.989 36.3296 125.92 33.9256 123.935 32.2106C122.079 30.6075 119.73 29.8655 117.492 29.5818L116.989 33.55L116.486 37.5182C117.798 37.6845 118.448 38.0425 118.705 38.2644C118.814 38.3586 118.863 38.4345 118.895 38.5061C118.928 38.582 118.989 38.7579 118.989 39.1H122.989ZM116.989 33.55L117.424 29.5737C117.03 29.5306 116.705 29.4933 116.425 29.4561C116.143 29.4187 115.942 29.3861 115.796 29.3569C115.648 29.3273 115.603 29.3105 115.622 29.3172C115.644 29.3247 115.776 29.3719 115.959 29.4898C116.154 29.616 116.373 29.801 116.568 30.0526C116.762 30.3013 116.875 30.54 116.936 30.7158C116.994 30.8793 117.003 30.9743 117 30.9516C116.997 30.9286 116.989 30.8386 116.989 30.65H112.989H108.989C108.989 32.0743 109.185 34.6386 111.619 36.2102C112.549 36.8109 113.532 37.063 114.232 37.2025C114.955 37.3467 115.775 37.4411 116.554 37.5263L116.989 33.55ZM112.989 30.65H116.989C116.989 30.3798 117.004 30.2226 117.015 30.1485C117.025 30.0741 117.025 30.1299 116.972 30.2637C116.913 30.4091 116.8 30.6265 116.599 30.8539C116.396 31.0846 116.17 31.2483 115.971 31.3544C115.786 31.453 115.66 31.4831 115.652 31.4849C115.648 31.486 115.712 31.471 115.884 31.4553C116.055 31.4396 116.278 31.4278 116.586 31.4191C116.897 31.4103 117.232 31.4061 117.651 31.3995L117.589 27.4L117.526 23.4005C116.804 23.4118 115.927 23.4181 115.156 23.4885C114.397 23.5579 113.288 23.7189 112.207 24.2956C109.396 25.7946 108.989 28.6704 108.989 30.65H112.989ZM117.589 27.4L117.689 31.3988C118.933 31.3676 120.582 31.1735 122.023 30.2642C123.797 29.1452 124.689 27.3167 124.689 25.35H120.689H116.689C116.689 25.1697 116.727 24.8043 116.95 24.3829C117.18 23.9498 117.496 23.6614 117.754 23.4983C117.984 23.3534 118.122 23.3346 118.052 23.3502C117.986 23.3646 117.811 23.3932 117.489 23.4012L117.589 27.4ZM120.689 25.35H124.689C124.689 23.1044 123.565 21.2008 121.828 20.0085C120.214 18.9005 118.248 18.5 116.339 18.5V22.5V26.5C116.759 26.5 117.041 26.5456 117.206 26.5878C117.372 26.6304 117.381 26.6595 117.3 26.604C117.211 26.543 117.041 26.3961 116.896 26.1329C116.748 25.8632 116.689 25.5817 116.689 25.35H120.689ZM116.339 22.5V18.5C114.703 18.5 113.213 18.7887 111.769 19.21L112.889 23.05L114.009 26.89C114.964 26.6113 115.675 26.5 116.339 26.5V22.5ZM112.889 23.05L111.624 19.2553C110.715 19.5582 109.913 19.9863 109.75 20.0636C109.628 20.1217 109.664 20.097 109.77 20.0663C109.903 20.0276 110.069 20 110.239 20V24V28C111.594 28 112.596 27.5694 113.19 27.2864C113.815 26.9887 113.863 26.9418 114.154 26.8447L112.889 23.05ZM110.239 24V20C110.421 20 110.727 20.0479 111.059 20.2433C111.391 20.4387 111.612 20.7013 111.735 20.9285C111.96 21.3423 111.785 21.4367 111.909 20.9597L108.039 19.95L104.168 18.9403C103.693 20.7633 103.693 22.8827 104.705 24.7465C105.813 26.7857 107.877 28 110.239 28V24ZM108.039 19.95L111.902 20.9865C112.34 19.3566 114.873 17 119.839 17V13V9C113.005 9 105.938 12.3434 104.175 18.9135L108.039 19.95ZM119.839 13V17C122.515 17 124.477 17.6984 125.662 18.5848C126.764 19.4082 127.289 20.4328 127.289 21.7H131.289H135.289C135.289 17.7172 133.414 14.3918 130.453 12.1777C127.576 10.0266 123.813 9 119.839 9V13ZM131.289 21.7H127.289C127.289 22.3326 127.162 22.5933 127.115 22.6754C127.07 22.7539 126.968 22.8966 126.643 23.0835L128.639 26.55L130.635 30.0165C131.96 29.2534 133.183 28.1711 134.051 26.6621C134.916 25.1567 135.289 23.4674 135.289 21.7H131.289ZM128.639 26.55L126.711 23.0451C126.523 23.1486 126.382 23.2185 126.133 23.3467C125.945 23.444 125.574 23.6346 125.211 23.8826C124.832 24.1409 124.24 24.6048 123.764 25.3597C123.246 26.1815 123.039 27.069 123.039 27.9H127.039H131.039C131.039 28.406 130.906 29.031 130.532 29.6247C130.2 30.1515 129.821 30.4216 129.717 30.4924C129.628 30.5529 129.596 30.5623 129.801 30.4564C129.946 30.3815 130.255 30.2264 130.567 30.0549L128.639 26.55ZM127.039 27.9H123.039C123.039 29.4793 123.78 30.7279 124.732 31.5346C125.439 32.1343 126.242 32.4613 126.523 32.5796C127.339 32.9237 127.717 33.0518 128.222 33.4107L130.539 30.15L132.856 26.8893C131.461 25.8982 130.089 25.4013 129.63 25.2079C129.502 25.1539 129.48 25.141 129.503 25.1532C129.524 25.1639 129.691 25.2511 129.905 25.4326C130.135 25.6276 130.45 25.9573 130.694 26.4498C130.946 26.9577 131.039 27.4672 131.039 27.9H127.039ZM130.539 30.15L128.354 33.5004C129.36 34.1567 130.089 35.2468 130.089 37.3H134.089H138.089C138.089 32.9532 136.318 29.1433 132.724 26.7996L130.539 30.15ZM134.089 37.3H130.089C130.089 41.7447 126.304 45.8152 118.694 45.9002L118.739 49.9L118.784 53.8997C129.073 53.7848 138.089 47.6553 138.089 37.3H134.089Z" fill="#1423BA" mask="url(#path-1-outside-1_164_2942)"/>
</svg>
