<svg width="198" height="60" viewBox="0 0 198 60" fill="none" xmlns="http://www.w3.org/2000/svg">
<mask id="path-1-outside-1_164_2956" maskUnits="userSpaceOnUse" x="58" y="8" width="82" height="46" fill="black">
<rect fill="white" x="58" y="8" width="82" height="46"/>
<path d="M80.1879 49.8C74.5379 49.8 70.3879 48.15 67.5379 45.2C64.3879 42.05 62.8379 37.45 62.8379 32.25C62.8379 26.55 64.6379 21.1 68.2379 17.55C71.0879 14.65 74.9879 12.95 80.1879 12.95C85.4379 12.95 89.2379 14.55 91.9379 17.25C95.5879 20.9 97.1879 26.4 97.1879 32.2C97.1879 37.55 95.6379 42.2 92.4879 45.4C89.7879 48.2 85.7379 49.8 80.1879 49.8ZM80.6879 40.45C82.4879 40.45 84.1879 39.85 85.2379 38.8C86.2879 37.7 86.8379 36.2 86.8379 34.3C86.8379 31.15 85.3379 26.15 83.1379 23.95C82.1379 22.9 80.9379 22.35 79.3879 22.35C77.6879 22.35 76.1879 22.95 75.2379 23.95C74.0379 25.1 73.4379 26.9 73.4379 29.1C73.4379 32.3 74.6879 36.95 76.7879 39C77.7879 39.95 79.0379 40.45 80.6879 40.45ZM122.602 49.55C115.452 49.55 113.402 48.85 113.402 44.95C113.402 42.05 114.652 41.85 116.902 41.2C118.352 40.75 119.052 40.5 119.052 39.1C119.052 37.9 118.602 37.85 117.602 37.85C114.702 37.85 111.052 38.7 107.952 38.7C106.352 38.7 105.552 38.5 104.652 36.45C102.702 32.1 104.152 30.55 106.252 28.4C108.302 26.25 113.252 21.1 114.652 19.8C119.252 15.45 120.902 13 126.252 13C128.902 13 131.102 13.6 131.102 16.9C131.102 19.1 130.252 23.7 130.252 27.2C130.252 28.7 130.502 28.8 131.752 28.8C134.902 28.8 135.602 27.65 135.752 31.45C135.952 37.05 134.952 37.6 131.802 37.6C130.102 37.6 128.952 37.5 128.952 38.95C128.952 40.1 129.752 40.4 130.602 40.7C132.502 41.45 133.402 42.45 133.402 44.6C133.402 48.4 131.152 49.55 122.602 49.55ZM117.702 30.15C120.702 30.15 120.552 30.1 120.602 27.9C120.702 22.9 120.902 22.4 119.852 22.4C119.152 22.4 118.952 23.55 115.902 26.4C113.952 28.3 112.402 29.05 112.502 29.7C112.652 30.5 112.852 30.15 117.702 30.15Z"/>
</mask>
<path d="M67.5379 45.2L70.4147 42.4207L70.3907 42.396L70.3663 42.3716L67.5379 45.2ZM68.2379 17.55L71.0465 20.3981L71.0688 20.3761L71.0908 20.3537L68.2379 17.55ZM91.9379 17.25L94.7663 14.4216V14.4216L91.9379 17.25ZM92.4879 45.4L89.6373 42.5939L89.6228 42.6086L89.6085 42.6235L92.4879 45.4ZM85.2379 38.8L88.0663 41.6284L88.0992 41.5955L88.1313 41.5619L85.2379 38.8ZM83.1379 23.95L80.2413 26.7086L80.275 26.7439L80.3095 26.7784L83.1379 23.95ZM75.2379 23.95L78.0055 26.8379L78.0733 26.773L78.1379 26.705L75.2379 23.95ZM76.7879 39L73.9937 41.8623L74.0132 41.8813L74.0329 41.9L76.7879 39ZM80.1879 49.8V45.8C75.3472 45.8 72.3389 44.4125 70.4147 42.4207L67.5379 45.2L64.6611 47.9792C68.4369 51.8875 73.7286 53.8 80.1879 53.8V49.8ZM67.5379 45.2L70.3663 42.3716C68.1602 40.1655 66.8379 36.6988 66.8379 32.25H62.8379H58.8379C58.8379 38.2012 60.6156 43.9345 64.7095 48.0284L67.5379 45.2ZM62.8379 32.25H66.8379C66.8379 27.2948 68.413 22.995 71.0465 20.3981L68.2379 17.55L65.4293 14.7019C60.8627 19.205 58.8379 25.8052 58.8379 32.25H62.8379ZM68.2379 17.55L71.0908 20.3537C73.1146 18.2944 75.9502 16.95 80.1879 16.95V12.95V8.95C74.0256 8.95 69.0612 11.0056 65.385 14.7463L68.2379 17.55ZM80.1879 12.95V16.95C84.5568 16.95 87.2778 18.2468 89.1095 20.0784L91.9379 17.25L94.7663 14.4216C91.1979 10.8532 86.319 8.95 80.1879 8.95V12.95ZM91.9379 17.25L89.1095 20.0784C91.7497 22.7187 93.1879 27.0265 93.1879 32.2H97.1879H101.188C101.188 25.7735 99.4261 19.0813 94.7663 14.4216L91.9379 17.25ZM97.1879 32.2H93.1879C93.1879 36.8184 91.854 40.342 89.6373 42.5939L92.4879 45.4L95.3385 48.2061C99.4217 44.058 101.188 38.2816 101.188 32.2H97.1879ZM92.4879 45.4L89.6085 42.6235C87.8519 44.4452 84.959 45.8 80.1879 45.8V49.8V53.8C86.5168 53.8 91.7239 51.9548 95.3673 48.1765L92.4879 45.4ZM80.6879 40.45V44.45C83.2612 44.45 86.0848 43.61 88.0663 41.6284L85.2379 38.8L82.4095 35.9716C82.291 36.09 81.7146 36.45 80.6879 36.45V40.45ZM85.2379 38.8L88.1313 41.5619C90.0315 39.5712 90.8379 37.0064 90.8379 34.3H86.8379H82.8379C82.8379 35.3936 82.5442 35.8288 82.3445 36.0381L85.2379 38.8ZM86.8379 34.3H90.8379C90.8379 32.1889 90.3555 29.7112 89.6014 27.4853C88.8685 25.3218 87.6969 22.8522 85.9663 21.1216L83.1379 23.95L80.3095 26.7784C80.7788 27.2478 81.4573 28.3782 82.0244 30.0522C82.5703 31.6637 82.8379 33.2611 82.8379 34.3H86.8379ZM83.1379 23.95L86.0344 21.1914C84.2991 19.3692 82.0607 18.35 79.3879 18.35V22.35V26.35C79.6759 26.35 79.813 26.3979 79.8756 26.4251C79.94 26.4531 80.0595 26.5177 80.2413 26.7086L83.1379 23.95ZM79.3879 22.35V18.35C76.7978 18.35 74.1743 19.2619 72.3379 21.195L75.2379 23.95L78.1379 26.705C78.2015 26.6381 78.578 26.35 79.3879 26.35V22.35ZM75.2379 23.95L72.4703 21.062C70.2113 23.2269 69.4379 26.2541 69.4379 29.1H73.4379H77.4379C77.4379 27.5459 77.8645 26.9731 78.0055 26.8379L75.2379 23.95ZM73.4379 29.1H69.4379C69.4379 31.1556 69.828 33.5252 70.5115 35.687C71.1689 37.7666 72.2582 40.1681 73.9937 41.8623L76.7879 39L79.582 36.1377C79.2176 35.7819 78.6319 34.8334 78.1393 33.2755C77.6728 31.7998 77.4379 30.2444 77.4379 29.1H73.4379ZM76.7879 39L74.0329 41.9C75.8492 43.6255 78.1177 44.45 80.6879 44.45V40.45V36.45C79.958 36.45 79.7265 36.2745 79.5429 36.1L76.7879 39ZM116.902 41.2L118.012 45.0429L118.05 45.0319L118.088 45.0203L116.902 41.2ZM104.652 36.45L108.315 34.842L108.308 34.8279L108.302 34.8138L104.652 36.45ZM106.252 28.4L109.113 31.195L109.13 31.1777L109.147 31.1603L106.252 28.4ZM114.652 19.8L117.374 22.7312L117.387 22.7188L117.4 22.7063L114.652 19.8ZM135.752 31.45L139.749 31.3072L139.749 31.2997L139.749 31.2922L135.752 31.45ZM130.602 40.7L132.071 36.9794L132.002 36.9524L131.933 36.928L130.602 40.7ZM120.602 27.9L124.601 27.9909L124.601 27.98L120.602 27.9ZM115.902 26.4L113.171 23.4774L113.14 23.5059L113.11 23.5351L115.902 26.4ZM112.502 29.7L108.548 30.3082L108.558 30.3729L108.57 30.4372L112.502 29.7ZM122.602 49.55V45.55C120.853 45.55 119.552 45.5058 118.568 45.4018C117.553 45.2945 117.139 45.1473 117.025 45.094C116.995 45.0798 117.065 45.1083 117.17 45.2071C117.281 45.3119 117.366 45.4338 117.419 45.5398C117.503 45.7087 117.402 45.6339 117.402 44.95H113.402H109.402C109.402 46.2161 109.558 47.6913 110.249 49.0883C111.003 50.6121 112.203 51.6655 113.616 52.331C114.909 52.9402 116.348 53.2117 117.728 53.3575C119.139 53.5067 120.776 53.55 122.602 53.55V49.55ZM113.402 44.95H117.402C117.402 44.7268 117.414 44.5907 117.424 44.5207C117.433 44.452 117.436 44.4713 117.409 44.5495C117.38 44.6335 117.322 44.767 117.217 44.9202C117.11 45.0756 116.987 45.206 116.866 45.3068C116.75 45.4029 116.662 45.4507 116.639 45.4626C116.62 45.4722 116.648 45.4562 116.756 45.4176C116.865 45.3785 117.013 45.3313 117.234 45.2665C117.342 45.2346 117.457 45.2015 117.589 45.1639C117.717 45.1274 117.863 45.0859 118.012 45.0429L116.902 41.2L115.792 37.3571C115.345 37.4862 114.646 37.6755 114.056 37.8871C113.427 38.1124 112.563 38.4799 111.751 39.1557C109.829 40.7539 109.402 42.983 109.402 44.95H113.402ZM116.902 41.2L118.088 45.0203C118.562 44.8731 119.973 44.4936 121.065 43.5924C122.639 42.2952 123.052 40.5498 123.052 39.1H119.052H115.052C115.052 39.1391 115.044 38.8872 115.191 38.5075C115.362 38.0674 115.65 37.6887 115.976 37.4201C116.244 37.1992 116.441 37.1339 116.355 37.1687C116.262 37.206 116.103 37.2598 115.716 37.3797L116.902 41.2ZM119.052 39.1H123.052C123.052 38.3145 122.972 36.1003 120.961 34.7238C120.101 34.1353 119.239 33.9706 118.759 33.909C118.288 33.8486 117.829 33.85 117.602 33.85V37.85V41.85C117.875 41.85 117.848 41.8577 117.742 41.8441C117.627 41.8294 117.066 41.7522 116.443 41.3262C115.725 40.8351 115.341 40.174 115.171 39.6633C115.035 39.2539 115.052 38.9953 115.052 39.1H119.052ZM117.602 37.85V33.85C115.845 33.85 113.931 34.1045 112.345 34.3073C110.631 34.5263 109.202 34.7 107.952 34.7V38.7V42.7C109.802 42.7 111.748 42.4487 113.359 42.2427C115.097 42.0205 116.459 41.85 117.602 41.85V37.85ZM107.952 38.7V34.7C107.789 34.7 107.679 34.6973 107.602 34.6931C107.525 34.689 107.507 34.6848 107.526 34.688C107.549 34.6916 107.622 34.7049 107.727 34.7405C107.835 34.7773 107.961 34.8322 108.091 34.9101C108.222 34.9879 108.328 35.0719 108.409 35.1484C108.488 35.2225 108.53 35.2773 108.541 35.2914C108.55 35.3039 108.532 35.281 108.49 35.2046C108.448 35.1283 108.389 35.0117 108.315 34.842L104.652 36.45L100.989 38.058C101.551 39.3366 102.4 40.8288 103.988 41.7774C105.535 42.702 107.15 42.7 107.952 42.7V38.7ZM104.652 36.45L108.302 34.8138C107.919 33.9599 107.789 33.4285 107.749 33.1305C107.73 32.9888 107.733 32.9067 107.735 32.87C107.738 32.8357 107.743 32.8202 107.745 32.8112C107.75 32.7961 107.787 32.682 108 32.4079C108.239 32.1001 108.563 31.7586 109.113 31.195L106.252 28.4L103.39 25.605C102.479 26.5377 100.84 28.1266 100.121 30.3888C99.3243 32.8963 99.819 35.4474 101.002 38.0862L104.652 36.45ZM106.252 28.4L109.147 31.1603C111.247 28.9575 116.087 23.9257 117.374 22.7312L114.652 19.8L111.93 16.8688C110.417 18.2743 105.357 23.5425 103.357 25.6397L106.252 28.4ZM114.652 19.8L117.4 22.7063C120.008 20.2404 121.128 18.9786 122.46 18.0486C123.402 17.3912 124.342 17 126.252 17V13V9C122.812 9 120.252 9.8338 117.881 11.4889C115.901 12.8714 113.896 15.0096 111.904 16.8937L114.652 19.8ZM126.252 13V17C126.783 17 127.149 17.0319 127.395 17.0777C127.642 17.1236 127.637 17.1601 127.519 17.0842C127.453 17.0422 127.368 16.9758 127.284 16.8818C127.199 16.787 127.141 16.6927 127.105 16.6175C127.035 16.4714 127.102 16.5075 127.102 16.9H131.102H135.102C135.102 14.2495 134.133 11.8151 131.823 10.3408C129.912 9.12086 127.69 9 126.252 9V13ZM131.102 16.9H127.102C127.102 17.7056 126.934 19.0821 126.703 21.1091C126.493 22.951 126.252 25.1908 126.252 27.2H130.252H134.252C134.252 25.7092 134.436 23.899 134.651 22.0159C134.845 20.3179 135.102 18.2944 135.102 16.9H131.102ZM130.252 27.2H126.252C126.252 27.6252 126.264 28.2321 126.385 28.8485C126.51 29.4918 126.825 30.5373 127.746 31.4316C128.673 32.3321 129.727 32.6068 130.34 32.7078C130.905 32.8008 131.463 32.8 131.752 32.8V28.8V24.8C131.416 24.8 131.474 24.7867 131.64 24.8141C131.855 24.8494 132.612 25.0054 133.32 25.6934C134.022 26.3752 134.197 27.1145 134.237 27.3171C134.271 27.4928 134.252 27.5248 134.252 27.2H130.252ZM131.752 28.8V32.8C132.77 32.8 133.614 32.7043 134.062 32.6618C134.321 32.6373 134.38 32.6365 134.374 32.6365C134.37 32.6365 134.074 32.6425 133.661 32.5106C133.439 32.4397 133.185 32.3301 132.925 32.1638C132.663 31.9961 132.435 31.7966 132.245 31.5802C131.874 31.1579 131.735 30.7711 131.695 30.6474C131.657 30.5278 131.671 30.5202 131.694 30.7191C131.717 30.9054 131.738 31.1872 131.755 31.6078L135.752 31.45L139.749 31.2922C139.711 30.3404 139.635 29.2124 139.318 28.2183C139.142 27.6679 138.835 26.9616 138.257 26.303C137.636 25.5953 136.875 25.1388 136.093 24.8894C134.869 24.4986 133.599 24.6699 133.307 24.6975C132.733 24.7519 132.309 24.8 131.752 24.8V28.8ZM135.752 31.45L131.755 31.5928C131.802 32.9109 131.768 33.7289 131.699 34.231C131.627 34.7552 131.56 34.5949 131.816 34.2481C131.96 34.0536 132.151 33.8751 132.367 33.7395C132.571 33.6119 132.728 33.5662 132.767 33.5559C132.798 33.5478 132.749 33.5636 132.569 33.5779C132.39 33.592 132.148 33.6 131.802 33.6V37.6V41.6C133.122 41.6 136.287 41.6588 138.25 39.0019C139.125 37.8176 139.467 36.4697 139.625 35.3159C139.786 34.1398 139.802 32.7891 139.749 31.3072L135.752 31.45ZM131.802 37.6V33.6C131.474 33.6 130.935 33.5928 130.486 33.61C130.039 33.6271 129.311 33.6744 128.546 33.9133C127.708 34.1754 126.646 34.7261 125.867 35.8539C125.12 36.9359 124.952 38.0902 124.952 38.95H128.952H132.952C132.952 39.0848 132.928 39.7079 132.449 40.4007C131.939 41.1395 131.271 41.4433 130.933 41.5492C130.668 41.6319 130.546 41.6135 130.792 41.6041C131.037 41.5947 131.28 41.6 131.802 41.6V37.6ZM128.952 38.95H124.952C124.952 40.6438 125.628 42.1542 126.891 43.2115C127.849 44.0125 128.984 44.3708 129.271 44.472L130.602 40.7L131.933 36.928C131.828 36.8908 131.761 36.8669 131.706 36.8459C131.653 36.8258 131.635 36.8177 131.639 36.8192C131.643 36.821 131.684 36.8397 131.748 36.8777C131.812 36.9162 131.911 36.9803 132.025 37.076C132.272 37.2825 132.543 37.5945 132.733 38.0134C132.918 38.4216 132.952 38.7667 132.952 38.95H128.952ZM130.602 40.7L129.133 44.4206C129.437 44.5406 129.581 44.6244 129.632 44.6585C129.672 44.6843 129.608 44.6486 129.522 44.5354C129.482 44.4818 129.448 44.4253 129.421 44.3712C129.395 44.3178 129.383 44.28 129.379 44.2665C129.373 44.2445 129.402 44.3343 129.402 44.6H133.402H137.402C137.402 42.9614 137.052 41.2314 135.907 39.7146C134.809 38.261 133.331 37.4768 132.071 36.9794L130.602 40.7ZM133.402 44.6H129.402C129.402 45.1973 129.306 45.2459 129.392 45.0855C129.524 44.84 129.692 44.7935 129.514 44.8763C129.249 45.0003 128.643 45.1947 127.427 45.3386C126.238 45.4793 124.671 45.55 122.602 45.55V49.55V53.55C126.787 53.55 130.355 53.3141 132.902 52.1237C134.356 51.444 135.621 50.3975 136.442 48.8676C137.217 47.4229 137.402 45.9027 137.402 44.6H133.402ZM117.702 30.15V34.15C118.389 34.15 119.155 34.1508 119.794 34.0897C120.331 34.0383 121.662 33.8903 122.824 32.9183C124.161 31.8006 124.434 30.3422 124.518 29.6831C124.592 29.0985 124.593 28.3482 124.601 27.9909L120.602 27.9L116.603 27.8091C116.595 28.145 116.594 28.3084 116.588 28.5049C116.582 28.6852 116.577 28.7137 116.581 28.6763C116.586 28.6433 116.618 28.3807 116.766 28.0287C116.935 27.6265 117.229 27.1689 117.692 26.7817C118.129 26.4163 118.548 26.2552 118.775 26.1871C118.984 26.1242 119.102 26.1194 119.033 26.126C118.974 26.1316 118.848 26.1395 118.606 26.1444C118.368 26.1491 118.08 26.15 117.702 26.15V30.15ZM120.602 27.9L124.601 27.98C124.627 26.6771 124.655 25.8797 124.674 25.0187C124.689 24.304 124.7 23.5474 124.642 22.9099C124.601 22.463 124.467 20.9175 123.228 19.7017C121.862 18.3611 120.176 18.4 119.852 18.4V22.4V26.4C119.844 26.4 119.782 26.4 119.688 26.3918C119.594 26.3836 119.433 26.3645 119.23 26.3144C118.789 26.2054 118.177 25.9534 117.624 25.4108C117.097 24.8937 116.867 24.3492 116.77 24.0496C116.681 23.7728 116.671 23.5962 116.675 23.6401C116.685 23.7526 116.693 24.0585 116.676 24.8438C116.662 25.4828 116.627 26.6229 116.603 27.82L120.602 27.9ZM119.852 22.4V18.4C118.315 18.4 117.247 19.1382 116.654 19.6866C116.217 20.0897 115.808 20.6177 115.644 20.8214C115.187 21.388 114.506 22.2298 113.171 23.4774L115.902 26.4L118.633 29.3226C120.348 27.7202 121.292 26.562 121.873 25.8411C122.017 25.6623 122.091 25.5703 122.151 25.4995C122.213 25.426 122.178 25.4739 122.083 25.5618C121.984 25.654 121.725 25.8784 121.314 26.0723C120.859 26.287 120.355 26.4 119.852 26.4V22.4ZM115.902 26.4L113.11 23.5351C112.298 24.3265 111.634 24.8223 110.9 25.4229C110.607 25.663 110.091 26.0879 109.661 26.5958C109.296 27.0282 108.251 28.3743 108.548 30.3082L112.502 29.7L116.455 29.0918C116.577 29.8847 116.415 30.5562 116.222 31.0101C116.047 31.4239 115.84 31.6787 115.772 31.7589C115.696 31.8494 115.657 31.8798 115.708 31.8335C115.753 31.7918 115.831 31.7248 115.966 31.6146C116.47 31.2027 117.556 30.3735 118.693 29.2649L115.902 26.4ZM112.502 29.7L108.57 30.4372C108.594 30.5642 108.819 32.2942 110.426 33.4014C111.129 33.8861 111.821 34.0587 112.234 34.1321C112.645 34.2053 113.022 34.2198 113.265 34.2243C113.728 34.2329 114.37 34.2081 114.98 34.1905C115.66 34.1709 116.541 34.15 117.702 34.15V30.15V26.15C116.438 26.15 115.475 26.1729 114.749 26.1939C113.953 26.2169 113.626 26.2296 113.414 26.2257C113.32 26.2239 113.432 26.2197 113.635 26.2558C113.839 26.2921 114.378 26.4093 114.966 26.8142C115.63 27.272 116.023 27.8626 116.234 28.3463C116.326 28.5569 116.376 28.7279 116.4 28.819C116.413 28.8673 116.421 28.9048 116.426 28.927C116.431 28.9492 116.433 28.9626 116.433 28.9628L112.502 29.7Z" fill="#1423BA" mask="url(#path-1-outside-1_164_2956)"/>
</svg>
