<svg width="50" height="60" viewBox="0 0 50 60" fill="none" xmlns="http://www.w3.org/2000/svg">
<mask id="path-1-outside-1_306_2467" maskUnits="userSpaceOnUse" x="-0.0078125" y="-0.984375" width="50" height="61" fill="black">
<rect fill="white" x="-0.0078125" y="-0.984375" width="50" height="61"/>
<path d="M25.6482 53.4876C20.3362 53.4876 15.5362 51.5676 12.0162 47.9836C8.30419 44.1436 6.00019 38.3196 6.00019 30.7676C6.00019 21.7436 8.62419 14.9596 12.7842 10.7996C15.9842 7.59962 20.0162 5.99962 24.4322 5.99962C28.3362 6.06362 30.8962 7.47162 32.4322 8.75162C33.9682 10.0316 34.0322 10.7996 34.8642 10.7996C36.3362 10.7996 34.4802 6.57562 37.9362 6.57562C40.1122 6.57562 40.1762 7.72762 42.0322 11.2476C42.9282 12.9116 43.4402 14.4476 43.4402 15.7276C43.4402 18.2876 41.3922 19.1836 39.1522 19.2476C37.2962 19.3116 36.5282 18.2876 34.6082 15.9836C32.3042 13.2316 30.2562 11.3116 25.4562 11.3116C21.6162 11.3116 18.6082 12.3356 16.4962 14.5756C14.0002 17.0716 12.7202 21.1036 12.7202 26.7356C12.7202 28.2076 12.7842 29.2956 13.5522 29.2956C14.3842 29.2956 14.7042 28.3356 16.8162 26.2236C18.8002 24.2396 22.0002 22.0636 27.1842 22.0636C31.6002 22.0636 35.4402 23.6636 38.1922 26.4156C40.9442 29.1676 42.6082 33.0076 42.6082 37.6156C42.6082 42.2236 40.9442 45.9356 38.3202 48.6236C35.1842 51.7596 30.6402 53.4876 25.6482 53.4876ZM27.1842 47.9196C30.1922 47.9196 32.6242 47.0236 34.2242 45.4236C35.6962 43.8876 36.5282 41.6476 36.5282 38.7676C36.5282 35.7596 35.4402 33.0076 33.3282 30.8956C31.4722 28.9756 28.8482 27.6956 25.5842 27.6956C22.5762 27.6956 19.7602 28.7196 17.4562 31.0876C15.7282 32.8156 14.5122 34.7356 14.5122 36.7196C14.5122 39.7916 15.7922 41.9036 18.3522 44.4636C20.6562 46.7676 23.7282 47.9196 27.1842 47.9196Z"/>
</mask>
<path d="M12.0162 47.9836L7.70226 52.1538L7.71881 52.1709L7.7355 52.1879L12.0162 47.9836ZM12.7842 10.7996L8.54155 6.55698L8.54155 6.55698L12.7842 10.7996ZM24.4322 5.99962L24.5305 0.0004282L24.4814 -0.000377655H24.4322V5.99962ZM32.4322 8.75162L36.2733 4.1423L36.2733 4.14229L32.4322 8.75162ZM42.0322 11.2476L36.7248 14.0461L36.737 14.0692L36.7494 14.0922L42.0322 11.2476ZM39.1522 19.2476L38.9808 13.2501L38.9631 13.2506L38.9454 13.2512L39.1522 19.2476ZM34.6082 15.9836L39.2175 12.1425L39.2087 12.132L34.6082 15.9836ZM16.4962 14.5756L20.7388 18.8183L20.8012 18.7559L20.8617 18.6917L16.4962 14.5756ZM16.8162 26.2236L12.5735 21.981L12.5735 21.981L16.8162 26.2236ZM38.1922 26.4156L33.9495 30.6583L33.9496 30.6583L38.1922 26.4156ZM38.3202 48.6236L42.5628 52.8663L42.5884 52.8407L42.6136 52.8148L38.3202 48.6236ZM34.2242 45.4236L38.4668 49.6663L38.512 49.6211L38.5561 49.5751L34.2242 45.4236ZM33.3282 30.8956L29.0143 35.0658L29.0496 35.1023L29.0855 35.1383L33.3282 30.8956ZM17.4562 31.0876L21.6988 35.3303L21.7279 35.3012L21.7565 35.2718L17.4562 31.0876ZM18.3522 44.4636L14.1095 48.7063L18.3522 44.4636ZM25.6482 53.4876V47.4876C21.82 47.4876 18.6032 46.1277 16.2969 43.7794L12.0162 47.9836L7.7355 52.1879C12.4691 57.0076 18.8524 59.4876 25.6482 59.4876V53.4876ZM12.0162 47.9836L16.3301 43.8135C13.9151 41.3152 12.0002 37.1038 12.0002 30.7676H6.00019H0.000187635C0.000187635 39.5354 2.6933 46.9721 7.70226 52.1538L12.0162 47.9836ZM6.00019 30.7676H12.0002C12.0002 22.8319 14.3038 17.7653 17.0268 15.0423L12.7842 10.7996L8.54155 6.55698C2.94457 12.154 0.000187635 20.6554 0.000187635 30.7676H6.00019ZM12.7842 10.7996L17.0268 15.0423C19.0701 12.999 21.5624 11.9996 24.4322 11.9996V5.99962V-0.000377655C18.47 -0.000377655 12.8983 2.20028 8.54155 6.55698L12.7842 10.7996ZM24.4322 5.99962L24.3338 11.9988C26.7057 12.0377 27.9754 12.8479 28.5911 13.361L32.4322 8.75162L36.2733 4.14229C33.8169 2.09534 29.9667 0.0895443 24.5305 0.0004282L24.4322 5.99962ZM32.4322 8.75162L28.5911 13.3609C28.9209 13.6358 28.9551 13.7086 29.4221 14.2355C29.6068 14.4439 30.2275 15.1583 31.1661 15.7457C32.3228 16.4696 33.5977 16.7996 34.8642 16.7996V10.7996V4.79962C35.2297 4.79962 35.6866 4.84289 36.1936 4.98412C36.7084 5.12748 37.1578 5.33919 37.5323 5.57357C37.8879 5.7961 38.1317 6.0116 38.2567 6.12979C38.3741 6.24085 38.4367 6.31458 38.4023 6.27578C38.3477 6.21421 38.3357 6.19863 38.1871 6.02753C38.071 5.8939 37.9164 5.71815 37.7313 5.51958C37.3504 5.11115 36.8769 4.64534 36.2733 4.1423L32.4322 8.75162ZM34.8642 10.7996V16.7996C35.6866 16.7996 36.6305 16.6485 37.5847 16.215C38.5483 15.7773 39.3079 15.149 39.8741 14.4739C40.9027 13.2475 41.2248 11.9487 41.3394 11.4271C41.4705 10.8304 41.5226 10.2616 41.5441 10.0392C41.5769 9.6988 41.5827 9.62785 41.595 9.54245C41.6317 9.28741 41.5801 10.172 40.7859 11.1108C40.3352 11.6435 39.7612 12.0584 39.1404 12.3119C38.5572 12.55 38.1069 12.5756 37.9362 12.5756V6.57562V0.575623C36.9015 0.575623 35.7532 0.733205 34.6042 1.20232C33.4177 1.68681 32.4101 2.43172 31.6244 3.36049C30.1602 5.09129 29.8327 7.03184 29.7174 7.8328C29.6537 8.27539 29.6144 8.73244 29.5995 8.88701C29.5732 9.15964 29.5748 9.05288 29.6189 8.85215C29.6466 8.7265 29.8451 7.75772 30.68 6.76235C31.1493 6.20278 31.7945 5.66515 32.6219 5.28934C33.4399 4.91778 34.2258 4.79962 34.8642 4.79962V10.7996ZM37.9362 6.57562V12.5756C37.9924 12.5756 37.4136 12.5911 36.6456 12.224C36.2585 12.0389 35.9298 11.8074 35.6679 11.5698C35.4201 11.3451 35.2756 11.1544 35.2218 11.0791C35.1724 11.01 35.1772 11.0061 35.246 11.1303C35.3146 11.2541 35.4062 11.4306 35.5468 11.7123C35.8041 12.2276 36.2193 13.0875 36.7248 14.0461L42.0322 11.2476L47.3396 8.44917C46.917 7.64778 46.6283 7.04361 46.2835 6.35291C45.9987 5.78238 45.5582 4.90444 44.9866 4.10419C44.3355 3.1926 43.3428 2.12478 41.8208 1.39728C40.3707 0.704142 38.968 0.575623 37.9362 0.575623V6.57562ZM42.0322 11.2476L36.7494 14.0922C37.065 14.6783 37.2535 15.1339 37.3562 15.4559C37.4628 15.7897 37.4402 15.8643 37.4402 15.7276H43.4402H49.4402C49.4402 13.0066 48.4098 10.4362 47.315 8.40303L42.0322 11.2476ZM43.4402 15.7276H37.4402C37.4402 15.552 37.4804 15.1319 37.7404 14.6222C38.0038 14.1058 38.373 13.7329 38.7054 13.5012C39.0098 13.2891 39.2278 13.2314 39.2447 13.227C39.2647 13.2218 39.1822 13.2443 38.9808 13.2501L39.1522 19.2476L39.3235 25.2452C41.0399 25.1961 43.4356 24.8315 45.5669 23.346C48.0373 21.6242 49.4402 18.8847 49.4402 15.7276H43.4402ZM39.1522 19.2476L38.9454 13.2512C39.065 13.2471 39.4102 13.2554 39.8547 13.406C40.2984 13.5563 40.5805 13.7603 40.6729 13.8349C40.7238 13.876 40.6466 13.8216 40.3593 13.4971C40.2254 13.3459 40.0698 13.1637 39.8752 12.9317C39.6745 12.6925 39.4739 12.4502 39.2175 12.1425L34.6082 15.9836L29.9989 19.8247C30.7369 20.7103 31.8852 22.163 33.1355 23.1723C34.8927 24.5908 36.9522 25.327 39.359 25.2441L39.1522 19.2476ZM34.6082 15.9836L39.2087 12.132C37.9963 10.6839 36.3569 8.82515 34.0116 7.44478C31.5261 5.98189 28.7198 5.31162 25.4562 5.31162V11.3116V17.3116C26.9926 17.3116 27.6103 17.6014 27.9248 17.7865C28.3795 18.0541 28.916 18.5314 30.0076 19.8352L34.6082 15.9836ZM25.4562 11.3116V5.31162C20.5559 5.31162 15.727 6.64526 12.1307 10.4595L16.4962 14.5756L20.8617 18.6917C21.4894 18.026 22.6765 17.3116 25.4562 17.3116V11.3116ZM16.4962 14.5756L12.2535 10.333C8.14165 14.4449 6.72019 20.3756 6.72019 26.7356H12.7202H18.7202C18.7202 21.8316 19.8587 19.6984 20.7388 18.8183L16.4962 14.5756ZM12.7202 26.7356H6.72019C6.72019 27.3238 6.70554 28.7129 7.02137 29.9988C7.18741 30.6748 7.58651 31.9632 8.66497 33.1457C9.95446 34.5596 11.7312 35.2956 13.5522 35.2956V29.2956V23.2956C14.1787 23.2956 14.9191 23.4101 15.6826 23.7411C16.4511 24.0743 17.0677 24.5511 17.5314 25.0595C18.3819 25.9921 18.621 26.9164 18.675 27.1365C18.7447 27.4204 18.7409 27.5594 18.732 27.4077C18.7247 27.2813 18.7202 27.0815 18.7202 26.7356H12.7202ZM13.5522 29.2956V35.2956C16.923 35.2956 18.8336 32.9372 19.1886 32.5378C19.8576 31.7853 20.1658 31.3593 21.0588 30.4663L16.8162 26.2236L12.5735 21.981C11.3546 23.2 10.4468 24.31 10.2197 24.5654C10.1524 24.6412 10.1631 24.625 10.2214 24.5686C10.2799 24.512 10.4547 24.3476 10.731 24.1588C11.023 23.9593 11.4386 23.7251 11.9728 23.5497C12.5184 23.3706 13.057 23.2956 13.5522 23.2956V29.2956ZM16.8162 26.2236L21.0588 30.4663C22.2025 29.3226 23.9536 28.0636 27.1842 28.0636V22.0636V16.0636C20.0468 16.0636 15.3979 19.1567 12.5735 21.981L16.8162 26.2236ZM27.1842 22.0636V28.0636C30.1094 28.0636 32.3919 29.1006 33.9495 30.6583L38.1922 26.4156L42.4348 22.173C38.4885 18.2266 33.091 16.0636 27.1842 16.0636V22.0636ZM38.1922 26.4156L33.9496 30.6583C35.5246 32.2334 36.6082 34.5243 36.6082 37.6156H42.6082H48.6082C48.6082 31.4909 46.3637 26.1019 42.4348 22.173L38.1922 26.4156ZM42.6082 37.6156H36.6082C36.6082 40.6784 35.5421 42.8801 34.0267 44.4324L38.3202 48.6236L42.6136 52.8148C46.3463 48.9911 48.6082 43.7689 48.6082 37.6156H42.6082ZM38.3202 48.6236L34.0776 44.381C32.2268 46.2317 29.2905 47.4876 25.6482 47.4876V53.4876V59.4876C31.9899 59.4876 38.1416 57.2875 42.5628 52.8663L38.3202 48.6236ZM27.1842 47.9196V53.9196C31.336 53.9196 35.4604 52.6727 38.4668 49.6663L34.2242 45.4236L29.9815 41.181C29.788 41.3746 29.0484 41.9196 27.1842 41.9196V47.9196ZM34.2242 45.4236L38.5561 49.5751C41.3421 46.668 42.5282 42.8029 42.5282 38.7676H36.5282H30.5282C30.5282 40.4924 30.0503 41.1073 29.8923 41.2722L34.2242 45.4236ZM36.5282 38.7676H42.5282C42.5282 34.2478 40.863 29.9452 37.5708 26.653L33.3282 30.8956L29.0855 35.1383C30.0173 36.0701 30.5282 37.2714 30.5282 38.7676H36.5282ZM33.3282 30.8956L37.6421 26.7255C34.6964 23.6782 30.5325 21.6956 25.5842 21.6956V27.6956V33.6956C27.1639 33.6956 28.248 34.2731 29.0143 35.0658L33.3282 30.8956ZM25.5842 27.6956V21.6956C21.0981 21.6956 16.6846 23.2767 13.1558 26.9035L17.4562 31.0876L21.7565 35.2718C22.8358 34.1625 24.0542 33.6956 25.5842 33.6956V27.6956ZM17.4562 31.0876L13.2135 26.845C11.128 28.9306 8.51219 32.3151 8.51219 36.7196H14.5122H20.5122C20.5122 36.9778 20.4307 36.9946 20.5916 36.7026C20.7603 36.3963 21.0993 35.9298 21.6988 35.3303L17.4562 31.0876ZM14.5122 36.7196H8.51219C8.51219 42.0522 11.0079 45.6046 14.1095 48.7063L18.3522 44.4636L22.5948 40.221C20.5765 38.2026 20.5122 37.531 20.5122 36.7196H14.5122ZM18.3522 44.4636L14.1095 48.7063C17.6778 52.2745 22.3449 53.9196 27.1842 53.9196V47.9196V41.9196C25.1115 41.9196 23.6346 41.2607 22.5948 40.221L18.3522 44.4636Z" fill="#1423BA" mask="url(#path-1-outside-1_306_2467)"/>
</svg>
