<svg width="47" height="47" viewBox="0 0 47 47" fill="none" xmlns="http://www.w3.org/2000/svg">
<g clip-path="url(#clip0_446_934)">
<path d="M35.4339 26.1205L23.059 38.4314L10.6841 26.1205C10.5381 26.0094 10.4177 25.8681 10.3311 25.7063C10.2444 25.5446 10.1935 25.3661 10.1818 25.1829C10.1701 24.9998 10.1979 24.8163 10.2633 24.6448C10.3287 24.4733 10.4302 24.3179 10.5609 24.1891C10.6916 24.0602 10.8484 23.961 11.0208 23.898C11.1932 23.8351 11.3771 23.8099 11.5601 23.8242C11.743 23.8385 11.9208 23.892 12.0813 23.9809C12.2418 24.0699 12.3813 24.1923 12.4904 24.3399L21.778 33.5506L21.778 9.0442C21.778 8.70444 21.913 8.3786 22.1532 8.13836C22.3934 7.89812 22.7193 7.76315 23.059 7.76315C23.3988 7.76315 23.7246 7.89812 23.9649 8.13836C24.2051 8.3786 24.3401 8.70444 24.3401 9.0442L24.3401 33.5506L33.6277 24.3399C33.8689 24.1004 34.1954 23.9665 34.5353 23.9677C34.8753 23.9689 35.2008 24.1051 35.4403 24.3463C35.6799 24.5875 35.8138 24.914 35.8126 25.254C35.8114 25.5939 35.6752 25.9194 35.4339 26.159V26.1205Z" fill="#1F266D"/>
</g>
<defs>
<clipPath id="clip0_446_934">
<rect width="46.1176" height="46.1176" fill="white" transform="matrix(1 0 0 -1 0 46.1177)"/>
</clipPath>
</defs>
</svg>
