<svg width="1280" height="1081" viewBox="0 0 1280 1081" fill="none" xmlns="http://www.w3.org/2000/svg">
<path d="M-264.955 194.303C-271.949 194.303 -275.057 191 -283.605 191H-346.744C-361.121 191 -365.978 191.971 -366.172 181.286C-366.366 174.875 -362.481 174.098 -355.292 171.184C-348.881 168.659 -349.27 165.55 -348.687 155.642C-347.716 141.849 -348.104 104.937 -348.493 90.7547C-348.687 79.8754 -349.853 77.1556 -354.515 75.9899C-359.566 73.8529 -366.56 73.6586 -366.56 65.4991C-366.56 55.9797 -362.092 54.2312 -351.213 54.2312C-333.34 54.2312 -302.061 55.0083 -285.548 54.8141C-277.971 54.8141 -274.863 52.2885 -268.841 52.2885C-261.07 52.2885 -258.35 54.6198 -252.133 70.7445C-248.83 79.4868 -246.693 85.5093 -246.693 89.7834C-246.693 96.1944 -250.579 99.1085 -256.796 99.3028C-262.624 99.3028 -265.149 95.8058 -271.56 83.5666C-277 73.4644 -278.36 73.4644 -305.558 73.4644C-324.986 73.4644 -324.209 72.6873 -324.209 97.1658C-324.209 116.787 -325.957 114.262 -307.113 114.262C-295.068 114.262 -294.096 114.262 -293.902 107.268C-293.513 100.468 -292.736 97.7486 -285.937 97.7486C-280.303 97.7486 -278.943 103.771 -276.806 113.873C-273.115 131.941 -272.532 142.237 -281.468 142.82C-287.879 143.403 -289.434 140.683 -291.959 134.661C-294.096 128.638 -295.456 129.027 -306.724 129.027C-325.569 129.027 -323.82 128.638 -323.82 150.203C-323.82 173.71 -326.151 172.155 -295.65 172.155C-275.834 172.155 -274.086 171.767 -270.395 160.499C-266.121 147.871 -264.567 143.986 -258.156 143.986C-250.579 143.986 -247.47 146.9 -247.47 154.088C-247.47 158.751 -249.413 165.162 -251.356 173.71C-255.241 190.029 -256.213 194.303 -264.955 194.303ZM-209.712 192.36C-223.894 192.36 -232.442 193.137 -232.442 183.812C-232.442 174.875 -227.39 173.321 -221.368 170.796C-215.346 168.659 -211.654 161.859 -200.386 145.346C-190.478 130.969 -185.622 126.307 -185.622 122.033C-185.622 117.759 -189.119 112.708 -199.804 98.7199C-213.208 81.2353 -214.18 76.5727 -222.145 74.63C-226.225 73.4644 -231.665 73.4644 -231.665 65.6934C-231.665 54.4255 -223.894 54.6198 -200.581 54.6198C-172.605 54.4255 -166.389 55.0083 -166.389 64.722C-166.389 71.5216 -171.634 71.3273 -176.102 72.8815C-184.067 75.7956 -181.542 77.5441 -171.245 91.9204C-162.309 104.354 -160.755 106.297 -158.035 106.297C-155.121 106.297 -153.761 102.217 -144.241 91.7261C-131.808 78.1269 -130.059 74.2415 -137.053 72.493C-142.881 70.9388 -146.961 70.1617 -146.961 64.1392C-146.961 55.0083 -139.773 54.6198 -115.877 54.6198C-98.9755 54.6198 -94.5072 55.3969 -94.5072 62.7793C-94.5072 70.356 -98.587 71.9102 -104.998 73.6586C-111.992 75.4071 -112.575 80.2639 -129.671 99.497C-142.881 114.262 -144.824 116.01 -144.824 119.313C-144.824 123.004 -140.744 127.084 -126.757 146.511C-111.603 167.493 -111.603 169.241 -103.638 171.767C-99.1698 173.321 -95.09 174.681 -95.09 182.063C-95.09 193.137 -104.609 192.36 -126.757 192.36C-151.235 192.36 -158.035 191.777 -158.035 182.841C-158.035 176.429 -154.149 175.652 -147.933 173.71C-141.716 171.767 -144.047 168.659 -157.063 151.368C-167.554 137.186 -167.748 135.438 -170.663 135.438C-174.548 135.438 -174.742 139.323 -183.873 152.728C-195.335 169.241 -196.501 171.573 -189.896 173.904C-185.427 175.458 -179.793 176.041 -179.793 182.646C-179.793 191.971 -185.233 192.36 -209.712 192.36ZM-53.5564 192.554C-80.7548 192.36 -83.4746 191 -83.4746 180.703C-83.4746 175.07 -79.5891 173.127 -73.1781 170.601C-67.3499 168.076 -65.6014 167.299 -65.6014 143.403V90.949C-65.6014 82.4009 -65.9899 79.6811 -74.538 77.7384C-80.3662 76.3785 -84.6402 74.8243 -84.6402 67.0533C-84.6402 57.1454 -82.5032 55.0083 -69.2926 55.0083C-57.6362 55.0083 -31.2149 54.8141 -14.5074 54.8141C21.6275 54.8141 38.5294 66.859 38.7236 94.8345C38.9179 122.421 22.5989 140.1 -12.3704 139.906C-40.7343 139.712 -40.5401 140.1 -40.7343 150.397C-40.9286 165.55 -41.3172 168.27 -31.4092 170.601C-20.9184 172.933 -18.5871 174.875 -18.5871 180.703C-18.5871 191.194 -24.2211 192.554 -53.5564 192.554ZM-13.1475 120.867C5.50282 120.867 12.3024 116.01 12.3024 102.023C12.4967 84.538 0.451698 74.8243 -20.9184 74.8243C-45.7855 74.8243 -41.3172 73.0758 -41.1229 96.7772C-40.9286 123.393 -44.6198 120.867 -13.1475 120.867ZM151.292 194.303C144.298 194.303 141.189 191 132.641 191H69.5024C55.1261 191 50.2693 191.971 50.075 181.286C49.8807 174.875 53.7662 174.098 60.9543 171.184C67.3653 168.659 66.9768 165.55 67.5596 155.642C68.531 141.849 68.1424 104.937 67.7539 90.7547C67.5596 79.8754 66.394 77.1556 61.7314 75.9899C56.6803 73.8529 49.6864 73.6586 49.6864 65.4991C49.6864 55.9797 54.1547 54.2312 65.0341 54.2312C82.9073 54.2312 114.185 55.0083 130.699 54.8141C138.275 54.8141 141.384 52.2885 147.406 52.2885C155.177 52.2885 157.897 54.6198 164.114 70.7445C167.416 79.4868 169.553 85.5093 169.553 89.7834C169.553 96.1944 165.668 99.1085 159.451 99.3028C153.623 99.3028 151.097 95.8058 144.686 83.5666C139.247 73.4644 137.887 73.4644 110.688 73.4644C91.261 73.4644 92.0381 72.6873 92.0381 97.1658C92.0381 116.787 90.2897 114.262 109.134 114.262C121.179 114.262 122.151 114.262 122.345 107.268C122.733 100.468 123.51 97.7486 130.31 97.7486C135.944 97.7486 137.304 103.771 139.441 113.873C143.132 131.941 143.715 142.237 134.778 142.82C128.367 143.403 126.813 140.683 124.288 134.661C122.151 128.638 120.791 129.027 109.523 129.027C90.6782 129.027 92.4267 128.638 92.4267 150.203C92.4267 173.71 90.0954 172.155 120.596 172.155C140.412 172.155 142.161 171.767 145.852 160.499C150.126 147.871 151.68 143.986 158.091 143.986C165.668 143.986 168.776 146.9 168.776 154.088C168.776 158.751 166.834 165.162 164.891 173.71C161.005 190.029 160.034 194.303 151.292 194.303ZM297.261 192.748C279.582 192.748 269.674 185.172 263.457 155.448C259.572 136.992 254.132 133.689 240.922 133.689C226.351 133.689 227.322 132.912 227.322 151.174C227.322 168.27 226.74 169.241 235.871 171.573C242.67 174.098 244.03 176.624 243.836 181.481C243.641 189.252 236.648 191.194 215.083 191.194C190.799 191.194 184.777 191 184.777 180.315C184.582 174.875 188.273 173.515 196.239 170.601C201.678 168.464 202.455 166.522 203.038 155.448C203.815 139.712 203.427 106.491 203.038 91.7261C202.65 80.0697 202.261 77.3498 197.016 75.4071C190.41 73.0758 183.999 73.8529 183.999 67.0533C183.999 57.5339 187.302 54.037 197.987 54.4255C214.112 55.2026 238.785 54.8141 261.126 54.8141C289.879 54.8141 307.752 64.3335 307.752 90.3662C307.752 107.851 297.261 119.896 278.805 124.364C275.114 125.53 272.977 125.918 272.977 127.667C272.977 129.998 275.114 129.415 280.748 132.524C286.382 135.826 290.073 141.266 292.21 149.231C296.678 164.967 300.175 169.63 305.809 169.63C314.94 169.63 311.054 160.499 316.688 159.722C319.797 159.333 320.962 161.47 320.962 164.384C321.351 180.315 313.191 192.748 297.261 192.748ZM251.607 117.37C274.531 117.37 280.748 108.628 280.748 96.3887C280.748 81.6239 272.005 73.2701 250.247 73.2701C223.631 73.2701 227.128 71.1331 227.128 97.7486C227.128 119.313 224.797 117.565 251.607 117.37ZM360.779 191.194C334.941 191.389 330.473 191.389 330.473 181.675C330.473 176.235 333.387 173.904 340.964 171.184C346.986 169.241 349.317 167.104 349.317 152.728V93.4746C349.317 78.904 347.375 76.5727 341.352 75.0185C334.941 73.4644 330.473 73.0758 330.473 65.4991C330.473 54.4255 334.941 54.4255 361.751 54.4255C388.755 54.6198 393.612 54.4255 393.612 63.1678C393.612 69.3846 390.892 71.3273 383.509 74.4357C376.71 77.1556 374.767 78.904 374.767 94.2516V154.088C374.767 166.327 376.321 168.659 382.732 170.796C388.172 172.544 393.029 173.321 393.029 180.509C393.029 191.389 388.755 191.194 360.779 191.194ZM505.879 194.303C498.885 194.303 495.777 191 487.229 191H424.09C409.714 191 404.857 191.971 404.663 181.286C404.468 174.875 408.354 174.098 415.542 171.184C421.953 168.659 421.564 165.55 422.147 155.642C423.119 141.849 422.73 104.937 422.341 90.7547C422.147 79.8754 420.982 77.1556 416.319 75.9899C411.268 73.8529 404.274 73.6586 404.274 65.4991C404.274 55.9797 408.742 54.2312 419.622 54.2312C437.495 54.2312 468.773 55.0083 485.286 54.8141C492.863 54.8141 495.971 52.2885 501.994 52.2885C509.765 52.2885 512.485 54.6198 518.701 70.7445C522.004 79.4868 524.141 85.5093 524.141 89.7834C524.141 96.1944 520.255 99.1085 514.039 99.3028C508.21 99.3028 505.685 95.8058 499.274 83.5666C493.834 73.4644 492.474 73.4644 465.276 73.4644C445.849 73.4644 446.626 72.6873 446.626 97.1658C446.626 116.787 444.877 114.262 463.722 114.262C475.767 114.262 476.738 114.262 476.932 107.268C477.321 100.468 478.098 97.7486 484.898 97.7486C490.532 97.7486 491.892 103.771 494.029 113.873C497.72 131.941 498.303 142.237 489.366 142.82C482.955 143.403 481.401 140.683 478.875 134.661C476.738 128.638 475.378 129.027 464.11 129.027C445.266 129.027 447.014 128.638 447.014 150.203C447.014 173.71 444.683 172.155 475.184 172.155C495 172.155 496.748 171.767 500.44 160.499C504.714 147.871 506.268 143.986 512.679 143.986C520.255 143.986 523.364 146.9 523.364 154.088C523.364 158.751 521.421 165.162 519.478 173.71C515.593 190.029 514.622 194.303 505.879 194.303ZM655.346 192.748C641.358 192.943 637.861 190.417 634.558 184.006C631.256 176.818 627.759 169.047 606.971 135.632C583.27 97.36 583.464 90.5604 579.19 90.5604C576.47 90.5604 576.859 95.8058 576.859 103.965V154.282C576.859 166.327 578.025 168.659 585.99 171.961C594.538 174.875 596.481 177.401 596.481 181.286C596.481 190.611 589.681 191.971 569.088 192.166C546.358 192.166 538.393 193.331 538.393 182.063C538.393 177.789 541.113 174.875 549.078 171.573C555.489 169.047 558.209 167.299 558.209 153.311V95.0287C558.209 78.904 556.654 77.1556 549.078 75.2128C542.084 73.6586 538.393 72.1044 538.393 65.6934C538.393 55.9797 542.084 53.8427 570.836 53.8427C589.875 53.8427 592.984 54.037 598.229 66.082C605.029 80.6525 609.303 87.8406 623.873 111.931C645.438 146.511 646.992 153.311 649.712 153.311C652.626 153.311 652.043 149.231 652.043 138.74V91.3375C652.043 78.3212 651.266 76.767 644.661 74.2415C637.278 71.7159 633.198 70.5503 633.198 64.1392C633.198 55.3969 641.358 53.8427 661.174 53.8427C680.213 54.037 687.789 54.2312 687.984 64.5278C687.984 69.5789 684.098 71.5216 679.241 73.8529C670.11 77.3498 670.11 77.5441 670.11 96.9715C670.11 150.591 672.247 166.133 672.247 182.452C672.247 189.834 667.973 192.748 655.346 192.748ZM768.718 194.497C747.348 194.497 729.475 187.309 717.43 174.875C705.579 162.636 698.974 145.346 698.974 124.17C698.974 101.634 706.55 82.7895 719.372 69.9674C730.835 58.311 746.765 51.7057 764.638 51.7057C778.626 51.7057 788.534 56.7568 795.334 63.7507C797.665 66.082 798.636 67.4419 800.773 67.4419C805.436 67.4419 798.442 53.8427 811.264 53.8427C818.064 53.8427 818.841 58.6995 825.446 72.8815C829.137 81.2353 831.08 86.675 831.08 91.1433C831.08 97.5543 828.166 100.857 822.92 102.411C810.098 106.297 806.601 101.44 796.693 89.5891C787.951 79.0983 775.906 72.8815 763.861 72.8815C753.565 72.8815 742.685 76.9613 737.246 83.5666C729.475 91.5318 725.589 103.188 725.589 115.233C725.589 130.192 731.029 145.346 741.714 155.836C750.068 163.996 760.947 169.047 776.683 169.047C790.671 169.047 801.55 165.162 809.321 161.276C814.955 158.168 818.452 154.865 821.56 157.196C824.086 159.139 824.086 162.442 822.338 166.133C816.315 179.149 802.133 194.497 768.718 194.497ZM943.375 194.303C936.381 194.303 933.272 191 924.724 191H861.585C847.209 191 842.352 191.971 842.158 181.286C841.964 174.875 845.849 174.098 853.037 171.184C859.448 168.659 859.06 165.55 859.643 155.642C860.614 141.849 860.226 104.937 859.837 90.7547C859.643 79.8754 858.477 77.1556 853.814 75.9899C848.763 73.8529 841.77 73.6586 841.77 65.4991C841.77 55.9797 846.238 54.2312 857.117 54.2312C874.99 54.2312 906.268 55.0083 922.782 54.8141C930.358 54.8141 933.467 52.2885 939.489 52.2885C947.26 52.2885 949.98 54.6198 956.197 70.7445C959.499 79.4868 961.636 85.5093 961.636 89.7834C961.636 96.1944 957.751 99.1085 951.534 99.3028C945.706 99.3028 943.18 95.8058 936.769 83.5666C931.33 73.4644 929.97 73.4644 902.771 73.4644C883.344 73.4644 884.121 72.6873 884.121 97.1658C884.121 116.787 882.373 114.262 901.217 114.262C913.262 114.262 914.234 114.262 914.428 107.268C914.816 100.468 915.594 97.7486 922.393 97.7486C928.027 97.7486 929.387 103.771 931.524 113.873C935.215 131.941 935.798 142.237 926.861 142.82C920.45 143.403 918.896 140.683 916.371 134.661C914.234 128.638 912.874 129.027 901.606 129.027C882.761 129.027 884.51 128.638 884.51 150.203C884.51 173.71 882.178 172.155 912.679 172.155C932.495 172.155 934.244 171.767 937.935 160.499C942.209 147.871 943.763 143.986 950.174 143.986C957.751 143.986 960.859 146.9 960.859 154.088C960.859 158.751 958.917 165.162 956.974 173.71C953.088 190.029 952.117 194.303 943.375 194.303ZM1093.29 192.166C1065.32 192.166 1059.68 191.777 1059.68 182.452C1059.68 175.652 1063.38 173.515 1071.53 170.601C1078.92 167.299 1081.25 166.133 1081.25 154.088V82.5952C1081.25 75.9899 1080.28 75.6014 1066.48 75.6014C1051.52 75.6014 1052.69 75.2128 1049.97 83.7609C1044.34 100.857 1040.84 105.908 1032.29 105.908C1025.3 105.908 1021.22 102.411 1021.22 95.8058C1021.22 90.949 1023.35 83.3723 1026.27 72.8815C1031.13 55.2026 1034.82 51.9 1042.78 51.9C1050.94 51.9 1052.88 55.2026 1063.18 55.2026H1126.9C1136.62 55.2026 1138.95 51.7057 1146.52 51.7057C1155.46 51.7057 1158.57 56.3683 1163.43 71.9102C1167.12 82.7895 1168.67 90.1719 1168.67 95.223C1168.67 102.994 1163.81 106.297 1157.99 106.297C1149.44 106.297 1145.16 99.1085 1139.72 83.5666C1136.62 74.4357 1137.98 75.6014 1119.52 75.6014C1108.45 75.6014 1107.67 76.767 1107.67 84.1494V153.505C1107.67 165.939 1109.22 167.299 1115.25 169.63C1123.02 171.961 1128.07 173.127 1128.07 181.092C1128.07 192.748 1118.35 192.166 1093.29 192.166ZM1212.53 191.389C1186.3 191.583 1179.11 192.36 1178.92 182.258C1178.72 176.624 1181.25 174.098 1188.24 171.767C1194.85 169.241 1195.82 167.299 1196.01 153.505C1196.6 140.489 1196.4 113.485 1196.21 93.2803C1196.01 78.7097 1195.43 76.3785 1189.21 74.63C1182.61 73.0758 1178.53 72.6873 1178.53 64.5278C1178.53 54.037 1184.74 54.4255 1210.97 54.6198C1231.95 54.6198 1239.14 53.8427 1239.14 63.9449C1239.14 70.356 1236.42 71.9102 1229.43 75.2128C1223.02 77.7384 1222.63 79.4868 1222.63 92.5032C1222.63 113.873 1222.24 115.427 1233.31 115.427H1266.34C1277.8 115.427 1277.41 114.456 1277.41 91.5318C1277.61 79.0983 1277.22 77.5441 1270.42 75.2128C1264.79 73.4644 1260.51 73.0758 1260.71 65.8877C1260.9 56.3683 1266.73 54.6198 1289.46 54.4255C1314.13 54.4255 1320.74 55.3969 1320.54 63.3621C1320.35 69.7732 1318.21 72.1044 1310.83 74.63C1304.22 77.3498 1303.64 78.904 1303.45 93.2803C1303.25 107.268 1303.45 127.472 1303.45 153.311C1303.45 169.241 1304.42 170.407 1310.25 172.155C1316.27 173.515 1319.96 174.487 1319.96 180.898C1319.96 192.36 1313.94 191.389 1290.62 191.389C1267.89 191.194 1260.12 194.108 1260.12 182.841C1260.12 177.984 1262.45 175.458 1269.45 172.738C1276.05 170.407 1276.44 169.63 1276.44 156.031C1276.64 133.689 1276.44 134.272 1265.37 134.272H1232.34C1221.07 134.272 1221.66 134.855 1221.46 156.031C1221.46 168.076 1222.82 168.853 1228.84 170.796C1235.84 173.904 1238.95 175.458 1238.75 181.675C1238.56 190.417 1232.54 191.194 1212.53 191.389ZM1433.42 194.303C1426.43 194.303 1423.32 191 1414.77 191H1351.63C1337.26 191 1332.4 191.971 1332.21 181.286C1332.01 174.875 1335.9 174.098 1343.09 171.184C1349.5 168.659 1349.11 165.55 1349.69 155.642C1350.66 141.849 1350.27 104.937 1349.89 90.7547C1349.69 79.8754 1348.53 77.1556 1343.86 75.9899C1338.81 73.8529 1331.82 73.6586 1331.82 65.4991C1331.82 55.9797 1336.29 54.2312 1347.17 54.2312C1365.04 54.2312 1396.32 55.0083 1412.83 54.8141C1420.41 54.8141 1423.51 52.2885 1429.54 52.2885C1437.31 52.2885 1440.03 54.6198 1446.24 70.7445C1449.55 79.4868 1451.68 85.5093 1451.68 89.7834C1451.68 96.1944 1447.8 99.1085 1441.58 99.3028C1435.75 99.3028 1433.23 95.8058 1426.82 83.5666C1421.38 73.4644 1420.02 73.4644 1392.82 73.4644C1373.39 73.4644 1374.17 72.6873 1374.17 97.1658C1374.17 116.787 1372.42 114.262 1391.27 114.262C1403.31 114.262 1404.28 114.262 1404.48 107.268C1404.86 100.468 1405.64 97.7486 1412.44 97.7486C1418.08 97.7486 1419.44 103.771 1421.57 113.873C1425.26 131.941 1425.85 142.237 1416.91 142.82C1410.5 143.403 1408.94 140.683 1406.42 134.661C1404.28 128.638 1402.92 129.027 1391.65 129.027C1372.81 129.027 1374.56 128.638 1374.56 150.203C1374.56 173.71 1372.23 172.155 1402.73 172.155C1422.54 172.155 1424.29 171.767 1427.98 160.499C1432.26 147.871 1433.81 143.986 1440.22 143.986C1447.8 143.986 1450.91 146.9 1450.91 154.088C1450.91 158.751 1448.96 165.162 1447.02 173.71C1443.14 190.029 1442.17 194.303 1433.42 194.303ZM1543.32 192.554C1516.12 192.36 1513.4 191 1513.4 180.703C1513.4 175.07 1517.29 173.127 1523.7 170.601C1529.53 168.076 1531.28 167.299 1531.28 143.403V90.949C1531.28 82.4009 1530.89 79.6811 1522.34 77.7384C1516.51 76.3785 1512.24 74.8243 1512.24 67.0533C1512.24 57.1454 1514.37 55.0083 1527.58 55.0083C1539.24 55.0083 1565.66 54.8141 1582.37 54.8141C1618.5 54.8141 1635.41 66.859 1635.6 94.8345C1635.8 122.421 1619.48 140.1 1584.51 139.906C1556.14 139.712 1556.34 140.1 1556.14 150.397C1555.95 165.55 1555.56 168.27 1565.47 170.601C1575.96 172.933 1578.29 174.875 1578.29 180.703C1578.29 191.194 1572.66 192.554 1543.32 192.554ZM1583.73 120.867C1602.38 120.867 1609.18 116.01 1609.18 102.023C1609.37 84.538 1597.33 74.8243 1575.96 74.8243C1551.09 74.8243 1555.56 73.0758 1555.75 96.7772C1555.95 123.393 1552.26 120.867 1583.73 120.867ZM1759.44 192.748C1741.76 192.748 1731.85 185.172 1725.63 155.448C1721.75 136.992 1716.31 133.689 1703.1 133.689C1688.53 133.689 1689.5 132.912 1689.5 151.174C1689.5 168.27 1688.92 169.241 1698.05 171.573C1704.85 174.098 1706.21 176.624 1706.01 181.481C1705.82 189.252 1698.82 191.194 1677.26 191.194C1652.97 191.194 1646.95 191 1646.95 180.315C1646.76 174.875 1650.45 173.515 1658.41 170.601C1663.85 168.464 1664.63 166.522 1665.21 155.448C1665.99 139.712 1665.6 106.491 1665.21 91.7261C1664.83 80.0697 1664.44 77.3498 1659.19 75.4071C1652.59 73.0758 1646.18 73.8529 1646.18 67.0533C1646.18 57.5339 1649.48 54.037 1660.16 54.4255C1676.29 55.2026 1700.96 54.8141 1723.3 54.8141C1752.05 54.8141 1769.93 64.3335 1769.93 90.3662C1769.93 107.851 1759.44 119.896 1740.98 124.364C1737.29 125.53 1735.15 125.918 1735.15 127.667C1735.15 129.998 1737.29 129.415 1742.92 132.524C1748.56 135.826 1752.25 141.266 1754.39 149.231C1758.85 164.967 1762.35 169.63 1767.98 169.63C1777.12 169.63 1773.23 160.499 1778.86 159.722C1781.97 159.333 1783.14 161.47 1783.14 164.384C1783.53 180.315 1775.37 192.748 1759.44 192.748ZM1713.78 117.37C1736.71 117.37 1742.92 108.628 1742.92 96.3887C1742.92 81.6239 1734.18 73.2701 1712.42 73.2701C1685.81 73.2701 1689.3 71.1331 1689.3 97.7486C1689.3 119.313 1686.97 117.565 1713.78 117.37ZM1866.86 196.051C1844.52 196.051 1826.65 188.669 1814.02 175.847C1801.97 163.219 1795.17 145.734 1795.17 125.141C1795.17 103.771 1802.36 84.1494 1815.96 70.5503C1828.2 58.311 1845.49 50.7343 1867.06 50.7343C1887.45 50.7343 1903.97 57.5339 1915.82 69.3846C1929.42 82.9838 1936.8 102.994 1936.8 126.501C1936.8 147.483 1930 164.773 1917.96 176.818C1905.72 189.252 1888.23 196.051 1866.86 196.051ZM1873.08 173.904C1883.76 173.904 1893.48 169.63 1899.89 163.025C1907.27 155.448 1910.96 144.763 1910.96 133.106C1910.96 118.147 1905.33 101.44 1895.23 89.7834C1886.29 79.2926 1872.88 73.4644 1859.67 73.4644C1849.18 73.4644 1840.05 76.9613 1832.47 84.538C1824.9 92.1146 1821.21 103.577 1821.21 115.233C1821.21 129.998 1826.84 146.123 1836.55 157.002C1845.69 167.687 1859.48 173.904 1873.08 173.904ZM2023.15 194.497C2001.78 194.497 1983.91 187.309 1971.86 174.875C1960.01 162.636 1953.41 145.346 1953.41 124.17C1953.41 101.634 1960.98 82.7895 1973.8 69.9674C1985.27 58.311 2001.2 51.7057 2019.07 51.7057C2033.06 51.7057 2042.97 56.7568 2049.77 63.7507C2052.1 66.082 2053.07 67.4419 2055.21 67.4419C2059.87 67.4419 2052.87 53.8427 2065.7 53.8427C2072.5 53.8427 2073.27 58.6995 2079.88 72.8815C2083.57 81.2353 2085.51 86.675 2085.51 91.1433C2085.51 97.5543 2082.6 100.857 2077.35 102.411C2064.53 106.297 2061.03 101.44 2051.13 89.5891C2042.38 79.0983 2030.34 72.8815 2018.29 72.8815C2008 72.8815 1997.12 76.9613 1991.68 83.5666C1983.91 91.5318 1980.02 103.188 1980.02 115.233C1980.02 130.192 1985.46 145.346 1996.15 155.836C2004.5 163.996 2015.38 169.047 2031.12 169.047C2045.1 169.047 2055.98 165.162 2063.75 161.276C2069.39 158.168 2072.88 154.865 2075.99 157.196C2078.52 159.139 2078.52 162.442 2076.77 166.133C2070.75 179.149 2056.56 194.497 2023.15 194.497ZM2197.81 194.303C2190.81 194.303 2187.7 191 2179.16 191H2116.02C2101.64 191 2096.78 191.971 2096.59 181.286C2096.4 174.875 2100.28 174.098 2107.47 171.184C2113.88 168.659 2113.49 165.55 2114.07 155.642C2115.05 141.849 2114.66 104.937 2114.27 90.7547C2114.07 79.8754 2112.91 77.1556 2108.25 75.9899C2103.2 73.8529 2096.2 73.6586 2096.2 65.4991C2096.2 55.9797 2100.67 54.2312 2111.55 54.2312C2129.42 54.2312 2160.7 55.0083 2177.21 54.8141C2184.79 54.8141 2187.9 52.2885 2193.92 52.2885C2201.69 52.2885 2204.41 54.6198 2210.63 70.7445C2213.93 79.4868 2216.07 85.5093 2216.07 89.7834C2216.07 96.1944 2212.18 99.1085 2205.97 99.3028C2200.14 99.3028 2197.61 95.8058 2191.2 83.5666C2185.76 73.4644 2184.4 73.4644 2157.2 73.4644C2137.78 73.4644 2138.55 72.6873 2138.55 97.1658C2138.55 116.787 2136.8 114.262 2155.65 114.262C2167.69 114.262 2168.67 114.262 2168.86 107.268C2169.25 100.468 2170.03 97.7486 2176.83 97.7486C2182.46 97.7486 2183.82 103.771 2185.96 113.873C2189.65 131.941 2190.23 142.237 2181.29 142.82C2174.88 143.403 2173.33 140.683 2170.8 134.661C2168.67 128.638 2167.31 129.027 2156.04 129.027C2137.19 129.027 2138.94 128.638 2138.94 150.203C2138.94 173.71 2136.61 172.155 2167.11 172.155C2186.93 172.155 2188.68 171.767 2192.37 160.499C2196.64 147.871 2198.2 143.986 2204.61 143.986C2212.18 143.986 2215.29 146.9 2215.29 154.088C2215.29 158.751 2213.35 165.162 2211.41 173.71C2207.52 190.029 2206.55 194.303 2197.81 194.303ZM2302.4 193.914C2288.6 193.914 2279.28 189.64 2269.95 183.618C2265.87 181.092 2263.74 177.207 2260.24 177.789C2254.99 178.761 2263.93 192.748 2251.5 193.526C2242.56 193.914 2241.98 189.64 2237.12 174.681C2235.18 168.464 2233.82 163.413 2233.82 159.139C2233.82 151.757 2239.84 149.037 2250.72 149.037C2258.3 149.037 2260.04 152.534 2267.82 160.888C2275.59 169.241 2287.83 177.012 2303.17 177.012C2316.19 177.012 2325.13 170.99 2325.13 157.973C2325.13 144.569 2316.77 139.906 2289.19 134.661C2257.91 128.832 2237.9 119.896 2237.9 92.6975C2237.9 68.6075 2259.27 52.2885 2285.11 52.2885C2298.9 52.2885 2306.86 56.3683 2314.05 62.0022C2317.55 64.722 2317.94 66.2762 2320.85 66.2762C2324.74 66.2762 2320.27 53.8427 2329.59 53.2599C2336.59 52.6771 2337.37 56.174 2343.19 67.2476C2346.88 74.2415 2349.02 80.4582 2349.02 85.1208C2349.02 89.5891 2345.91 92.5032 2342.03 93.8631C2333.67 96.9715 2327.65 94.8345 2317.94 85.1208C2307.25 74.4357 2296.96 70.1617 2283.94 70.1617C2269.17 70.1617 2262.76 76.5727 2262.76 87.2578C2262.76 98.5257 2272.28 102.411 2296.37 106.491C2332.9 113.096 2349.22 123.781 2349.22 151.562C2349.22 177.789 2328.04 193.914 2302.4 193.914ZM2436.15 193.914C2422.36 193.914 2413.03 189.64 2403.71 183.618C2399.63 181.092 2397.49 177.207 2393.99 177.789C2388.75 178.761 2397.68 192.748 2385.25 193.526C2376.31 193.914 2375.73 189.64 2370.87 174.681C2368.93 168.464 2367.57 163.413 2367.57 159.139C2367.57 151.757 2373.59 149.037 2384.47 149.037C2392.05 149.037 2393.8 152.534 2401.57 160.888C2409.34 169.241 2421.58 177.012 2436.93 177.012C2449.94 177.012 2458.88 170.99 2458.88 157.973C2458.88 144.569 2450.52 139.906 2422.94 134.661C2391.66 128.832 2371.65 119.896 2371.65 92.6975C2371.65 68.6075 2393.02 52.2885 2418.86 52.2885C2432.65 52.2885 2440.62 56.3683 2447.81 62.0022C2451.3 64.722 2451.69 66.2762 2454.6 66.2762C2458.49 66.2762 2454.02 53.8427 2463.35 53.2599C2470.34 52.6771 2471.12 56.174 2476.95 67.2476C2480.64 74.2415 2482.77 80.4582 2482.77 85.1208C2482.77 89.5891 2479.67 92.5032 2475.78 93.8631C2467.43 96.9715 2461.4 94.8345 2451.69 85.1208C2441.01 74.4357 2430.71 70.1617 2417.69 70.1617C2402.93 70.1617 2396.52 76.5727 2396.52 87.2578C2396.52 98.5257 2406.04 102.411 2430.13 106.491C2466.65 113.096 2482.97 123.781 2482.97 151.562C2482.97 177.789 2461.79 193.914 2436.15 193.914Z" fill="#1F266D"/>
<rect y="559.784" width="1294" height="499" fill="#23264C"/>
<path d="M42.0552 1077.19C22.045 1077.19 15.2454 1078.55 15.2454 1067.48C15.2454 1060.29 19.7137 1060.1 27.2904 1057.18C33.3129 1054.27 34.4785 1051.35 34.4785 1039.12V977.919C34.4785 964.709 33.3129 963.543 26.1247 961.212C19.5194 959.463 15.0511 958.881 15.0511 950.721C15.0511 941.202 19.7137 940.23 38.364 940.23H78.5787C127.147 940.23 152.791 963.737 152.791 1007.25C152.791 1047.28 130.45 1077.19 82.8527 1077.19H42.0552ZM84.0183 1056.02C112.188 1056.02 125.01 1041.64 125.01 1015.03C125.01 986.273 111.022 960.629 79.55 960.629C58.957 960.629 59.5398 960.435 59.5398 977.725V1038.34C59.5398 1056.6 60.1226 1056.02 84.0183 1056.02ZM267.873 1080.3C260.879 1080.3 257.77 1077 249.222 1077H186.083C171.707 1077 166.85 1077.97 166.656 1067.29C166.462 1060.87 170.347 1060.1 177.535 1057.18C183.946 1054.66 183.558 1051.55 184.141 1041.64C185.112 1027.85 184.723 990.936 184.335 976.754C184.141 965.874 182.975 963.155 178.312 961.989C173.261 959.852 166.267 959.658 166.267 951.498C166.267 941.979 170.736 940.23 181.615 940.23C199.488 940.23 230.766 941.007 247.28 940.813C254.856 940.813 257.965 938.288 263.987 938.288C271.758 938.288 274.478 940.619 280.695 956.744C283.997 965.486 286.134 971.508 286.134 975.782C286.134 982.193 282.249 985.108 276.032 985.302C270.204 985.302 267.678 981.805 261.267 969.566C255.828 959.463 254.468 959.463 227.269 959.463C207.842 959.463 208.619 958.686 208.619 983.165C208.619 1002.79 206.871 1000.26 225.715 1000.26C237.76 1000.26 238.732 1000.26 238.926 993.267C239.314 986.467 240.091 983.748 246.891 983.748C252.525 983.748 253.885 989.77 256.022 999.872C259.713 1017.94 260.296 1028.24 251.359 1028.82C244.948 1029.4 243.394 1026.68 240.869 1020.66C238.732 1014.64 237.372 1015.03 226.104 1015.03C207.259 1015.03 209.008 1014.64 209.008 1036.2C209.008 1059.71 206.676 1058.15 237.177 1058.15C256.993 1058.15 258.742 1057.77 262.433 1046.5C266.707 1033.87 268.261 1029.98 274.672 1029.98C282.249 1029.98 285.357 1032.9 285.357 1040.09C285.357 1044.75 283.415 1051.16 281.472 1059.71C277.586 1076.03 276.615 1080.3 267.873 1080.3ZM372.462 1079.91C358.668 1079.91 349.343 1075.64 340.018 1069.62C335.938 1067.09 333.801 1063.21 330.304 1063.79C325.059 1064.76 333.996 1078.75 321.562 1079.52C312.625 1079.91 312.043 1075.64 307.186 1060.68C305.243 1054.46 303.883 1049.41 303.883 1045.14C303.883 1037.76 309.906 1035.04 320.785 1035.04C328.362 1035.04 330.11 1038.53 337.881 1046.89C345.652 1055.24 357.891 1063.01 373.239 1063.01C386.255 1063.01 395.192 1056.99 395.192 1043.97C395.192 1030.57 386.838 1025.91 359.251 1020.66C327.973 1014.83 307.963 1005.89 307.963 978.696C307.963 954.607 329.333 938.288 355.171 938.288C368.965 938.288 376.93 942.367 384.118 948.001C387.615 950.721 388.004 952.275 390.918 952.275C394.803 952.275 390.335 939.842 399.66 939.259C406.654 938.676 407.431 942.173 413.259 953.247C416.95 960.24 419.087 966.457 419.087 971.12C419.087 975.588 415.979 978.502 412.094 979.862C403.74 982.971 397.717 980.833 388.004 971.12C377.319 960.435 367.022 956.161 354.006 956.161C339.241 956.161 332.83 962.572 332.83 973.257C332.83 984.525 342.349 988.41 366.439 992.49C402.963 999.095 419.282 1009.78 419.282 1037.56C419.282 1063.79 398.106 1079.91 372.462 1079.91ZM465.029 1077.19C439.19 1077.39 434.722 1077.39 434.722 1067.67C434.722 1062.23 437.636 1059.9 445.213 1057.18C451.235 1055.24 453.567 1053.1 453.567 1038.73V979.474C453.567 964.903 451.624 962.572 445.601 961.018C439.19 959.463 434.722 959.075 434.722 951.498C434.722 940.425 439.19 940.425 466 940.425C493.004 940.619 497.861 940.425 497.861 949.167C497.861 955.384 495.141 957.326 487.759 960.435C480.959 963.155 479.016 964.903 479.016 980.251V1040.09C479.016 1052.33 480.571 1054.66 486.982 1056.79C492.421 1058.54 497.278 1059.32 497.278 1066.51C497.278 1077.39 493.004 1077.19 465.029 1077.19ZM631.693 1080.3C623.922 1080.3 623.922 1075.83 623.922 1065.93C623.922 1060.29 624.31 1056.6 621.396 1056.6C618.482 1056.6 618.288 1061.26 613.237 1066.7C605.077 1075.25 594.198 1080.11 577.685 1080.11C558.452 1080.11 541.744 1073.31 529.893 1061.26C518.237 1049.22 511.243 1031.73 511.243 1010.36C511.243 987.827 518.82 968.983 531.642 956.161C543.298 944.31 559.423 937.51 577.879 937.51C593.032 937.51 603.135 942.173 610.128 948.001C615.18 952.275 615.568 954.218 618.482 954.218C622.562 954.218 615.957 939.259 626.836 938.482C634.413 938.093 636.744 942.95 642.766 957.326C646.263 966.069 648.206 972.285 648.012 976.754C648.206 982.582 644.903 985.496 638.881 986.662C627.225 988.993 623.922 984.719 614.791 975.005C605.66 964.903 594.198 957.909 577.685 958.103C565.445 958.298 556.315 962.183 549.709 968.983C541.744 976.948 538.053 988.993 538.053 1003.37C538.053 1020.08 543.881 1034.45 553.595 1044.17C561.56 1051.74 572.051 1056.21 584.29 1056.21C594.587 1056.21 603.329 1053.49 608.963 1047.47C613.043 1043 615.374 1036.78 615.374 1028.43C615.374 1024.55 612.265 1024.74 602.94 1024.74C594.587 1024.74 590.895 1024.55 590.895 1017.36C590.895 1004.15 600.026 1006.48 628.002 1006.48C646.846 1006.48 653.451 1004.53 653.451 1013.86C653.451 1019.88 652.092 1023.96 646.458 1025.71C640.435 1027.26 639.852 1028.43 639.852 1033.29C639.852 1039.31 641.795 1051.16 641.795 1069.62C641.601 1077.78 637.715 1080.3 631.693 1080.3ZM782.551 1078.75C768.563 1078.94 765.066 1076.42 761.764 1070.01C758.461 1062.82 754.964 1055.05 734.177 1021.63C710.475 983.359 710.67 976.559 706.396 976.559C703.676 976.559 704.064 981.805 704.064 989.964V1040.28C704.064 1052.33 705.23 1054.66 713.195 1057.96C721.743 1060.87 723.686 1063.4 723.686 1067.29C723.686 1076.61 716.886 1077.97 696.293 1078.16C673.563 1078.16 665.598 1079.33 665.598 1068.06C665.598 1063.79 668.318 1060.87 676.283 1057.57C682.694 1055.05 685.414 1053.3 685.414 1039.31V981.028C685.414 964.903 683.86 963.155 676.283 961.212C669.289 959.658 665.598 958.103 665.598 951.692C665.598 941.979 669.289 939.842 698.042 939.842C717.081 939.842 720.189 940.036 725.434 952.081C732.234 966.652 736.508 973.84 751.079 997.93C772.643 1032.51 774.197 1039.31 776.917 1039.31C779.831 1039.31 779.248 1035.23 779.248 1024.74V977.337C779.248 964.32 778.471 962.766 771.866 960.24C764.483 957.715 760.404 956.549 760.404 950.138C760.404 941.396 768.563 939.842 788.379 939.842C807.418 940.036 814.995 940.23 815.189 950.527C815.189 955.578 811.303 957.521 806.447 959.852C797.316 963.349 797.316 963.543 797.316 982.971C797.316 1036.59 799.453 1052.13 799.453 1068.45C799.453 1075.83 795.179 1078.75 782.551 1078.75ZM894.952 1079.91C881.159 1079.91 871.833 1075.64 862.508 1069.62C858.429 1067.09 856.292 1063.21 852.795 1063.79C847.549 1064.76 856.486 1078.75 844.052 1079.52C835.116 1079.91 834.533 1075.64 829.676 1060.68C827.733 1054.46 826.373 1049.41 826.373 1045.14C826.373 1037.76 832.396 1035.04 843.275 1035.04C850.852 1035.04 852.6 1038.53 860.371 1046.89C868.142 1055.24 880.381 1063.01 895.729 1063.01C908.745 1063.01 917.682 1056.99 917.682 1043.97C917.682 1030.57 909.328 1025.91 881.741 1020.66C850.463 1014.83 830.453 1005.89 830.453 978.696C830.453 954.607 851.823 938.288 877.662 938.288C891.455 938.288 899.42 942.367 906.608 948.001C910.105 950.721 910.494 952.275 913.408 952.275C917.294 952.275 912.825 939.842 922.15 939.259C929.144 938.676 929.921 942.173 935.75 953.247C939.441 960.24 941.578 966.457 941.578 971.12C941.578 975.588 938.469 978.502 934.584 979.862C926.23 982.971 920.208 980.833 910.494 971.12C899.809 960.435 889.512 956.161 876.496 956.161C861.731 956.161 855.32 962.572 855.32 973.257C855.32 984.525 864.84 988.41 888.93 992.49C925.453 999.095 941.772 1009.78 941.772 1037.56C941.772 1063.79 920.596 1079.91 894.952 1079.91Z" fill="#FBF5F5"/>
</svg>
