<svg width="424" height="205" viewBox="0 0 424 205" fill="none" xmlns="http://www.w3.org/2000/svg">
<g filter="url(#filter0_d_513_1261)">
<path d="M255.531 13.4531C265.495 13.4532 273.572 21.5305 273.572 31.4941V49.1255C273.572 58.5357 281.201 66.1641 290.611 66.1641H387.552C397.515 66.1641 405.593 74.2415 405.593 84.2051V164.529C405.593 174.493 397.515 182.57 387.552 182.57H35.6338L35.168 182.564C34.7038 182.553 34.2439 182.524 33.7891 182.478C33.6375 182.462 33.4864 182.445 33.3359 182.426C33.0351 182.388 32.7365 182.342 32.4404 182.289C32.2923 182.263 32.1449 182.234 31.998 182.204C31.4107 182.084 30.8336 181.936 30.2686 181.76C30.1275 181.716 29.9872 181.67 29.8477 181.623C28.8695 181.292 27.929 180.88 27.0342 180.394C26.6508 180.185 26.2761 179.963 25.9102 179.729C24.08 178.555 22.4755 177.061 21.1768 175.324C21.0901 175.208 21.0048 175.092 20.9209 174.974C20.7532 174.738 20.591 174.498 20.4346 174.254C20.2782 174.01 20.1282 173.762 19.9834 173.51C19.8386 173.258 19.6992 173.002 19.5664 172.743C19.5 172.614 19.4354 172.483 19.3721 172.352C18.802 171.169 18.357 169.914 18.0547 168.604C17.9539 168.168 17.8693 167.725 17.8008 167.277C17.6639 166.382 17.5928 165.464 17.5928 164.53V31.4941C17.5928 21.5305 25.6701 13.4531 35.6338 13.4531H255.531Z" fill="#2D39B8"/>
</g>
<defs>
<filter id="filter0_d_513_1261" x="7.82013e-05" y="-0.000112534" width="423.185" height="204.303" filterUnits="userSpaceOnUse" color-interpolation-filters="sRGB">
<feFlood flood-opacity="0" result="BackgroundImageFix"/>
<feColorMatrix in="SourceAlpha" type="matrix" values="0 0 0 0 0 0 0 0 0 0 0 0 0 0 0 0 0 0 127 0" result="hardAlpha"/>
<feOffset dy="4.13946"/>
<feGaussianBlur stdDeviation="8.79635"/>
<feComposite in2="hardAlpha" operator="out"/>
<feColorMatrix type="matrix" values="0 0 0 0 0.466346 0 0 0 0 0.448709 0 0 0 0 0.422252 0 0 0 0.2 0"/>
<feBlend mode="normal" in2="BackgroundImageFix" result="effect1_dropShadow_513_1261"/>
<feBlend mode="normal" in="SourceGraphic" in2="effect1_dropShadow_513_1261" result="shape"/>
</filter>
</defs>
</svg>
