<svg width="424" height="205" viewBox="0 0 424 205" fill="none" xmlns="http://www.w3.org/2000/svg">
<g filter="url(#filter0_d_505_74)">
<path d="M255.531 13.4532C265.495 13.4533 273.572 21.5306 273.572 31.4943V49.1266C273.572 58.5368 281.201 66.1652 290.611 66.1652H387.552C397.515 66.1652 405.593 74.2418 405.593 84.2052V164.529C405.593 174.493 397.515 182.57 387.552 182.57H35.6338L35.168 182.565C34.8583 182.557 34.5507 182.541 34.2451 182.518C33.4819 182.46 32.7318 182.354 31.998 182.204C31.7044 182.144 31.4133 182.077 31.125 182.003C29.9722 181.706 28.864 181.299 27.8125 180.792C27.5495 180.665 27.2899 180.533 27.0342 180.394C26.6508 180.185 26.2761 179.963 25.9102 179.729C25.3001 179.338 24.7151 178.911 24.1582 178.451C24.0467 178.359 23.9364 178.266 23.8271 178.171C23.4999 177.887 23.183 177.592 22.877 177.286C22.673 177.082 22.4734 176.874 22.2793 176.66C21.8911 176.233 21.523 175.787 21.1768 175.324C20.7439 174.746 20.3454 174.139 19.9834 173.51C19.8386 173.258 19.6992 173.003 19.5664 172.743C19.5 172.614 19.4354 172.483 19.3721 172.352C19.2453 172.089 19.1249 171.822 19.0107 171.552C18.8397 171.147 18.6828 170.735 18.541 170.317C18.4464 170.037 18.3584 169.754 18.2773 169.469C17.9531 168.327 17.7385 167.14 17.6455 165.918C17.6223 165.613 17.6065 165.305 17.5986 164.995C17.5947 164.841 17.5928 164.686 17.5928 164.53V31.4943C17.5928 21.5306 25.6701 13.4532 35.6338 13.4532H255.531Z" fill="#FEF6EA"/>
</g>
<defs>
<filter id="filter0_d_505_74" x="7.82013e-05" y="9.53674e-06" width="423.185" height="204.303" filterUnits="userSpaceOnUse" color-interpolation-filters="sRGB">
<feFlood flood-opacity="0" result="BackgroundImageFix"/>
<feColorMatrix in="SourceAlpha" type="matrix" values="0 0 0 0 0 0 0 0 0 0 0 0 0 0 0 0 0 0 127 0" result="hardAlpha"/>
<feOffset dy="4.13946"/>
<feGaussianBlur stdDeviation="8.79635"/>
<feComposite in2="hardAlpha" operator="out"/>
<feColorMatrix type="matrix" values="0 0 0 0 0.466346 0 0 0 0 0.448709 0 0 0 0 0.422252 0 0 0 0.2 0"/>
<feBlend mode="normal" in2="BackgroundImageFix" result="effect1_dropShadow_505_74"/>
<feBlend mode="normal" in="SourceGraphic" in2="effect1_dropShadow_505_74" result="shape"/>
</filter>
</defs>
</svg>
