<svg width="47" height="47" viewBox="0 0 47 47" fill="none" xmlns="http://www.w3.org/2000/svg">
<g clip-path="url(#clip0_505_689)">
<path d="M10.6842 26.1212L23.0591 38.4321L35.434 26.1212C35.58 26.0101 35.7004 25.8688 35.7871 25.707C35.8738 25.5453 35.9246 25.3668 35.9363 25.1836C35.948 25.0005 35.9202 24.817 35.8548 24.6455C35.7894 24.474 35.6879 24.3186 35.5572 24.1898C35.4265 24.0609 35.2697 23.9617 35.0973 23.8987C34.9249 23.8358 34.741 23.8106 34.5581 23.8249C34.3751 23.8392 34.1974 23.8927 34.0368 23.9816C33.8763 24.0706 33.7368 24.193 33.6277 24.3406L24.3401 33.5513V9.0449C24.3401 8.70514 24.2052 8.37931 23.9649 8.13906C23.7247 7.89882 23.3989 7.76385 23.0591 7.76385C22.7193 7.76385 22.3935 7.89882 22.1533 8.13906C21.913 8.37931 21.7781 8.70514 21.7781 9.0449V33.5513L12.4905 24.3406C12.2492 24.1011 11.9227 23.9672 11.5828 23.9684C11.2429 23.9696 10.9173 24.1058 10.6778 24.347C10.4383 24.5882 10.3044 24.9147 10.3056 25.2547C10.3068 25.5946 10.443 25.9201 10.6842 26.1597V26.1212Z" fill="white"/>
</g>
<defs>
<clipPath id="clip0_505_689">
<rect width="46.1176" height="46.1176" fill="white" transform="matrix(-1 0 0 -1 46.1176 46.1176)"/>
</clipPath>
</defs>
</svg>
